SplineFontDB: 3.0
FontName: Lohit-Devanagari
FullName: Lohit Devanagari
FamilyName: Lohit Devanagari
Weight: Book
Copyright: Copyright 2011-12 Lohit Fonts Project contributors.\n<http://fedorahosted.org/lohit>\nOpen type tables written by:\nPravin Satpute <psatpute AT redhat DOT com>\nSneha Kore <skore At redhat DOT com>\n\n   Licensed under the SIL Open Font License 1.1 (see file OFL.txt)
Version: 2.94.0
ItalicAngle: 0
UnderlinePosition: -399
UnderlineWidth: 26
Ascent: 819
Descent: 205
sfntRevision: 0x00028000
LayerCount: 2
Layer: 0 1 "Back"  1
Layer: 1 1 "Fore"  0
XUID: [1021 641 1310512963 3636999]
FSType: 0
OS2Version: 1
OS2_WeightWidthSlopeOnly: 0
OS2_UseTypoMetrics: 1
CreationTime: 1159459513
ModificationTime: 1392784791
PfmFamily: 33
TTFWeight: 400
TTFWidth: 5
LineGap: 266
VLineGap: 0
Panose: 2 11 6 0 0 0 0 0 0 0
OS2TypoAscent: 999
OS2TypoAOffset: 0
OS2TypoDescent: -365
OS2TypoDOffset: 0
OS2TypoLinegap: 0
OS2WinAscent: 1121
OS2WinAOffset: 0
OS2WinDescent: 515
OS2WinDOffset: 0
HheadAscent: 1121
HheadAOffset: 0
HheadDescent: -515
HheadDOffset: 0
OS2SubXSize: 932
OS2SubYSize: 866
OS2SubXOff: 0
OS2SubYOff: 266
OS2SupXSize: 932
OS2SupYSize: 866
OS2SupXOff: 0
OS2SupYOff: 666
OS2StrikeYSize: 67
OS2StrikeYPos: 333
OS2Vendor: 'ACE '
OS2CodePages: 00000001.00000000
OS2UnicodeRanges: 80008023.00002042.00000000.00000000
Lookup: 4 0 0 "halnHalantFormslookup29"  {"halnHalantFormslookup29 subtable"  } ['haln' ('deva' <'dflt' 'MAR ' 'NEP ' > 'dev2' <'dflt' 'MAR ' 'NEP ' > 'DFLT' <'dflt' > ) ]
Lookup: 1 0 0 "LocalizedMrForms_lookup0"  {"LocalizedMrForms_lookup0 subtable"  } ['locl' ('deva' <'MAR ' > 'dev2' <'MAR ' > ) ]
Lookup: 4 0 0 "LocalizedMrHalfFormslookup1"  {"LocalizedMrHalfFormslookup1 subtable"  } ['locl' ('deva' <'MAR ' > 'dev2' <'MAR ' > ) ]
Lookup: 1 0 0 "LocalizedNpFormslookup2"  {"LocalizedNpFormslookup2 subtable"  } ['locl' ('deva' <'NEP ' > 'dev2' <'NEP ' > ) ]

StartChar: .notdef
Encoding: 65536 -1 0
Width: 1065
GlyphClass: 2
Flags: W
LayerCount: 2
Fore
SplineSet
200 67 m 1,0,-1
 866 67 l 1,1,-1
 866 866 l 1,2,-1
 200 866 l 1,3,-1
 200 67 l 1,0,-1
133 0 m 1,4,-1
 133 932 l 1,5,-1
 932 932 l 1,6,-1
 932 0 l 1,7,-1
 133 0 l 1,4,-1
EndSplineSet
Validated: 1
EndChar

StartChar: exclam
Encoding: 33 33 3
Width: 339
GlyphClass: 2
Flags: W
LayerCount: 2
Fore
SplineSet
146 233 m 1,0,-1
 100 739 l 1,1,-1
 240 739 l 1,2,-1
 193 233 l 1,3,-1
 146 233 l 1,0,-1
107 0 m 1,4,-1
 107 120 l 1,5,-1
 233 120 l 1,6,-1
 233 0 l 1,7,-1
 107 0 l 1,4,-1
EndSplineSet
Validated: 1
EndChar

StartChar: quotedbl
Encoding: 34 34 4
Width: 460
GlyphClass: 2
Flags: W
LayerCount: 2
Fore
SplineSet
361 664 m 1,0,-1
 312 664 l 1,1,-1
 273 875 l 1,2,-1
 353 875 l 1,3,-1
 361 664 l 1,0,-1
188 664 m 1,4,-1
 138 664 l 1,5,-1
 100 875 l 1,6,-1
 180 875 l 1,7,-1
 188 664 l 1,4,-1
EndSplineSet
Validated: 1
EndChar

StartChar: numbersign
Encoding: 35 35 5
Width: 934
GlyphClass: 2
Flags: W
LayerCount: 2
Fore
SplineSet
606 450 m 1,0,-1
 401 450 l 1,1,-1
 333 245 l 1,2,-1
 539 245 l 1,3,-1
 606 450 l 1,0,-1
166 450 m 1,4,-1
 166 511 l 1,5,-1
 360 511 l 1,6,-1
 409 668 l 1,7,-1
 470 668 l 1,8,-1
 421 511 l 1,9,-1
 626 511 l 1,10,-1
 675 668 l 1,11,-1
 738 668 l 1,12,-1
 688 511 l 1,13,-1
 835 511 l 1,14,-1
 835 450 l 1,15,-1
 667 450 l 1,16,-1
 601 245 l 1,17,-1
 768 245 l 1,18,-1
 768 181 l 1,19,-1
 581 181 l 1,20,-1
 523 -1 l 1,21,-1
 461 -1 l 1,22,-1
 519 181 l 1,23,-1
 314 181 l 1,24,-1
 256 -1 l 1,25,-1
 194 -1 l 1,26,-1
 253 181 l 1,27,-1
 100 181 l 1,28,-1
 100 245 l 1,29,-1
 272 245 l 1,30,-1
 338 450 l 1,31,-1
 166 450 l 1,4,-1
EndSplineSet
Validated: 1
EndChar

StartChar: dollar
Encoding: 36 36 6
Width: 712
GlyphClass: 2
Flags: W
LayerCount: 2
Fore
SplineSet
320 666 m 1,0,1
 258 654 258 654 218 617.5 c 128,-1,2
 178 581 178 581 178 535 c 0,3,4
 178 486 178 486 218 446.5 c 128,-1,5
 258 407 258 407 320 398 c 1,6,-1
 320 666 l 1,0,1
385 49 m 1,7,8
 457 57 457 57 505.5 98.5 c 128,-1,9
 554 140 554 140 554 194 c 128,-1,10
 554 248 554 248 505.5 287 c 128,-1,11
 457 326 457 326 385 332 c 1,12,-1
 385 49 l 1,7,8
100 225 m 1,13,-1
 161 225 l 1,14,15
 161 165 161 165 205.5 116 c 128,-1,16
 250 67 250 67 320 49 c 1,17,-1
 320 341 l 1,18,19
 233 350 233 350 174.5 406 c 128,-1,20
 116 462 116 462 116 535 c 0,21,22
 116 606 116 606 174 660 c 128,-1,23
 232 714 232 714 320 724 c 1,24,-1
 320 839 l 1,25,-1
 385 839 l 1,26,-1
 385 724 l 1,27,28
 474 714 474 714 533.5 655.5 c 128,-1,29
 593 597 593 597 593 519 c 1,30,-1
 529 519 l 1,31,32
 529 574 529 574 487.5 615 c 128,-1,33
 446 656 446 656 385 666 c 1,34,-1
 385 389 l 1,35,36
 483 376 483 376 548 320 c 128,-1,37
 613 264 613 264 613 194 c 0,38,39
 613 117 613 117 547.5 59 c 128,-1,40
 482 1 482 1 385 -9 c 1,41,-1
 385 -101 l 1,42,-1
 320 -101 l 1,43,-1
 320 -9 l 1,44,45
 225 4 225 4 162.5 70.5 c 128,-1,46
 100 137 100 137 100 225 c 1,13,-1
EndSplineSet
Validated: 1
EndChar

StartChar: percent
Encoding: 37 37 7
Width: 885
GlyphClass: 2
Flags: W
LayerCount: 2
Fore
SplineSet
622 67 m 128,-1,1
 662 67 662 67 690.5 96 c 128,-1,2
 719 125 719 125 719 166 c 0,3,4
 719 208 719 208 690.5 237 c 128,-1,5
 662 266 662 266 622 266 c 128,-1,6
 582 266 582 266 554 237 c 128,-1,7
 526 208 526 208 526 166 c 0,8,9
 526 125 526 125 554 96 c 128,-1,0
 582 67 582 67 622 67 c 128,-1,1
622 7 m 128,-1,11
 554 7 554 7 506.5 54 c 128,-1,12
 459 101 459 101 459 169 c 128,-1,13
 459 237 459 237 506.5 285 c 128,-1,14
 554 333 554 333 622 333 c 128,-1,15
 690 333 690 333 738 285 c 128,-1,16
 786 237 786 237 786 169 c 128,-1,17
 786 101 786 101 738 54 c 128,-1,10
 690 7 690 7 622 7 c 128,-1,11
262 459 m 128,-1,19
 302 459 302 459 331 487 c 128,-1,20
 360 515 360 515 360 555 c 128,-1,21
 360 595 360 595 331 623.5 c 128,-1,22
 302 652 302 652 262 652 c 128,-1,23
 222 652 222 652 194 623.5 c 128,-1,24
 166 595 166 595 166 555 c 128,-1,25
 166 515 166 515 194 487 c 128,-1,18
 222 459 222 459 262 459 c 128,-1,19
262 393 m 128,-1,27
 194 393 194 393 147 440 c 128,-1,28
 100 487 100 487 100 555 c 128,-1,29
 100 623 100 623 147 671 c 128,-1,30
 194 719 194 719 262 719 c 128,-1,31
 330 719 330 719 378 671 c 128,-1,32
 426 623 426 623 426 555 c 128,-1,33
 426 487 426 487 378 440 c 128,-1,26
 330 393 330 393 262 393 c 128,-1,27
146 0 m 1,34,-1
 666 726 l 1,35,-1
 739 726 l 1,36,-1
 220 0 l 1,37,-1
 146 0 l 1,34,-1
EndSplineSet
Validated: 1
EndChar

StartChar: ampersand
Encoding: 38 38 8
Width: 761
GlyphClass: 2
Flags: W
LayerCount: 2
Fore
SplineSet
244 587 m 0,0,1
 244 562 244 562 264 522.5 c 128,-1,2
 284 483 284 483 322 434 c 1,3,4
 370 462 370 462 398 500.5 c 128,-1,5
 426 539 426 539 426 578 c 0,6,7
 426 621 426 621 402 651.5 c 128,-1,8
 378 682 378 682 345 682 c 0,9,10
 304 682 304 682 274 654 c 128,-1,11
 244 626 244 626 244 587 c 0,0,1
166 184 m 0,12,13
 166 127 166 127 210 86 c 128,-1,14
 254 45 254 45 316 45 c 0,15,16
 360 45 360 45 401.5 70.5 c 128,-1,17
 443 96 443 96 474 140 c 1,18,-1
 304 352 l 1,19,20
 240 314 240 314 203 269.5 c 128,-1,21
 166 225 166 225 166 184 c 0,12,13
100 174 m 0,22,23
 100 232 100 232 146 292 c 128,-1,24
 192 352 192 352 272 398 c 1,25,26
 225 457 225 457 201 508 c 128,-1,27
 177 559 177 559 177 598 c 0,28,29
 177 655 177 655 224.5 696.5 c 128,-1,30
 272 738 272 738 338 738 c 0,31,32
 402 738 402 738 448 691 c 128,-1,33
 494 644 494 644 494 578 c 0,34,35
 494 526 494 526 458 475.5 c 128,-1,36
 422 425 422 425 360 389 c 1,37,-1
 505 200 l 1,38,39
 513 232 513 232 517.5 260.5 c 128,-1,40
 522 289 522 289 522 314 c 1,41,-1
 579 314 l 1,42,43
 579 262 579 262 570.5 220 c 128,-1,44
 562 178 562 178 545 149 c 1,45,-1
 662 -5 l 1,46,-1
 582 -5 l 1,47,-1
 502 89 l 1,48,49
 469 41 469 41 416.5 14 c 128,-1,50
 364 -13 364 -13 305 -13 c 0,51,52
 220 -13 220 -13 160 42 c 128,-1,53
 100 97 100 97 100 174 c 0,22,23
EndSplineSet
Validated: 1
EndChar

StartChar: quotesingle
Encoding: 39 39 9
Width: 287
GlyphClass: 2
Flags: W
LayerCount: 2
Fore
SplineSet
188 664 m 1,0,-1
 138 664 l 1,1,-1
 100 875 l 1,2,-1
 180 875 l 1,3,-1
 188 664 l 1,0,-1
EndSplineSet
Validated: 1
EndChar

StartChar: parenleft
Encoding: 40 40 10
Width: 486
GlyphClass: 2
Flags: W
LayerCount: 2
Fore
SplineSet
306 -220 m 1,0,1
 206 -101 206 -101 153 50 c 128,-1,2
 100 201 100 201 100 366 c 0,3,4
 100 505 100 505 153 642.5 c 128,-1,5
 206 780 206 780 306 899 c 1,6,-1
 386 899 l 1,7,8
 280 772 280 772 223 635 c 128,-1,9
 166 498 166 498 166 366 c 0,10,11
 166 209 166 209 223 58 c 128,-1,12
 280 -93 280 -93 386 -220 c 1,13,-1
 306 -220 l 1,0,1
EndSplineSet
Validated: 1
EndChar

StartChar: parenright
Encoding: 41 41 11
Width: 466
GlyphClass: 2
Flags: W
LayerCount: 2
Fore
SplineSet
100 -220 m 1,0,1
 197 -104 197 -104 248.5 40 c 128,-1,2
 300 184 300 184 300 340 c 0,3,4
 300 495 300 495 248.5 639 c 128,-1,5
 197 783 197 783 100 899 c 1,6,-1
 166 899 l 1,7,8
 264 783 264 783 315 639 c 128,-1,9
 366 495 366 495 366 340 c 0,10,11
 366 184 366 184 315 40 c 128,-1,12
 264 -104 264 -104 166 -220 c 1,13,-1
 100 -220 l 1,0,1
EndSplineSet
Validated: 1
EndChar

StartChar: asterisk
Encoding: 42 42 12
Width: 559
GlyphClass: 2
Flags: W
LayerCount: 2
Fore
SplineSet
210 400 m 1,0,-1
 150 439 l 1,1,-1
 250 559 l 1,2,-1
 97 533 l 1,3,-1
 90 613 l 1,4,-1
 243 599 l 1,5,-1
 157 706 l 1,6,-1
 230 739 l 1,7,-1
 276 626 l 1,8,-1
 330 739 l 1,9,-1
 396 706 l 1,10,-1
 316 599 l 1,11,-1
 470 619 l 1,12,-1
 470 546 l 1,13,-1
 316 559 l 1,14,-1
 430 439 l 1,15,-1
 356 400 l 1,16,-1
 290 546 l 1,17,-1
 210 400 l 1,0,-1
EndSplineSet
Validated: 1
EndChar

StartChar: plus
Encoding: 43 43 13
Width: 872
GlyphClass: 2
Flags: W
LayerCount: 2
Fore
SplineSet
393 20 m 1,0,-1
 393 300 l 1,1,-1
 100 300 l 1,2,-1
 100 386 l 1,3,-1
 393 386 l 1,4,-1
 393 659 l 1,5,-1
 479 659 l 1,6,-1
 479 386 l 1,7,-1
 772 386 l 1,8,-1
 772 300 l 1,9,-1
 479 300 l 1,10,-1
 479 20 l 1,11,-1
 393 20 l 1,0,-1
EndSplineSet
Validated: 1
EndChar

StartChar: comma
Encoding: 44 44 14
Width: 359
GlyphClass: 2
Flags: W
LayerCount: 2
Fore
SplineSet
100 -133 m 1,0,-1
 153 100 l 1,1,-1
 260 100 l 1,2,-1
 160 -133 l 1,3,-1
 100 -133 l 1,0,-1
EndSplineSet
Validated: 1
EndChar

StartChar: hyphen
Encoding: 45 45 15
Width: 692
GlyphClass: 2
Flags: W
LayerCount: 2
Fore
SplineSet
100 293 m 1,0,-1
 100 366 l 1,1,-1
 593 366 l 1,2,-1
 593 293 l 1,3,-1
 100 293 l 1,0,-1
EndSplineSet
Validated: 1
EndChar

StartChar: period
Encoding: 46 46 16
Width: 279
GlyphClass: 2
Flags: W
LayerCount: 2
Fore
SplineSet
100 0 m 1,0,-1
 100 100 l 1,1,-1
 180 100 l 1,2,-1
 180 0 l 1,3,-1
 100 0 l 1,0,-1
EndSplineSet
Validated: 1
EndChar

StartChar: slash
Encoding: 47 47 17
Width: 672
GlyphClass: 2
Flags: W
LayerCount: 2
Fore
SplineSet
100 -180 m 1,0,-1
 493 886 l 1,1,-1
 573 886 l 1,2,-1
 180 -180 l 1,3,-1
 100 -180 l 1,0,-1
EndSplineSet
Validated: 1
EndChar

StartChar: zero
Encoding: 48 48 18
Width: 633
GlyphClass: 2
Flags: W
LayerCount: 2
Fore
SplineSet
136 350 m 0,0,1
 136 237 136 237 182 154 c 128,-1,2
 228 71 228 71 317 71 c 128,-1,3
 406 71 406 71 452.5 154 c 128,-1,4
 499 237 499 237 499 350 c 0,5,6
 499 459 499 459 452 540.5 c 128,-1,7
 405 622 405 622 317 622 c 128,-1,8
 229 622 229 622 182.5 540.5 c 128,-1,9
 136 459 136 459 136 350 c 0,0,1
65 350 m 0,10,11
 65 487 65 487 133 589.5 c 128,-1,12
 201 692 201 692 317 692 c 128,-1,13
 433 692 433 692 501 589.5 c 128,-1,14
 569 487 569 487 569 350 c 0,15,16
 569 209 569 209 501.5 104.5 c 128,-1,17
 434 0 434 0 317 0 c 128,-1,18
 200 0 200 0 132.5 104.5 c 128,-1,19
 65 209 65 209 65 350 c 0,10,11
EndSplineSet
Validated: 1
EndChar

StartChar: one
Encoding: 49 49 19
Width: 413
GlyphClass: 2
Flags: W
LayerCount: 2
Fore
SplineSet
80 507 m 1,0,-1
 80 574 l 1,1,2
 156 574 156 574 214.5 611 c 128,-1,3
 273 648 273 648 278 714 c 1,4,-1
 329 714 l 1,5,-1
 329 0 l 1,6,-1
 249 0 l 1,7,-1
 249 507 l 1,8,-1
 80 507 l 1,0,-1
EndSplineSet
Validated: 1
EndChar

StartChar: two
Encoding: 50 50 20
Width: 633
GlyphClass: 2
Flags: W
LayerCount: 2
Fore
SplineSet
79 7 m 1,0,1
 79 108 79 108 146 192 c 0,2,3
 212 275 212 275 321 338 c 0,4,5
 390 378 390 378 432 424 c 128,-1,6
 474 470 474 470 474 529 c 0,7,8
 474 583 474 583 428 617.5 c 128,-1,9
 382 652 382 652 321 652 c 0,10,11
 257 652 257 652 211.5 607.5 c 128,-1,12
 166 563 166 563 166 499 c 2,13,-1
 166 455 l 1,14,-1
 85 455 l 1,15,-1
 85 499 l 2,16,17
 85 594 85 594 154.5 660.5 c 128,-1,18
 224 727 224 727 321 727 c 0,19,20
 415 727 415 727 485 671 c 128,-1,21
 555 615 555 615 555 529 c 0,22,23
 555 453 555 453 504 390 c 0,24,25
 454 327 454 327 373 280 c 2,26,-1
 277 225 l 2,27,28
 188 174 188 174 173 88 c 1,29,-1
 555 88 l 1,30,-1
 555 7 l 1,31,-1
 79 7 l 1,0,1
EndSplineSet
Validated: 1
EndChar

StartChar: three
Encoding: 51 51 21
Width: 635
GlyphClass: 2
Flags: W
LayerCount: 2
Fore
SplineSet
68 221 m 1,0,-1
 140 221 l 1,1,2
 140 154 140 154 192.5 110.5 c 128,-1,3
 245 67 245 67 317 67 c 0,4,5
 385 67 385 67 435.5 108.5 c 128,-1,6
 486 150 486 150 486 214 c 0,7,8
 486 270 486 270 435.5 301 c 128,-1,9
 385 332 385 332 317 332 c 2,10,-1
 250 332 l 1,11,-1
 250 413 l 1,12,-1
 317 413 l 2,13,14
 370 413 370 413 409.5 446 c 128,-1,15
 449 479 449 479 449 530 c 0,16,17
 449 578 449 578 409.5 608.5 c 128,-1,18
 370 639 370 639 317 639 c 0,19,20
 252 639 252 639 204 600 c 128,-1,21
 156 561 156 561 156 501 c 1,22,-1
 75 501 l 1,23,24
 75 591 75 591 144 652.5 c 128,-1,25
 213 714 213 714 309 714 c 0,26,27
 397 714 397 714 463 662 c 128,-1,28
 529 610 529 610 529 530 c 0,29,30
 529 481 529 481 508 439 c 128,-1,31
 487 397 487 397 449 374 c 1,32,33
 502 360 502 360 534.5 315 c 128,-1,34
 567 270 567 270 567 214 c 0,35,36
 567 117 567 117 493 51 c 128,-1,37
 419 -15 419 -15 317 -15 c 0,38,39
 214 -15 214 -15 141 54 c 128,-1,40
 68 123 68 123 68 221 c 1,0,-1
EndSplineSet
Validated: 1
EndChar

StartChar: four
Encoding: 52 52 22
Width: 635
GlyphClass: 2
Flags: W
LayerCount: 2
Fore
SplineSet
164 257 m 1,0,-1
 384 257 l 1,1,-1
 384 574 l 1,2,-1
 164 257 l 1,0,-1
76 185 m 1,3,-1
 76 257 l 1,4,-1
 384 714 l 1,5,-1
 465 714 l 1,6,-1
 465 257 l 1,7,-1
 559 257 l 1,8,-1
 559 185 l 1,9,-1
 465 185 l 1,10,-1
 465 0 l 1,11,-1
 384 0 l 1,12,-1
 384 185 l 1,13,-1
 76 185 l 1,3,-1
EndSplineSet
Validated: 1
EndChar

StartChar: five
Encoding: 53 53 23
Width: 635
GlyphClass: 2
Flags: W
LayerCount: 2
Fore
SplineSet
68 221 m 1,0,-1
 140 221 l 1,1,2
 140 160 140 160 190.5 120.5 c 128,-1,3
 241 81 241 81 309 81 c 0,4,5
 381 81 381 81 433.5 128 c 128,-1,6
 486 175 486 175 486 244 c 0,7,8
 486 314 486 314 433.5 363 c 128,-1,9
 381 412 381 412 309 412 c 0,10,11
 262 412 262 412 219.5 392.5 c 128,-1,12
 177 373 177 373 148 338 c 1,13,-1
 68 338 l 1,14,-1
 140 704 l 1,15,-1
 515 704 l 1,16,-1
 515 633 l 1,17,-1
 206 633 l 1,18,-1
 177 449 l 1,19,20
 198 474 198 474 231.5 483.5 c 128,-1,21
 265 493 265 493 309 493 c 0,22,23
 415 493 415 493 491 420.5 c 128,-1,24
 567 348 567 348 567 244 c 0,25,26
 567 141 567 141 490.5 70.5 c 128,-1,27
 414 0 414 0 309 0 c 0,28,29
 210 0 210 0 139 64 c 128,-1,30
 68 128 68 128 68 221 c 1,0,-1
EndSplineSet
Validated: 1
EndChar

StartChar: six
Encoding: 54 54 24
Width: 635
GlyphClass: 2
Flags: W
LayerCount: 2
Fore
SplineSet
162 221 m 0,0,1
 162 157 162 157 207.5 112 c 128,-1,2
 253 67 253 67 317 67 c 0,3,4
 386 67 386 67 436 113.5 c 128,-1,5
 486 160 486 160 486 228 c 0,6,7
 486 294 486 294 436 339 c 128,-1,8
 386 384 386 384 317 384 c 0,9,10
 252 384 252 384 207 336 c 128,-1,11
 162 288 162 288 162 221 c 0,0,1
68 266 m 2,12,-1
 68 354 l 2,13,14
 68 498 68 498 141 606 c 128,-1,15
 214 714 214 714 338 714 c 0,16,17
 425 714 425 714 488 656 c 128,-1,18
 551 598 551 598 551 514 c 1,19,-1
 478 514 l 1,20,21
 478 567 478 567 436.5 603 c 128,-1,22
 395 639 395 639 338 639 c 0,23,24
 248 639 248 639 198 556 c 128,-1,25
 148 473 148 473 148 361 c 1,26,27
 169 406 169 406 215 430.5 c 128,-1,28
 261 455 261 455 317 455 c 0,29,30
 418 455 418 455 492.5 390 c 128,-1,31
 567 325 567 325 567 228 c 0,32,33
 567 127 567 127 493 56 c 128,-1,34
 419 -15 419 -15 317 -15 c 0,35,36
 210 -15 210 -15 139 69 c 128,-1,37
 68 153 68 153 68 266 c 2,12,-1
EndSplineSet
Validated: 1
EndChar

StartChar: seven
Encoding: 55 55 25
Width: 635
GlyphClass: 2
Flags: W
LayerCount: 2
Fore
SplineSet
53 633 m 1,0,-1
 53 704 l 1,1,-1
 582 704 l 1,2,-1
 582 633 l 1,3,4
 442 534 442 534 376 366 c 128,-1,5
 310 198 310 198 310 0 c 1,6,-1
 216 0 l 1,7,8
 216 190 216 190 278.5 356.5 c 128,-1,9
 341 523 341 523 471 633 c 1,10,-1
 53 633 l 1,0,-1
EndSplineSet
Validated: 1
EndChar

StartChar: eight
Encoding: 56 56 26
Width: 635
GlyphClass: 2
Flags: W
LayerCount: 2
Fore
SplineSet
164 530 m 128,-1,1
 164 479 164 479 208 449 c 128,-1,2
 252 419 252 419 310 419 c 0,3,4
 373 419 373 419 419 448.5 c 128,-1,5
 465 478 465 478 465 530 c 128,-1,6
 465 582 465 582 419 610.5 c 128,-1,7
 373 639 373 639 310 639 c 0,8,9
 252 639 252 639 208 610 c 128,-1,0
 164 581 164 581 164 530 c 128,-1,1
128 214 m 0,10,11
 128 149 128 149 182.5 108 c 128,-1,12
 237 67 237 67 310 67 c 0,13,14
 386 67 386 67 443.5 107.5 c 128,-1,15
 501 148 501 148 501 214 c 0,16,17
 501 277 501 277 444 311 c 128,-1,18
 387 345 387 345 310 345 c 0,19,20
 237 345 237 345 182.5 310.5 c 128,-1,21
 128 276 128 276 128 214 c 0,10,11
53 214 m 0,22,23
 53 272 53 272 91.5 317 c 128,-1,24
 130 362 130 362 190 384 c 1,25,26
 142 411 142 411 112.5 448 c 128,-1,27
 83 485 83 485 83 530 c 0,28,29
 83 611 83 611 150.5 662.5 c 128,-1,30
 218 714 218 714 310 714 c 0,31,32
 405 714 405 714 475.5 663.5 c 128,-1,33
 546 613 546 613 546 530 c 0,34,35
 546 485 546 485 518 447.5 c 128,-1,36
 490 410 490 410 445 384 c 1,37,38
 505 362 505 362 543.5 317 c 128,-1,39
 582 272 582 272 582 214 c 0,40,41
 582 115 582 115 500.5 50 c 128,-1,42
 419 -15 419 -15 310 -15 c 0,43,44
 206 -15 206 -15 129.5 50.5 c 128,-1,45
 53 116 53 116 53 214 c 0,22,23
EndSplineSet
Validated: 1
EndChar

StartChar: nine
Encoding: 57 57 27
Width: 635
GlyphClass: 2
Flags: W
LayerCount: 2
Fore
SplineSet
157 485 m 128,-1,1
 157 421 157 421 201.5 376.5 c 128,-1,2
 246 332 246 332 310 332 c 0,3,4
 377 332 377 332 424 376.5 c 128,-1,5
 471 421 471 421 471 485 c 0,6,7
 471 550 471 550 424 594.5 c 128,-1,8
 377 639 377 639 310 639 c 0,9,10
 246 639 246 639 201.5 594 c 128,-1,0
 157 549 157 549 157 485 c 128,-1,1
76 485 m 0,11,12
 76 581 76 581 144.5 647.5 c 128,-1,13
 213 714 213 714 310 714 c 0,14,15
 415 714 415 714 487 633.5 c 128,-1,16
 559 553 559 553 559 442 c 2,17,-1
 559 354 l 2,18,19
 559 186 559 186 489 85.5 c 128,-1,20
 419 -15 419 -15 304 -15 c 0,21,22
 218 -15 218 -15 158.5 46 c 128,-1,23
 99 107 99 107 99 192 c 1,24,-1
 178 192 l 1,25,26
 178 140 178 140 215 103.5 c 128,-1,27
 252 67 252 67 304 67 c 0,28,29
 380 67 380 67 425.5 139.5 c 128,-1,30
 471 212 471 212 471 332 c 1,31,32
 439 300 439 300 397.5 283 c 128,-1,33
 356 266 356 266 310 266 c 0,34,35
 214 266 214 266 145 329.5 c 128,-1,36
 76 393 76 393 76 485 c 0,11,12
EndSplineSet
Validated: 1
EndChar

StartChar: colon
Encoding: 58 58 28
Width: 279
GlyphClass: 2
Flags: W
LayerCount: 2
Fore
SplineSet
100 386 m 1,0,-1
 100 486 l 1,1,-1
 180 486 l 1,2,-1
 180 386 l 1,3,-1
 100 386 l 1,0,-1
100 0 m 1,4,-1
 100 100 l 1,5,-1
 180 100 l 1,6,-1
 180 0 l 1,7,-1
 100 0 l 1,4,-1
EndSplineSet
Validated: 1
EndChar

StartChar: semicolon
Encoding: 59 59 29
Width: 366
GlyphClass: 2
Flags: W
LayerCount: 2
Fore
SplineSet
160 353 m 1,0,-1
 160 426 l 1,1,-1
 253 426 l 1,2,-1
 253 353 l 1,3,-1
 160 353 l 1,0,-1
100 -133 m 1,4,-1
 160 100 l 1,5,-1
 266 100 l 1,6,-1
 160 -133 l 1,7,-1
 100 -133 l 1,4,-1
EndSplineSet
Validated: 1
EndChar

StartChar: less
Encoding: 60 60 30
Width: 661
GlyphClass: 2
Flags: W
LayerCount: 2
Fore
SplineSet
100 290 m 1,0,-1
 100 369 l 1,1,-1
 562 644 l 1,2,-1
 562 573 l 1,3,-1
 165 333 l 1,4,-1
 562 93 l 1,5,-1
 562 19 l 1,6,-1
 100 290 l 1,0,-1
EndSplineSet
Validated: 1
EndChar

StartChar: equal
Encoding: 61 61 31
Width: 798
GlyphClass: 2
Flags: W
LayerCount: 2
Fore
SplineSet
100 366 m 1,0,-1
 100 433 l 1,1,-1
 699 433 l 1,2,-1
 699 366 l 1,3,-1
 100 366 l 1,0,-1
100 153 m 1,4,-1
 100 220 l 1,5,-1
 699 220 l 1,6,-1
 699 153 l 1,7,-1
 100 153 l 1,4,-1
EndSplineSet
Validated: 1
EndChar

StartChar: greater
Encoding: 62 62 32
Width: 661
GlyphClass: 2
Flags: W
LayerCount: 2
Fore
SplineSet
562 290 m 1,0,-1
 100 19 l 1,1,-1
 100 93 l 1,2,-1
 497 333 l 1,3,-1
 100 573 l 1,4,-1
 100 644 l 1,5,-1
 562 369 l 1,6,-1
 562 290 l 1,0,-1
EndSplineSet
Validated: 1
EndChar

StartChar: question
Encoding: 63 63 33
Width: 665
GlyphClass: 2
Flags: W
LayerCount: 2
Fore
SplineSet
246 166 m 1,0,-1
 246 373 l 1,1,2
 358 403 358 403 428.5 462.5 c 128,-1,3
 499 522 499 522 499 586 c 0,4,5
 499 643 499 643 446.5 684.5 c 128,-1,6
 394 726 394 726 320 726 c 0,7,8
 274 726 274 726 227.5 703 c 128,-1,9
 181 680 181 680 140 639 c 1,10,-1
 100 692 l 1,11,12
 148 740 148 740 205 766 c 128,-1,13
 262 792 262 792 320 792 c 0,14,15
 422 792 422 792 494 731.5 c 128,-1,16
 566 671 566 671 566 586 c 0,17,18
 566 510 566 510 496.5 439 c 128,-1,19
 427 368 427 368 313 326 c 1,20,-1
 313 166 l 1,21,-1
 246 166 l 1,0,-1
233 0 m 1,22,-1
 233 87 l 1,23,-1
 326 87 l 1,24,-1
 326 0 l 1,25,-1
 233 0 l 1,22,-1
EndSplineSet
Validated: 1
EndChar

StartChar: at
Encoding: 64 64 34
Width: 1043
GlyphClass: 2
Flags: W
LayerCount: 2
Fore
SplineSet
382 320 m 0,0,1
 382 265 382 265 416.5 225 c 128,-1,2
 451 185 451 185 502 185 c 128,-1,3
 553 185 553 185 587.5 225 c 128,-1,4
 622 265 622 265 622 320 c 0,5,6
 622 374 622 374 587.5 413.5 c 128,-1,7
 553 453 553 453 502 453 c 128,-1,8
 451 453 451 453 416.5 413.5 c 128,-1,9
 382 374 382 374 382 320 c 0,0,1
317 320 m 0,10,11
 317 398 317 398 371 454.5 c 128,-1,12
 425 511 425 511 502 511 c 0,13,14
 537 511 537 511 568 497 c 128,-1,15
 599 483 599 483 622 457 c 1,16,-1
 622 505 l 1,17,-1
 688 505 l 1,18,-1
 688 208 l 2,19,20
 688 188 688 188 705.5 173 c 128,-1,21
 723 158 723 158 748 158 c 0,22,23
 803 158 803 158 841.5 212 c 128,-1,24
 880 266 880 266 880 344 c 0,25,26
 880 475 880 475 779 568.5 c 128,-1,27
 678 662 678 662 535 662 c 0,28,29
 381 662 381 662 271.5 560 c 128,-1,30
 162 458 162 458 162 314 c 0,31,32
 162 184 162 184 271.5 92 c 128,-1,33
 381 0 381 0 535 0 c 0,34,35
 595 0 595 0 647.5 16 c 128,-1,36
 700 32 700 32 740 63 c 1,37,-1
 772 8 l 1,38,39
 722 -27 722 -27 661.5 -45.5 c 128,-1,40
 601 -64 601 -64 535 -64 c 0,41,42
 356 -64 356 -64 228 46.5 c 128,-1,43
 100 157 100 157 100 314 c 0,44,45
 100 483 100 483 228 603 c 128,-1,46
 356 723 356 723 535 723 c 0,47,48
 704 723 704 723 824 612 c 128,-1,49
 944 501 944 501 944 344 c 0,50,51
 944 241 944 241 887 168 c 128,-1,52
 830 95 830 95 748 95 c 0,53,54
 702 95 702 95 666.5 119.5 c 128,-1,55
 631 144 631 144 625 182 c 1,56,57
 607 152 607 152 574 135.5 c 128,-1,58
 541 119 541 119 502 119 c 0,59,60
 423 119 423 119 370 178 c 128,-1,61
 317 237 317 237 317 320 c 0,10,11
EndSplineSet
Validated: 1
EndChar

StartChar: bracketleft
Encoding: 91 91 35
Width: 392
GlyphClass: 2
Flags: W
LayerCount: 2
Fore
SplineSet
100 -266 m 1,0,-1
 100 945 l 1,1,-1
 293 945 l 1,2,-1
 293 872 l 1,3,-1
 166 872 l 1,4,-1
 166 -193 l 1,5,-1
 293 -193 l 1,6,-1
 293 -266 l 1,7,-1
 100 -266 l 1,0,-1
EndSplineSet
Validated: 1
EndChar

StartChar: backslash
Encoding: 92 92 36
Width: 605
GlyphClass: 2
Flags: W
LayerCount: 2
Fore
SplineSet
506 -129 m 1,0,-1
 438 -129 l 1,1,-1
 100 812 l 1,2,-1
 168 812 l 1,3,-1
 506 -129 l 1,0,-1
EndSplineSet
Validated: 1
EndChar

StartChar: bracketright
Encoding: 93 93 37
Width: 392
GlyphClass: 2
Flags: W
LayerCount: 2
Fore
SplineSet
100 -266 m 1,0,-1
 100 -193 l 1,1,-1
 220 -193 l 1,2,-1
 220 872 l 1,3,-1
 100 872 l 1,4,-1
 100 945 l 1,5,-1
 293 945 l 1,6,-1
 293 -266 l 1,7,-1
 100 -266 l 1,0,-1
EndSplineSet
Validated: 1
EndChar

StartChar: asciicircum
Encoding: 94 94 38
Width: 671
GlyphClass: 2
Flags: W
LayerCount: 2
Fore
SplineSet
290 481 m 1,0,-1
 377 481 l 1,1,-1
 571 138 l 1,2,-1
 493 138 l 1,3,-1
 336 423 l 1,4,-1
 178 138 l 1,5,-1
 100 138 l 1,6,-1
 290 481 l 1,0,-1
EndSplineSet
Validated: 1
EndChar

StartChar: underscore
Encoding: 95 95 39
Width: 912
GlyphClass: 2
Flags: W
LayerCount: 2
Fore
SplineSet
100 -330 m 1,0,-1
 100 -262 l 1,1,-1
 812 -262 l 1,2,-1
 812 -330 l 1,3,-1
 100 -330 l 1,0,-1
EndSplineSet
Validated: 1
EndChar

StartChar: grave
Encoding: 96 96 40
Width: 0
GlyphClass: 2
Flags: W
LayerCount: 2
Fore
SplineSet
141 664 m 1,0,-1
 92 664 l 1,1,-1
 0 875 l 1,2,-1
 87 875 l 1,3,-1
 141 664 l 1,0,-1
EndSplineSet
Validated: 1
EndChar

StartChar: braceleft
Encoding: 123 123 41
Width: 484
GlyphClass: 2
Flags: W
LayerCount: 2
Fore
SplineSet
100 310 m 1,0,1
 141 310 141 310 171 344 c 128,-1,2
 201 378 201 378 201 426 c 2,3,-1
 201 558 l 2,4,5
 201 651 201 651 255 717 c 128,-1,6
 309 783 309 783 385 783 c 1,7,-1
 385 731 l 1,8,9
 336 731 336 731 300.5 680.5 c 128,-1,10
 265 630 265 630 265 558 c 2,11,-1
 265 426 l 2,12,13
 265 381 265 381 242.5 345 c 128,-1,14
 220 309 220 309 182 296 c 1,15,16
 220 282 220 282 242.5 245.5 c 128,-1,17
 265 209 265 209 265 162 c 2,18,-1
 265 32 l 2,19,20
 265 -40 265 -40 300.5 -90.5 c 128,-1,21
 336 -141 336 -141 385 -141 c 1,22,-1
 385 -194 l 1,23,24
 309 -194 309 -194 255 -127.5 c 128,-1,25
 201 -61 201 -61 201 32 c 2,26,-1
 201 162 l 2,27,28
 201 209 201 209 171 241.5 c 128,-1,29
 141 274 141 274 100 274 c 1,30,-1
 100 310 l 1,0,1
EndSplineSet
Validated: 1
EndChar

StartChar: bar
Encoding: 124 124 42
Width: 266
GlyphClass: 2
Flags: W
LayerCount: 2
Fore
SplineSet
100 -326 m 1,0,-1
 100 999 l 1,1,-1
 166 999 l 1,2,-1
 166 -326 l 1,3,-1
 100 -326 l 1,0,-1
EndSplineSet
Validated: 1
EndChar

StartChar: braceright
Encoding: 125 125 43
Width: 486
GlyphClass: 2
Flags: W
LayerCount: 2
Fore
SplineSet
386 345 m 1,0,-1
 386 309 l 1,1,2
 345 309 345 309 315 276.5 c 128,-1,3
 285 244 285 244 285 197 c 2,4,-1
 285 67 l 2,5,6
 285 -27 285 -27 231 -93.5 c 128,-1,7
 177 -160 177 -160 100 -160 c 1,8,-1
 100 -107 l 1,9,10
 150 -107 150 -107 185.5 -56 c 128,-1,11
 221 -5 221 -5 221 67 c 2,12,-1
 221 197 l 2,13,14
 221 241 221 241 244.5 277 c 128,-1,15
 268 313 268 313 306 326 c 1,16,17
 268 340 268 340 244.5 377 c 128,-1,18
 221 414 221 414 221 461 c 2,19,-1
 221 593 l 2,20,21
 221 664 221 664 185.5 715 c 128,-1,22
 150 766 150 766 100 766 c 1,23,-1
 100 818 l 1,24,25
 177 818 177 818 231 752 c 128,-1,26
 285 686 285 686 285 593 c 2,27,-1
 285 461 l 2,28,29
 285 413 285 413 315 379 c 128,-1,30
 345 345 345 345 386 345 c 1,0,-1
EndSplineSet
Validated: 1
EndChar

StartChar: asciitilde
Encoding: 126 126 44
Width: 721
GlyphClass: 2
Flags: W
LayerCount: 2
Fore
SplineSet
136 304 m 1,0,-1
 100 349 l 1,1,2
 133 377 133 377 169.5 392 c 128,-1,3
 206 407 206 407 241 407 c 128,-1,4
 276 407 276 407 304.5 399 c 128,-1,5
 333 391 333 391 352 376 c 1,6,7
 382 350 382 350 410 336 c 128,-1,8
 438 322 438 322 459 322 c 0,9,10
 495 322 495 322 528 338 c 128,-1,11
 561 354 561 354 585 382 c 1,12,-1
 622 340 l 1,13,14
 593 305 593 305 550 285.5 c 128,-1,15
 507 266 507 266 459 266 c 0,16,17
 429 266 429 266 401 275.5 c 128,-1,18
 373 285 373 285 352 304 c 0,19,20
 329 324 329 324 300.5 334 c 128,-1,21
 272 344 272 344 242 344 c 0,22,23
 214 344 214 344 186 334 c 128,-1,24
 158 324 158 324 136 304 c 1,0,-1
EndSplineSet
Validated: 1
EndChar

StartChar: cent
Encoding: 162 162 45
Width: 749
GlyphClass: 2
Flags: W
LayerCount: 2
Fore
SplineSet
446 595 m 1,0,1
 425 599 425 599 407.5 602 c 128,-1,2
 390 605 390 605 378 605 c 0,3,4
 285 605 285 605 228.5 531 c 128,-1,5
 172 457 172 457 172 333 c 0,6,7
 172 265 172 265 192.5 205 c 128,-1,8
 213 145 213 145 252 101 c 1,9,-1
 446 595 l 1,0,1
100 333 m 0,10,11
 100 483 100 483 176 574.5 c 128,-1,12
 252 666 252 666 378 666 c 0,13,14
 403 666 403 666 425 663 c 128,-1,15
 447 660 447 660 466 656 c 1,16,-1
 526 804 l 1,17,-1
 593 804 l 1,18,-1
 525 630 l 1,19,20
 577 595 577 595 608.5 546.5 c 128,-1,21
 640 498 640 498 644 446 c 1,22,-1
 570 446 l 1,23,24
 567 477 567 477 550 509 c 128,-1,25
 533 541 533 541 502 570 c 1,26,-1
 309 71 l 1,27,28
 329 65 329 65 346.5 62 c 128,-1,29
 364 59 364 59 378 59 c 0,30,31
 462 59 462 59 516.5 104.5 c 128,-1,32
 571 150 571 150 578 228 c 1,33,-1
 650 228 l 1,34,35
 640 123 640 123 566.5 60 c 128,-1,36
 493 -3 493 -3 378 -3 c 0,37,38
 356 -3 356 -3 332 0.5 c 128,-1,39
 308 4 308 4 285 11 c 1,40,-1
 232 -125 l 1,41,-1
 165 -125 l 1,42,-1
 229 37 l 1,43,44
 168 81 168 81 134 159.5 c 128,-1,45
 100 238 100 238 100 333 c 0,10,11
EndSplineSet
Validated: 1
EndChar

StartChar: multiply
Encoding: 215 215 46
Width: 665
GlyphClass: 2
Flags: W
LayerCount: 2
Fore
SplineSet
153 93 m 1,0,-1
 100 146 l 1,1,-1
 280 326 l 1,2,-1
 100 506 l 1,3,-1
 153 559 l 1,4,-1
 333 380 l 1,5,-1
 513 559 l 1,6,-1
 566 506 l 1,7,-1
 386 326 l 1,8,-1
 566 146 l 1,9,-1
 513 93 l 1,10,-1
 333 273 l 1,11,-1
 153 93 l 1,0,-1
EndSplineSet
Validated: 1
EndChar

StartChar: divide
Encoding: 247 247 47
Width: 832
GlyphClass: 2
Flags: W
LayerCount: 2
Fore
SplineSet
499 107 m 0,0,1
 499 73 499 73 476 50 c 128,-1,2
 453 27 453 27 419 27 c 0,3,4
 389 27 389 27 367.5 50 c 128,-1,5
 346 73 346 73 346 107 c 0,6,7
 346 137 346 137 367.5 158.5 c 128,-1,8
 389 180 389 180 419 180 c 0,9,10
 453 180 453 180 476 158.5 c 128,-1,11
 499 137 499 137 499 107 c 0,0,1
732 286 m 1,12,-1
 100 286 l 1,13,-1
 100 366 l 1,14,-1
 732 366 l 1,15,-1
 732 286 l 1,12,-1
499 553 m 0,16,17
 499 519 499 519 476 496 c 128,-1,18
 453 473 453 473 419 473 c 0,19,20
 389 473 389 473 367.5 496 c 128,-1,21
 346 519 346 519 346 553 c 0,22,23
 346 586 346 586 369.5 609.5 c 128,-1,24
 393 633 393 633 426 633 c 0,25,26
 457 633 457 633 478 609.5 c 128,-1,27
 499 586 499 586 499 553 c 0,16,17
EndSplineSet
Validated: 1
EndChar

StartChar: apostrophe
Encoding: 700 700 48
Width: 314
GlyphClass: 2
Flags: W
LayerCount: 2
Fore
SplineSet
218 771 m 2,0,1
 218 739 218 739 215 713 c 128,-1,2
 212 687 212 687 206 664.5 c 128,-1,3
 200 642 200 642 191.5 622.5 c 128,-1,4
 183 603 183 603 171 583 c 1,5,-1
 97 583 l 1,6,7
 124 622 124 622 139 662 c 128,-1,8
 154 702 154 702 154 739 c 1,9,-1
 101 739 l 1,10,-1
 101 858 l 1,11,-1
 218 858 l 1,12,-1
 218 771 l 2,0,1
EndSplineSet
Validated: 1
EndChar

StartChar: candrabinduinverteddeva
Encoding: 2304 2304 49
Width: 0
GlyphClass: 4
Flags: W
AnchorPoint: "DVAnchor3" -120 666 mark 0
LayerCount: 2
Fore
SplineSet
-178 846 m 1,0,-1
 -92 846 l 1,1,-1
 -92 759 l 1,2,-1
 -178 759 l 1,3,-1
 -178 846 l 1,0,-1
-132 992 m 0,4,5
 -53 992 -53 992 7 939.5 c 128,-1,6
 67 887 67 887 81 806 c 1,7,-1
 8 806 l 1,8,9
 -1 860 -1 860 -41 896 c 128,-1,10
 -81 932 -81 932 -132 932 c 0,11,12
 -182 932 -182 932 -222 896 c 128,-1,13
 -262 860 -262 860 -272 806 c 1,14,-1
 -345 806 l 1,15,16
 -330 887 -330 887 -270 939.5 c 128,-1,17
 -210 992 -210 992 -132 992 c 0,4,5
EndSplineSet
Validated: 1
EndChar

StartChar: candrabindudeva
Encoding: 2305 2305 50
Width: 0
GlyphClass: 4
Flags: W
AnchorPoint: "DVAnchor3" -120 666 mark 0
LayerCount: 2
Fore
SplineSet
-178 905 m 1,0,-1
 -178 992 l 1,1,-1
 -92 992 l 1,2,-1
 -92 905 l 1,3,-1
 -178 905 l 1,0,-1
-132 759 m 0,4,5
 -210 759 -210 759 -270 811.5 c 128,-1,6
 -330 864 -330 864 -345 945 c 1,7,-1
 -272 945 l 1,8,9
 -262 891 -262 891 -222 855 c 128,-1,10
 -182 819 -182 819 -132 819 c 0,11,12
 -81 819 -81 819 -41 855 c 128,-1,13
 -1 891 -1 891 8 945 c 1,14,-1
 81 945 l 1,15,16
 67 864 67 864 7 811.5 c 128,-1,17
 -53 759 -53 759 -132 759 c 0,4,5
EndSplineSet
Validated: 1
EndChar

StartChar: anusvaradeva
Encoding: 2306 2306 51
Width: 0
GlyphClass: 4
Flags: W
AnchorPoint: "DVAnchor3" -133 666 mark 0
LayerCount: 2
Fore
SplineSet
-177 832 m 5,0,-1
 -177 925 l 5,1,-1
 -77 925 l 5,2,-1
 -77 832 l 5,3,-1
 -177 832 l 5,0,-1
EndSplineSet
Validated: 1
EndChar

StartChar: visargadeva
Encoding: 2307 2307 52
Width: 339
GlyphClass: 2
Flags: W
LayerCount: 2
Fore
SplineSet
166 399 m 0,0,1
 138 399 138 399 119 420.5 c 128,-1,2
 100 442 100 442 100 473 c 0,3,4
 100 503 100 503 119 524.5 c 128,-1,5
 138 546 138 546 166 546 c 0,6,7
 197 546 197 546 218.5 524.5 c 128,-1,8
 240 503 240 503 240 473 c 0,9,10
 240 442 240 442 218.5 420.5 c 128,-1,11
 197 399 197 399 166 399 c 0,0,1
166 107 m 0,12,13
 138 107 138 107 119 128 c 128,-1,14
 100 149 100 149 100 180 c 0,15,16
 100 210 100 210 119 231.5 c 128,-1,17
 138 253 138 253 166 253 c 0,18,19
 197 253 197 253 218.5 231.5 c 128,-1,20
 240 210 240 210 240 180 c 0,21,22
 240 149 240 149 218.5 128 c 128,-1,23
 197 107 197 107 166 107 c 0,12,13
EndSplineSet
Validated: 1
EndChar

StartChar: ashortdeva
Encoding: 2308 2308 53
Width: 768
GlyphClass: 2
Flags: W
LayerCount: 2
Fore
SplineSet
309 47 m 0,0,1
 229 47 229 47 154 113.5 c 128,-1,2
 79 180 79 180 23 300 c 1,3,-1
 72 328 l 1,4,5
 120 226 120 226 182 169.5 c 128,-1,6
 244 113 244 113 309 113 c 0,7,8
 350 113 350 113 379.5 143.5 c 128,-1,9
 409 174 409 174 409 218 c 0,10,11
 409 272 409 272 375.5 309 c 128,-1,12
 342 346 342 346 296 346 c 0,13,14
 281 346 281 346 264.5 343 c 128,-1,15
 248 340 248 340 229 333 c 1,16,-1
 202 393 l 1,17,18
 262 398 262 398 308 434.5 c 128,-1,19
 354 471 354 471 354 513 c 0,20,21
 354 551 354 551 331 578.5 c 128,-1,22
 308 606 308 606 276 606 c 0,23,24
 237 606 237 606 195 581.5 c 128,-1,25
 153 557 153 557 116 513 c 1,26,-1
 69 559 l 1,27,28
 104 610 104 610 158.5 638 c 128,-1,29
 213 666 213 666 276 666 c 0,30,31
 337 666 337 666 379.5 621.5 c 128,-1,32
 422 577 422 577 422 513 c 0,33,34
 422 479 422 479 406 448 c 128,-1,35
 390 417 390 417 362 393 c 1,36,37
 413 364 413 364 452 348.5 c 128,-1,38
 491 333 491 333 515 333 c 0,39,40
 530 333 530 333 552 341.5 c 128,-1,41
 574 350 574 350 602 366 c 1,42,-1
 602 606 l 1,43,-1
 482 606 l 1,44,-1
 482 666 l 1,45,-1
 606 666 l 1,46,47
 606 723 606 723 567 764.5 c 128,-1,48
 528 806 528 806 473 806 c 0,49,50
 400 806 400 806 343.5 856.5 c 128,-1,51
 287 907 287 907 273 986 c 1,52,-1
 340 986 l 1,53,54
 349 931 349 931 387 895 c 128,-1,55
 425 859 425 859 473 859 c 0,56,57
 556 859 556 859 614.5 802.5 c 128,-1,58
 673 746 673 746 673 666 c 1,59,-1
 782 666 l 1,60,-1
 782 606 l 1,61,-1
 668 606 l 1,62,-1
 668 0 l 1,63,-1
 602 0 l 1,64,-1
 602 300 l 1,65,66
 586 286 586 286 569.5 279.5 c 128,-1,67
 553 273 553 273 535 273 c 0,68,69
 507 273 507 273 484.5 278.5 c 128,-1,70
 462 284 462 284 449 293 c 1,71,72
 462 282 462 282 468.5 263 c 128,-1,73
 475 244 475 244 475 220 c 0,74,75
 475 148 475 148 426.5 97.5 c 128,-1,76
 378 47 378 47 309 47 c 0,0,1
EndSplineSet
Validated: 1
EndChar

StartChar: adeva
Encoding: 2309 2309 54
Width: 768
GlyphClass: 2
Flags: W
AnchorPoint: "DVAnchor3" 636 664 basechar 0
LayerCount: 2
Fore
SplineSet
309 47 m 0,0,1
 229 47 229 47 154 113.5 c 128,-1,2
 79 180 79 180 23 300 c 1,3,-1
 72 328 l 1,4,5
 120 226 120 226 182 169.5 c 128,-1,6
 244 113 244 113 309 113 c 0,7,8
 350 113 350 113 379.5 143.5 c 128,-1,9
 409 174 409 174 409 218 c 0,10,11
 409 272 409 272 375.5 309 c 128,-1,12
 342 346 342 346 296 346 c 0,13,14
 281 346 281 346 264.5 343 c 128,-1,15
 248 340 248 340 229 333 c 1,16,-1
 202 393 l 1,17,18
 262 398 262 398 308 434.5 c 128,-1,19
 354 471 354 471 354 513 c 0,20,21
 354 551 354 551 331 578.5 c 128,-1,22
 308 606 308 606 276 606 c 0,23,24
 237 606 237 606 195 581.5 c 128,-1,25
 153 557 153 557 116 513 c 1,26,-1
 69 559 l 1,27,28
 104 610 104 610 158.5 638 c 128,-1,29
 213 666 213 666 276 666 c 0,30,31
 337 666 337 666 379.5 621.5 c 128,-1,32
 422 577 422 577 422 513 c 0,33,34
 422 479 422 479 406 448 c 128,-1,35
 390 417 390 417 362 393 c 1,36,37
 413 364 413 364 452 348.5 c 128,-1,38
 491 333 491 333 515 333 c 0,39,40
 530 333 530 333 552 341.5 c 128,-1,41
 574 350 574 350 602 366 c 1,42,-1
 602 606 l 1,43,-1
 482 606 l 1,44,-1
 482 666 l 1,45,-1
 782 666 l 1,46,-1
 782 606 l 1,47,-1
 668 606 l 1,48,-1
 668 0 l 1,49,-1
 602 0 l 1,50,-1
 602 300 l 1,51,52
 586 286 586 286 569.5 279.5 c 128,-1,53
 553 273 553 273 535 273 c 0,54,55
 507 273 507 273 484.5 278.5 c 128,-1,56
 462 284 462 284 449 293 c 1,57,58
 462 282 462 282 468.5 263 c 128,-1,59
 475 244 475 244 475 220 c 0,60,61
 475 148 475 148 426.5 97.5 c 128,-1,62
 378 47 378 47 309 47 c 0,0,1
EndSplineSet
Validated: 1
EndChar

StartChar: aadeva
Encoding: 2310 2310 55
Width: 1042
GlyphClass: 2
Flags: W
AnchorPoint: "DVAnchor3" 792 664 basechar 0
LayerCount: 2
Fore
SplineSet
310 47 m 0,0,1
 230 47 230 47 155 113.5 c 128,-1,2
 80 180 80 180 24 300 c 1,3,-1
 71 340 l 1,4,5
 121 232 121 232 183.5 172.5 c 128,-1,6
 246 113 246 113 310 113 c 0,7,8
 352 113 352 113 381 148.5 c 128,-1,9
 410 184 410 184 410 233 c 0,10,11
 410 280 410 280 377 313 c 128,-1,12
 344 346 344 346 297 346 c 0,13,14
 282 346 282 346 265.5 343 c 128,-1,15
 249 340 249 340 230 333 c 1,16,-1
 204 393 l 1,17,18
 264 398 264 398 310.5 436.5 c 128,-1,19
 357 475 357 475 357 519 c 0,20,21
 357 555 357 555 329.5 580.5 c 128,-1,22
 302 606 302 606 264 606 c 0,23,24
 232 606 232 606 193 581.5 c 128,-1,25
 154 557 154 557 117 513 c 1,26,-1
 71 559 l 1,27,28
 105 610 105 610 156.5 638 c 128,-1,29
 208 666 208 666 264 666 c 0,30,31
 330 666 330 666 376.5 623.5 c 128,-1,32
 423 581 423 581 423 519 c 0,33,34
 423 483 423 483 407 450 c 128,-1,35
 391 417 391 417 364 393 c 1,36,37
 409 366 409 366 453 353 c 128,-1,38
 497 340 497 340 537 340 c 0,39,40
 547 340 547 340 564 346.5 c 128,-1,41
 581 353 581 353 603 366 c 1,42,-1
 603 606 l 1,43,-1
 483 606 l 1,44,-1
 483 666 l 1,45,-1
 1056 666 l 1,46,-1
 1056 606 l 1,47,-1
 943 606 l 1,48,-1
 943 0 l 1,49,-1
 876 0 l 1,50,-1
 876 606 l 1,51,-1
 670 606 l 1,52,-1
 670 0 l 1,53,-1
 603 0 l 1,54,-1
 603 300 l 1,55,56
 587 286 587 286 570.5 279.5 c 128,-1,57
 554 273 554 273 537 273 c 0,58,59
 509 273 509 273 486 278.5 c 128,-1,60
 463 284 463 284 450 293 c 1,61,62
 463 282 463 282 470 263 c 128,-1,63
 477 244 477 244 477 220 c 0,64,65
 477 148 477 148 428.5 97.5 c 128,-1,66
 380 47 380 47 310 47 c 0,0,1
EndSplineSet
Validated: 1
EndChar

StartChar: ideva
Encoding: 2311 2311 56
Width: 503
GlyphClass: 2
Flags: W
AnchorPoint: "DVAnchor3" 377 664 basechar 0
LayerCount: 2
Fore
SplineSet
-13 606 m 1,0,-1
 -13 666 l 1,1,-1
 517 666 l 1,2,-1
 517 606 l 1,3,-1
 401 606 l 1,4,-1
 401 433 l 1,5,-1
 161 433 l 2,6,7
 145 433 145 433 133 425 c 128,-1,8
 121 417 121 417 121 406 c 0,9,10
 121 385 121 385 163.5 342.5 c 128,-1,11
 206 300 206 300 228 300 c 128,-1,12
 250 300 250 300 294 316.5 c 128,-1,13
 338 333 338 333 361 333 c 0,14,15
 399 333 399 333 426.5 299.5 c 128,-1,16
 454 266 454 266 454 220 c 0,17,18
 454 137 454 137 403.5 78.5 c 128,-1,19
 353 20 353 20 281 20 c 1,20,21
 306 -16 306 -16 348 -48 c 128,-1,22
 390 -80 390 -80 447 -107 c 1,23,-1
 414 -160 l 1,24,25
 342 -119 342 -119 288 -73 c 128,-1,26
 234 -27 234 -27 201 20 c 1,27,28
 134 20 134 20 87.5 45.5 c 128,-1,29
 41 71 41 71 41 107 c 0,30,31
 41 134 41 134 60.5 153.5 c 128,-1,32
 80 173 80 173 108 173 c 0,33,34
 146 173 146 173 183.5 146.5 c 128,-1,35
 221 120 221 120 248 73 c 1,36,37
 305 73 305 73 346 116.5 c 128,-1,38
 387 160 387 160 387 220 c 0,39,40
 387 238 387 238 379.5 252 c 128,-1,41
 372 266 372 266 361 266 c 0,42,43
 338 266 338 266 294 249.5 c 128,-1,44
 250 233 250 233 228 233 c 0,45,46
 185 233 185 233 119 298.5 c 128,-1,47
 53 364 53 364 53 406 c 0,48,49
 53 445 53 445 85 472 c 128,-1,50
 117 499 117 499 162 499 c 2,51,-1
 328 499 l 1,52,-1
 328 606 l 1,53,-1
 -13 606 l 1,0,-1
EndSplineSet
Validated: 1
EndChar

StartChar: iideva
Encoding: 2312 2312 57
Width: 510
GlyphClass: 2
Flags: W
AnchorPoint: "DVAnchor3" 439 579 basechar 0
LayerCount: 2
Fore
SplineSet
415 -160 m 1,0,1
 344 -119 344 -119 290 -73 c 128,-1,2
 236 -27 236 -27 202 20 c 1,3,4
 136 20 136 20 89.5 45.5 c 128,-1,5
 43 71 43 71 43 107 c 0,6,7
 43 134 43 134 62 153.5 c 128,-1,8
 81 173 81 173 109 173 c 0,9,10
 148 173 148 173 185 146.5 c 128,-1,11
 222 120 222 120 249 73 c 1,12,13
 309 73 309 73 352 116.5 c 128,-1,14
 395 160 395 160 395 220 c 0,15,16
 395 238 395 238 385.5 252 c 128,-1,17
 376 266 376 266 362 266 c 0,18,19
 346 266 346 266 331.5 263 c 128,-1,20
 317 260 317 260 302 253 c 0,21,22
 281 244 281 244 262.5 238.5 c 128,-1,23
 244 233 244 233 229 233 c 0,24,25
 185 233 185 233 117 298.5 c 128,-1,26
 49 364 49 364 49 406 c 0,27,28
 49 445 49 445 82.5 472 c 128,-1,29
 116 499 116 499 162 499 c 2,30,-1
 336 499 l 1,31,-1
 336 606 l 1,32,-1
 -13 606 l 1,33,-1
 -13 666 l 1,34,-1
 321 666 l 1,35,36
 286 696 286 696 267.5 731 c 128,-1,37
 249 766 249 766 249 799 c 0,38,39
 249 860 249 860 295.5 902.5 c 128,-1,40
 342 945 342 945 409 945 c 0,41,42
 427 945 427 945 445 942 c 128,-1,43
 463 939 463 939 482 932 c 1,44,-1
 482 872 l 1,45,46
 454 883 454 883 436 887.5 c 128,-1,47
 418 892 418 892 409 892 c 0,48,49
 370 892 370 892 343 865 c 128,-1,50
 316 838 316 838 316 799 c 0,51,52
 316 762 316 762 338 726.5 c 128,-1,53
 360 691 360 691 398 666 c 1,54,-1
 523 666 l 1,55,-1
 523 606 l 1,56,-1
 402 606 l 1,57,-1
 402 433 l 1,58,-1
 162 433 l 2,59,60
 146 433 146 433 134.5 425 c 128,-1,61
 123 417 123 417 123 406 c 0,62,63
 123 385 123 385 165.5 342.5 c 128,-1,64
 208 300 208 300 229 300 c 0,65,66
 240 300 240 300 256.5 304.5 c 128,-1,67
 273 309 273 309 296 317 c 0,68,69
 316 325 316 325 333 329 c 128,-1,70
 350 333 350 333 362 333 c 0,71,72
 403 333 403 333 432.5 299.5 c 128,-1,73
 462 266 462 266 462 220 c 0,74,75
 462 137 462 137 413.5 78.5 c 128,-1,76
 365 20 365 20 296 20 c 1,77,78
 312 -16 312 -16 353.5 -47.5 c 128,-1,79
 395 -79 395 -79 455 -100 c 1,80,-1
 415 -160 l 1,0,1
EndSplineSet
Validated: 1
EndChar

StartChar: udeva
Encoding: 2313 2313 58
Width: 631
GlyphClass: 2
Flags: W
AnchorPoint: "DVAnchor3" 461 664 basechar 0
LayerCount: 2
Fore
SplineSet
-13 606 m 1,0,-1
 -13 666 l 1,1,-1
 644 666 l 1,2,-1
 644 606 l 1,3,-1
 502 606 l 1,4,5
 522 583 522 583 532 555 c 128,-1,6
 542 527 542 527 542 499 c 0,7,8
 542 455 542 455 524 419.5 c 128,-1,9
 506 384 506 384 475 366 c 1,10,11
 518 352 518 352 543.5 308 c 128,-1,12
 569 264 569 264 569 206 c 0,13,14
 569 129 569 129 516 74.5 c 128,-1,15
 463 20 463 20 389 20 c 0,16,17
 286 20 286 20 190.5 128.5 c 128,-1,18
 95 237 95 237 23 433 c 1,19,-1
 77 457 l 1,20,21
 141 281 141 281 223 184 c 128,-1,22
 305 87 305 87 389 87 c 0,23,24
 435 87 435 87 468.5 122 c 128,-1,25
 502 157 502 157 502 206 c 0,26,27
 502 261 502 261 470.5 300.5 c 128,-1,28
 439 340 439 340 395 340 c 2,29,-1
 262 340 l 1,30,-1
 236 399 l 1,31,-1
 382 399 l 2,32,33
 421 399 421 399 448 428.5 c 128,-1,34
 475 458 475 458 475 499 c 0,35,36
 475 527 475 527 459 555 c 128,-1,37
 443 583 443 583 415 606 c 1,38,-1
 -13 606 l 1,0,-1
EndSplineSet
Validated: 1
EndChar

StartChar: uudeva
Encoding: 2314 2314 59
Width: 921
GlyphClass: 2
Flags: W
AnchorPoint: "DVAnchor3" 453 664 basechar 0
LayerCount: 2
Fore
SplineSet
-13 606 m 1,0,-1
 -13 666 l 1,1,-1
 935 666 l 1,2,-1
 935 606 l 1,3,-1
 495 606 l 1,4,5
 517 581 517 581 528 553.5 c 128,-1,6
 539 526 539 526 539 499 c 0,7,8
 539 454 539 454 519 419.5 c 128,-1,9
 499 385 499 385 466 373 c 1,10,11
 498 358 498 358 518 338 c 128,-1,12
 538 318 538 318 542 298 c 1,13,14
 565 353 565 353 609.5 386 c 128,-1,15
 654 419 654 419 706 419 c 0,16,17
 778 419 778 419 828.5 372.5 c 128,-1,18
 879 326 879 326 879 260 c 0,19,20
 879 193 879 193 849 135 c 128,-1,21
 819 77 819 77 766 40 c 1,22,-1
 722 89 l 1,23,24
 764 113 764 113 788 159 c 128,-1,25
 812 205 812 205 812 260 c 0,26,27
 812 301 812 301 781 330.5 c 128,-1,28
 750 360 750 360 706 360 c 0,29,30
 656 360 656 360 615 305 c 128,-1,31
 574 250 574 250 559 166 c 1,32,33
 549 103 549 103 497.5 61.5 c 128,-1,34
 446 20 446 20 380 20 c 0,35,36
 274 20 274 20 175.5 138.5 c 128,-1,37
 77 257 77 257 27 446 c 1,38,-1
 87 473 l 1,39,40
 132 302 132 302 214 194.5 c 128,-1,41
 296 87 296 87 380 87 c 0,42,43
 429 87 429 87 464 126 c 128,-1,44
 499 165 499 165 499 220 c 0,45,46
 499 269 499 269 464 304.5 c 128,-1,47
 429 340 429 340 380 340 c 2,48,-1
 260 340 l 1,49,-1
 233 399 l 1,50,-1
 366 399 l 2,51,52
 410 399 410 399 440.5 428.5 c 128,-1,53
 471 458 471 458 471 499 c 0,54,55
 471 523 471 523 454 551 c 128,-1,56
 437 579 437 579 406 606 c 1,57,-1
 -13 606 l 1,0,-1
EndSplineSet
Validated: 1
EndChar

StartChar: rvocalicdeva
Encoding: 2315 2315 60
Width: 864
GlyphClass: 2
Flags: W
AnchorPoint: "DVAnchor3" 460 664 basechar 0
AnchorPoint: "DVAnchor0" 471 26 basechar 0
LayerCount: 2
Fore
SplineSet
205 493 m 0,0,1
 234 493 234 493 265 477.5 c 128,-1,2
 296 462 296 462 325 433 c 2,3,-1
 431 326 l 1,4,-1
 431 606 l 1,5,-1
 -13 606 l 1,6,-1
 -13 666 l 1,7,-1
 878 666 l 1,8,-1
 878 606 l 1,9,-1
 498 606 l 1,10,-1
 498 366 l 1,11,12
 513 360 513 360 531 356.5 c 128,-1,13
 549 353 549 353 571 353 c 0,14,15
 589 353 589 353 601 355 c 128,-1,16
 613 357 613 357 618 360 c 1,17,18
 609 373 609 373 603.5 388 c 128,-1,19
 598 403 598 403 598 419 c 0,20,21
 598 442 598 442 619 457.5 c 128,-1,22
 640 473 640 473 671 473 c 128,-1,23
 702 473 702 473 723 453.5 c 128,-1,24
 744 434 744 434 744 406 c 0,25,26
 744 381 744 381 733.5 361 c 128,-1,27
 723 341 723 341 704 333 c 1,28,29
 762 276 762 276 793 218.5 c 128,-1,30
 824 161 824 161 824 113 c 0,31,32
 824 61 824 61 787 24 c 128,-1,33
 750 -13 750 -13 698 -13 c 0,34,35
 656 -13 656 -13 623 15 c 128,-1,36
 590 43 590 43 578 87 c 1,37,-1
 638 113 l 1,38,39
 642 87 642 87 659 70 c 128,-1,40
 676 53 676 53 698 53 c 0,41,42
 723 53 723 53 740.5 70.5 c 128,-1,43
 758 88 758 88 758 113 c 0,44,45
 758 157 758 157 726.5 207.5 c 128,-1,46
 695 258 695 258 638 306 c 1,47,48
 623 300 623 300 606.5 296.5 c 128,-1,49
 590 293 590 293 571 293 c 0,50,51
 546 293 546 293 528 296.5 c 128,-1,52
 510 300 510 300 498 306 c 1,53,-1
 498 0 l 1,54,-1
 431 0 l 1,55,-1
 431 253 l 1,56,-1
 158 127 l 1,57,-1
 119 180 l 1,58,-1
 378 300 l 1,59,-1
 305 373 l 1,60,61
 274 402 274 402 248 417.5 c 128,-1,62
 222 433 222 433 205 433 c 0,63,64
 177 433 177 433 138 415.5 c 128,-1,65
 99 398 99 398 52 366 c 1,66,-1
 12 413 l 1,67,68
 68 451 68 451 117 472 c 128,-1,69
 166 493 166 493 205 493 c 0,0,1
EndSplineSet
Validated: 1
EndChar

StartChar: lvocalicdeva
Encoding: 2316 2316 61
Width: 703
GlyphClass: 2
Flags: W
LayerCount: 2
Fore
SplineSet
250 0 m 1,0,1
 157 40 157 40 100.5 112.5 c 128,-1,2
 44 185 44 185 44 266 c 0,3,4
 44 346 44 346 92.5 402.5 c 128,-1,5
 141 459 141 459 210 459 c 0,6,7
 246 459 246 459 281.5 438 c 128,-1,8
 317 417 317 417 344 380 c 1,9,10
 364 410 364 410 393 430.5 c 128,-1,11
 422 451 422 451 457 459 c 1,12,-1
 457 606 l 1,13,-1
 -13 606 l 1,14,-1
 -13 666 l 1,15,-1
 716 666 l 1,16,-1
 716 606 l 1,17,-1
 523 606 l 1,18,-1
 523 459 l 1,19,20
 583 441 583 441 619.5 380.5 c 128,-1,21
 656 320 656 320 656 240 c 0,22,23
 656 168 656 168 615 112 c 128,-1,24
 574 56 574 56 510 40 c 0,25,26
 466 29 466 29 438 -1 c 128,-1,27
 410 -31 410 -31 410 -67 c 128,-1,28
 410 -103 410 -103 439.5 -128 c 128,-1,29
 469 -153 469 -153 510 -153 c 0,30,31
 549 -153 549 -153 581.5 -144.5 c 128,-1,32
 614 -136 614 -136 637 -120 c 1,33,-1
 656 -180 l 1,34,35
 629 -200 629 -200 591.5 -210 c 128,-1,36
 554 -220 554 -220 510 -220 c 0,37,38
 441 -220 441 -220 392.5 -175 c 128,-1,39
 344 -130 344 -130 344 -67 c 0,40,41
 344 -8 344 -8 383.5 37.5 c 128,-1,42
 423 83 423 83 485 93 c 0,43,44
 530 101 530 101 560 142.5 c 128,-1,45
 590 184 590 184 590 240 c 0,46,47
 590 304 590 304 556.5 348.5 c 128,-1,48
 523 393 523 393 477 393 c 0,49,50
 439 393 439 393 404 342.5 c 128,-1,51
 369 292 369 292 350 213 c 1,52,-1
 284 233 l 1,53,54
 289 257 289 257 297.5 280.5 c 128,-1,55
 306 304 306 304 317 326 c 1,56,57
 298 357 298 357 269.5 375 c 128,-1,58
 241 393 241 393 210 393 c 0,59,60
 169 393 169 393 140 355.5 c 128,-1,61
 111 318 111 318 111 266 c 0,62,63
 111 201 111 201 156 143 c 128,-1,64
 201 85 201 85 277 53 c 1,65,-1
 250 0 l 1,0,1
EndSplineSet
Validated: 1
EndChar

StartChar: ecandradeva
Encoding: 2317 2317 62
Width: 490
GlyphClass: 2
Flags: W
LayerCount: 2
Fore
SplineSet
248 752 m 0,0,1
 174 752 174 752 117.5 803 c 128,-1,2
 61 854 61 854 48 932 c 1,3,-1
 115 932 l 1,4,5
 124 878 124 878 162 842 c 128,-1,6
 200 806 200 806 248 806 c 128,-1,7
 296 806 296 806 334 842 c 128,-1,8
 372 878 372 878 381 932 c 1,9,-1
 447 932 l 1,10,11
 434 854 434 854 377.5 803 c 128,-1,12
 321 752 321 752 248 752 c 0,0,1
368 -127 m 1,13,-1
 314 -80 l 1,14,15
 341 -76 341 -76 357.5 -62.5 c 128,-1,16
 374 -49 374 -49 374 -33 c 0,17,18
 374 -24 374 -24 367.5 -12 c 128,-1,19
 361 0 361 0 348 13 c 2,20,-1
 101 240 l 1,21,22
 83 258 83 258 72 277.5 c 128,-1,23
 61 297 61 297 61 313 c 2,24,-1
 61 606 l 1,25,-1
 -13 606 l 1,26,-1
 -13 666 l 1,27,-1
 503 666 l 1,28,-1
 503 606 l 1,29,-1
 427 606 l 1,30,-1
 427 406 l 2,31,32
 427 354 427 354 403.5 315.5 c 128,-1,33
 380 277 380 277 341 266 c 1,34,-1
 301 313 l 1,35,36
 325 320 325 320 339.5 348 c 128,-1,37
 354 376 354 376 354 413 c 2,38,-1
 354 606 l 1,39,-1
 134 606 l 1,40,-1
 134 353 l 2,41,42
 134 324 134 324 141 302 c 128,-1,43
 148 280 148 280 161 266 c 1,44,-1
 394 47 l 1,45,46
 419 25 419 25 433 4.5 c 128,-1,47
 447 -16 447 -16 447 -33 c 0,48,49
 447 -63 447 -63 425 -88 c 128,-1,50
 403 -113 403 -113 368 -127 c 1,13,-1
EndSplineSet
Validated: 1
EndChar

StartChar: eshortdeva
Encoding: 2318 2318 63
Width: 490
GlyphClass: 2
Flags: W
LayerCount: 2
Fore
SplineSet
221 804 m 0,0,1
 148 804 148 804 91.5 854.5 c 128,-1,2
 35 905 35 905 21 984 c 1,3,-1
 88 984 l 1,4,5
 97 929 97 929 135 893 c 128,-1,6
 173 857 173 857 221 857 c 0,7,8
 304 857 304 857 362 800 c 1,9,10
 420 745 420 745 421 666 c 1,11,-1
 503 666 l 1,12,-1
 503 606 l 1,13,-1
 427 606 l 1,14,-1
 427 399 l 2,15,16
 427 350 427 350 403.5 313.5 c 128,-1,17
 380 277 380 277 341 266 c 1,18,-1
 301 313 l 1,19,20
 325 320 325 320 339.5 348 c 128,-1,21
 354 376 354 376 354 413 c 2,22,-1
 354 606 l 1,23,-1
 134 606 l 1,24,-1
 134 353 l 2,25,26
 134 324 134 324 141 302 c 128,-1,27
 148 280 148 280 161 266 c 1,28,-1
 394 47 l 1,29,30
 419 25 419 25 433 4.5 c 128,-1,31
 447 -16 447 -16 447 -33 c 0,32,33
 447 -63 447 -63 425 -88 c 128,-1,34
 403 -113 403 -113 368 -127 c 1,35,-1
 314 -80 l 1,36,37
 341 -76 341 -76 357.5 -62.5 c 128,-1,38
 374 -49 374 -49 374 -33 c 0,39,40
 374 -24 374 -24 367.5 -12 c 128,-1,41
 361 0 361 0 348 13 c 2,42,-1
 101 240 l 1,43,44
 83 258 83 258 72 277.5 c 128,-1,45
 61 297 61 297 61 313 c 2,46,-1
 61 606 l 1,47,-1
 -13 606 l 1,48,-1
 -13 666 l 1,49,-1
 354 666 l 1,50,51
 353 722 353 722 315 762 c 0,52,53
 276 804 276 804 221 804 c 0,0,1
EndSplineSet
Validated: 1
EndChar

StartChar: edeva
Encoding: 2319 2319 64
Width: 486
GlyphClass: 2
Flags: W
AnchorPoint: "DVAnchor3" 265 664 basechar 0
LayerCount: 2
Fore
SplineSet
-13 606 m 1,0,-1
 -13 666 l 1,1,-1
 499 666 l 1,2,-1
 499 606 l 1,3,-1
 419 606 l 1,4,-1
 419 411 l 2,5,6
 419 357 419 357 397.5 316.5 c 128,-1,7
 376 276 376 276 340 266 c 1,8,-1
 300 313 l 1,9,10
 324 320 324 320 338.5 348 c 128,-1,11
 353 376 353 376 353 413 c 2,12,-1
 353 606 l 1,13,-1
 127 606 l 1,14,-1
 127 353 l 2,15,16
 127 328 127 328 135.5 305 c 128,-1,17
 144 282 144 282 160 266 c 2,18,-1
 393 47 l 1,19,20
 418 25 418 25 432 4.5 c 128,-1,21
 446 -16 446 -16 446 -33 c 0,22,23
 446 -63 446 -63 424 -88 c 128,-1,24
 402 -113 402 -113 366 -127 c 1,25,-1
 313 -80 l 1,26,27
 340 -76 340 -76 356.5 -62.5 c 128,-1,28
 373 -49 373 -49 373 -33 c 0,29,30
 373 -24 373 -24 366.5 -12 c 128,-1,31
 360 0 360 0 346 13 c 2,32,-1
 100 240 l 2,33,34
 81 258 81 258 70.5 287.5 c 128,-1,35
 60 317 60 317 60 350 c 2,36,-1
 60 606 l 1,37,-1
 -13 606 l 1,0,-1
EndSplineSet
Validated: 1
EndChar

StartChar: aideva
Encoding: 2320 2320 65
Width: 491
GlyphClass: 2
Flags: W
LayerCount: 2
Fore
SplineSet
-13 606 m 1,0,-1
 -13 666 l 1,1,-1
 352 666 l 1,2,-1
 152 892 l 1,3,-1
 212 945 l 1,4,-1
 426 666 l 1,5,-1
 505 666 l 1,6,-1
 505 606 l 1,7,-1
 431 606 l 1,8,-1
 431 413 l 2,9,10
 431 369 431 369 408.5 328.5 c 128,-1,11
 386 288 386 288 345 260 c 1,12,-1
 305 313 l 1,13,14
 333 337 333 337 349 363.5 c 128,-1,15
 365 390 365 390 365 415 c 2,16,-1
 365 606 l 1,17,-1
 125 606 l 1,18,-1
 125 340 l 2,19,20
 125 324 125 324 139 301 c 128,-1,21
 153 278 153 278 178 253 c 1,22,-1
 398 47 l 1,23,24
 421 24 421 24 433 3.5 c 128,-1,25
 445 -17 445 -17 445 -33 c 0,26,27
 445 -63 445 -63 423 -88 c 128,-1,28
 401 -113 401 -113 365 -127 c 1,29,-1
 312 -80 l 1,30,31
 340 -75 340 -75 358 -62 c 128,-1,32
 376 -49 376 -49 376 -33 c 0,33,34
 376 -23 376 -23 366 -7 c 128,-1,35
 356 9 356 9 338 27 c 2,36,-1
 119 233 l 1,37,38
 91 257 91 257 75 285 c 128,-1,39
 59 313 59 313 59 341 c 2,40,-1
 59 606 l 1,41,-1
 -13 606 l 1,0,-1
EndSplineSet
Validated: 1
EndChar

StartChar: ocandradeva
Encoding: 2321 2321 66
Width: 1042
GlyphClass: 2
Flags: W
LayerCount: 2
Fore
SplineSet
723 746 m 128,-1,1
 651 746 651 746 594.5 798.5 c 128,-1,2
 538 851 538 851 523 932 c 1,3,-1
 590 932 l 1,4,5
 599 878 599 878 637 842 c 128,-1,6
 675 806 675 806 723 806 c 128,-1,7
 771 806 771 806 809 842 c 128,-1,8
 847 878 847 878 856 932 c 1,9,-1
 923 932 l 1,10,11
 908 851 908 851 851.5 798.5 c 128,-1,0
 795 746 795 746 723 746 c 128,-1,1
310 47 m 0,12,13
 230 47 230 47 155 113.5 c 128,-1,14
 80 180 80 180 24 300 c 1,15,-1
 71 340 l 1,16,17
 121 232 121 232 183.5 172.5 c 128,-1,18
 246 113 246 113 310 113 c 0,19,20
 352 113 352 113 381 148.5 c 128,-1,21
 410 184 410 184 410 233 c 0,22,23
 410 280 410 280 377 313 c 128,-1,24
 344 346 344 346 297 346 c 0,25,26
 282 346 282 346 265.5 343 c 128,-1,27
 249 340 249 340 230 333 c 1,28,-1
 204 393 l 1,29,30
 264 398 264 398 310.5 434.5 c 128,-1,31
 357 471 357 471 357 513 c 0,32,33
 357 549 357 549 329.5 574 c 128,-1,34
 302 599 302 599 264 599 c 0,35,36
 229 599 229 599 190.5 576.5 c 128,-1,37
 152 554 152 554 117 513 c 1,38,-1
 71 559 l 1,39,40
 105 610 105 610 156.5 638 c 128,-1,41
 208 666 208 666 264 666 c 0,42,43
 330 666 330 666 376.5 621.5 c 128,-1,44
 423 577 423 577 423 513 c 0,45,46
 423 479 423 479 407 448 c 128,-1,47
 391 417 391 417 364 393 c 1,48,49
 409 366 409 366 451.5 353 c 128,-1,50
 494 340 494 340 530 340 c 0,51,52
 543 340 543 340 562 346.5 c 128,-1,53
 581 353 581 353 603 366 c 1,54,-1
 603 606 l 1,55,-1
 483 606 l 1,56,-1
 483 666 l 1,57,-1
 1056 666 l 1,58,-1
 1056 606 l 1,59,-1
 943 606 l 1,60,-1
 943 0 l 1,61,-1
 876 0 l 1,62,-1
 876 606 l 1,63,-1
 670 606 l 1,64,-1
 670 0 l 1,65,-1
 603 0 l 1,66,-1
 603 300 l 1,67,68
 587 286 587 286 568.5 279.5 c 128,-1,69
 550 273 550 273 530 273 c 0,70,71
 505 273 505 273 484 278.5 c 128,-1,72
 463 284 463 284 450 293 c 1,73,74
 463 280 463 280 470 262.5 c 128,-1,75
 477 245 477 245 477 226 c 0,76,77
 477 152 477 152 428.5 99.5 c 128,-1,78
 380 47 380 47 310 47 c 0,12,13
EndSplineSet
Validated: 1
EndChar

StartChar: oshortdeva
Encoding: 2322 2322 67
Width: 1042
GlyphClass: 2
Flags: W
LayerCount: 2
Fore
SplineSet
743 806 m 0,0,1
 670 806 670 806 613.5 856.5 c 128,-1,2
 557 907 557 907 543 986 c 1,3,-1
 610 986 l 1,4,5
 619 931 619 931 657 895 c 128,-1,6
 695 859 695 859 743 859 c 0,7,8
 826 859 826 859 884.5 802.5 c 128,-1,9
 943 746 943 746 943 666 c 1,10,-1
 1056 666 l 1,11,-1
 1056 606 l 1,12,-1
 943 606 l 1,13,-1
 943 0 l 1,14,-1
 876 0 l 1,15,-1
 876 606 l 1,16,-1
 670 606 l 1,17,-1
 670 0 l 1,18,-1
 603 0 l 1,19,-1
 603 300 l 1,20,21
 587 286 587 286 570.5 279.5 c 128,-1,22
 554 273 554 273 537 273 c 0,23,24
 509 273 509 273 486 278.5 c 128,-1,25
 463 284 463 284 450 293 c 1,26,27
 463 282 463 282 470 263 c 128,-1,28
 477 244 477 244 477 220 c 0,29,30
 477 148 477 148 428.5 97.5 c 128,-1,31
 380 47 380 47 310 47 c 0,32,33
 230 47 230 47 155 113.5 c 128,-1,34
 80 180 80 180 24 300 c 1,35,-1
 71 340 l 1,36,37
 121 232 121 232 183.5 172.5 c 128,-1,38
 246 113 246 113 310 113 c 0,39,40
 352 113 352 113 381 148.5 c 128,-1,41
 410 184 410 184 410 233 c 0,42,43
 410 280 410 280 377 313 c 128,-1,44
 344 346 344 346 297 346 c 0,45,46
 282 346 282 346 265.5 343 c 128,-1,47
 249 340 249 340 230 333 c 1,48,-1
 204 393 l 1,49,50
 264 398 264 398 310.5 436.5 c 128,-1,51
 357 475 357 475 357 519 c 0,52,53
 357 555 357 555 329.5 580.5 c 128,-1,54
 302 606 302 606 264 606 c 0,55,56
 232 606 232 606 193 581.5 c 128,-1,57
 154 557 154 557 117 513 c 1,58,-1
 71 559 l 1,59,60
 108 613 108 613 159 642.5 c 128,-1,61
 210 672 210 672 264 672 c 0,62,63
 330 672 330 672 376.5 627.5 c 128,-1,64
 423 583 423 583 423 519 c 0,65,66
 423 483 423 483 407 450 c 128,-1,67
 391 417 391 417 364 393 c 1,68,69
 414 364 414 364 456.5 348.5 c 128,-1,70
 499 333 499 333 530 333 c 0,71,72
 539 333 539 333 556 341 c 128,-1,73
 573 349 573 349 603 366 c 1,74,-1
 603 606 l 1,75,-1
 483 606 l 1,76,-1
 483 666 l 1,77,-1
 876 666 l 1,78,79
 876 723 876 723 837 764.5 c 128,-1,80
 798 806 798 806 743 806 c 0,0,1
EndSplineSet
Validated: 1
EndChar

StartChar: odeva
Encoding: 2323 2323 68
Width: 1042
GlyphClass: 2
Flags: W
LayerCount: 2
Fore
SplineSet
310 47 m 0,0,1
 230 47 230 47 155 113.5 c 128,-1,2
 80 180 80 180 24 300 c 1,3,-1
 71 340 l 1,4,5
 121 232 121 232 183.5 172.5 c 128,-1,6
 246 113 246 113 310 113 c 0,7,8
 352 113 352 113 381 144.5 c 128,-1,9
 410 176 410 176 410 220 c 0,10,11
 410 272 410 272 377 309 c 128,-1,12
 344 346 344 346 297 346 c 0,13,14
 282 346 282 346 265.5 343 c 128,-1,15
 249 340 249 340 230 333 c 1,16,-1
 204 393 l 1,17,18
 264 398 264 398 310.5 436.5 c 128,-1,19
 357 475 357 475 357 519 c 0,20,21
 357 555 357 555 329.5 580.5 c 128,-1,22
 302 606 302 606 264 606 c 0,23,24
 232 606 232 606 193 581.5 c 128,-1,25
 154 557 154 557 117 513 c 1,26,-1
 71 559 l 1,27,28
 108 613 108 613 159 642.5 c 128,-1,29
 210 672 210 672 264 672 c 0,30,31
 330 672 330 672 376.5 627.5 c 128,-1,32
 423 583 423 583 423 519 c 0,33,34
 423 483 423 483 407 450 c 128,-1,35
 391 417 391 417 364 393 c 1,36,37
 414 364 414 364 454.5 348.5 c 128,-1,38
 495 333 495 333 523 333 c 0,39,40
 539 333 539 333 560 341.5 c 128,-1,41
 581 350 581 350 603 366 c 1,42,-1
 603 606 l 1,43,-1
 483 606 l 1,44,-1
 483 666 l 1,45,-1
 871 666 l 1,46,-1
 630 959 l 1,47,-1
 676 999 l 1,48,-1
 937 666 l 1,49,-1
 1056 666 l 1,50,-1
 1056 606 l 1,51,-1
 943 606 l 1,52,-1
 943 0 l 1,53,-1
 876 0 l 1,54,-1
 876 606 l 1,55,-1
 670 606 l 1,56,-1
 670 0 l 1,57,-1
 603 0 l 1,58,-1
 603 300 l 1,59,60
 587 286 587 286 570.5 279.5 c 128,-1,61
 554 273 554 273 537 273 c 0,62,63
 509 273 509 273 486 278.5 c 128,-1,64
 463 284 463 284 450 293 c 1,65,66
 463 282 463 282 470 263 c 128,-1,67
 477 244 477 244 477 220 c 0,68,69
 477 148 477 148 428.5 97.5 c 128,-1,70
 380 47 380 47 310 47 c 0,0,1
EndSplineSet
Validated: 1
EndChar

StartChar: audeva
Encoding: 2324 2324 69
Width: 1042
GlyphClass: 2
Flags: W
LayerCount: 2
Fore
SplineSet
310 47 m 0,0,1
 230 47 230 47 155 113.5 c 128,-1,2
 80 180 80 180 24 300 c 1,3,-1
 71 340 l 1,4,5
 121 232 121 232 183.5 172.5 c 128,-1,6
 246 113 246 113 310 113 c 0,7,8
 352 113 352 113 381 144.5 c 128,-1,9
 410 176 410 176 410 220 c 0,10,11
 410 272 410 272 377 309 c 128,-1,12
 344 346 344 346 297 346 c 0,13,14
 282 346 282 346 265.5 343 c 128,-1,15
 249 340 249 340 230 333 c 1,16,-1
 204 393 l 1,17,18
 264 398 264 398 310.5 434.5 c 128,-1,19
 357 471 357 471 357 513 c 0,20,21
 357 551 357 551 325.5 578.5 c 128,-1,22
 294 606 294 606 250 606 c 0,23,24
 220 606 220 606 186 583.5 c 128,-1,25
 152 561 152 561 124 519 c 1,26,-1
 71 559 l 1,27,28
 108 613 108 613 156 642.5 c 128,-1,29
 204 672 204 672 250 672 c 0,30,31
 322 672 322 672 372.5 625.5 c 128,-1,32
 423 579 423 579 423 513 c 0,33,34
 423 479 423 479 407 448 c 128,-1,35
 391 417 391 417 364 393 c 1,36,37
 414 364 414 364 456.5 348.5 c 128,-1,38
 499 333 499 333 530 333 c 0,39,40
 539 333 539 333 556 341 c 128,-1,41
 573 349 573 349 603 366 c 1,42,-1
 603 606 l 1,43,-1
 483 606 l 1,44,-1
 483 666 l 1,45,-1
 846 666 l 1,46,-1
 570 846 l 1,47,-1
 610 905 l 1,48,-1
 903 672 l 1,49,-1
 763 959 l 1,50,-1
 830 999 l 1,51,-1
 940 666 l 1,52,-1
 1056 666 l 1,53,-1
 1056 606 l 1,54,-1
 943 606 l 1,55,-1
 943 0 l 1,56,-1
 876 0 l 1,57,-1
 876 606 l 1,58,-1
 670 606 l 1,59,-1
 670 0 l 1,60,-1
 603 0 l 1,61,-1
 603 300 l 1,62,63
 587 286 587 286 570.5 279.5 c 128,-1,64
 554 273 554 273 537 273 c 0,65,66
 509 273 509 273 486 278.5 c 128,-1,67
 463 284 463 284 450 293 c 1,68,69
 463 282 463 282 470 263 c 128,-1,70
 477 244 477 244 477 220 c 0,71,72
 477 148 477 148 428.5 97.5 c 128,-1,73
 380 47 380 47 310 47 c 0,0,1
EndSplineSet
Validated: 1
EndChar

StartChar: kadeva
Encoding: 2325 2325 70
Width: 749
GlyphClass: 2
Flags: W
AnchorPoint: "DVAnchor3" 381 664 basechar 0
AnchorPoint: "DVAnchor0" 380 23 basechar 0
LayerCount: 2
Fore
SplineSet
-13 606 m 1,0,-1
 -13 666 l 1,1,-1
 763 666 l 1,2,-1
 763 606 l 1,3,-1
 411 606 l 1,4,-1
 411 426 l 1,5,6
 433 463 433 463 470 484.5 c 128,-1,7
 507 506 507 506 551 506 c 0,8,9
 615 506 615 506 659.5 453.5 c 128,-1,10
 704 401 704 401 704 326 c 0,11,12
 704 262 704 262 671 199.5 c 128,-1,13
 638 137 638 137 578 87 c 1,14,-1
 518 127 l 1,15,16
 574 166 574 166 606 219 c 128,-1,17
 638 272 638 272 638 326 c 0,18,19
 638 373 638 373 612.5 406 c 128,-1,20
 587 439 587 439 551 439 c 0,21,22
 505 439 505 439 465.5 404 c 128,-1,23
 426 369 426 369 411 313 c 1,24,-1
 411 0 l 1,25,-1
 345 0 l 1,26,-1
 345 200 l 1,27,28
 321 172 321 172 286.5 156 c 128,-1,29
 252 140 252 140 212 140 c 0,30,31
 140 140 140 140 89.5 190.5 c 128,-1,32
 39 241 39 241 39 313 c 0,33,34
 39 393 39 393 97.5 449.5 c 128,-1,35
 156 506 156 506 238 506 c 0,36,37
 262 506 262 506 279.5 502.5 c 128,-1,38
 297 499 297 499 305 493 c 1,39,-1
 292 426 l 1,40,41
 280 433 280 433 266.5 436 c 128,-1,42
 253 439 253 439 238 439 c 0,43,44
 184 439 184 439 144.5 402 c 128,-1,45
 105 365 105 365 105 313 c 0,46,47
 105 269 105 269 136.5 237.5 c 128,-1,48
 168 206 168 206 212 206 c 0,49,50
 250 206 250 206 286 229.5 c 128,-1,51
 322 253 322 253 345 293 c 1,52,-1
 345 606 l 1,53,-1
 -13 606 l 1,0,-1
EndSplineSet
Validated: 1
EndChar

StartChar: khadeva
Encoding: 2326 2326 71
Width: 825
GlyphClass: 2
Flags: W
AnchorPoint: "DVAnchor3" 693 664 basechar 0
AnchorPoint: "DVAnchor0" 695 29 basechar 0
LayerCount: 2
Fore
SplineSet
406 60 m 0,0,1
 481 60 481 60 549 102.5 c 128,-1,2
 617 145 617 145 659 220 c 1,3,-1
 659 273 l 1,4,5
 633 250 633 250 605.5 238 c 128,-1,6
 578 226 578 226 553 226 c 0,7,8
 486 226 486 226 439.5 268 c 128,-1,9
 393 310 393 310 393 369 c 0,10,11
 393 429 393 429 439.5 471 c 128,-1,12
 486 513 486 513 553 513 c 0,13,14
 578 513 578 513 600 507.5 c 128,-1,15
 622 502 622 502 639 493 c 1,16,-1
 639 426 l 1,17,18
 613 435 613 435 591 440.5 c 128,-1,19
 569 446 569 446 553 446 c 0,20,21
 514 446 514 446 486.5 423.5 c 128,-1,22
 459 401 459 401 459 369 c 128,-1,23
 459 337 459 337 486.5 315 c 128,-1,24
 514 293 514 293 553 293 c 0,25,26
 574 293 574 293 601.5 307 c 128,-1,27
 629 321 629 321 659 346 c 1,28,-1
 659 606 l 1,29,-1
 293 606 l 1,30,-1
 293 459 l 2,31,32
 293 395 293 395 257.5 350.5 c 128,-1,33
 222 306 222 306 173 306 c 0,34,35
 164 306 164 306 155 308 c 128,-1,36
 146 310 146 310 140 313 c 1,37,38
 181 198 181 198 254.5 129 c 128,-1,39
 328 60 328 60 406 60 c 0,0,1
-13 606 m 1,40,-1
 -13 666 l 1,41,-1
 839 666 l 1,42,-1
 839 606 l 1,43,-1
 726 606 l 1,44,-1
 726 0 l 1,45,-1
 659 0 l 1,46,-1
 659 133 l 1,47,48
 615 71 615 71 548 35.5 c 128,-1,49
 481 0 481 0 406 0 c 0,50,51
 290 0 290 0 184.5 122.5 c 128,-1,52
 79 245 79 245 27 439 c 1,53,-1
 80 466 l 1,54,55
 95 423 95 423 120.5 398 c 128,-1,56
 146 373 146 373 173 373 c 0,57,58
 196 373 196 373 211 398 c 128,-1,59
 226 423 226 423 226 459 c 2,60,-1
 226 606 l 1,61,-1
 -13 606 l 1,40,-1
EndSplineSet
Validated: 1
EndChar

StartChar: gadeva
Encoding: 2327 2327 72
Width: 517
GlyphClass: 2
Flags: W
AnchorPoint: "DVAnchor3" 386 664 basechar 0
LayerCount: 2
Fore
SplineSet
-13 606 m 1,0,-1
 -13 666 l 1,1,-1
 531 666 l 1,2,-1
 531 606 l 1,3,-1
 418 606 l 1,4,-1
 418 0 l 1,5,-1
 352 0 l 1,6,-1
 352 606 l 1,7,-1
 185 606 l 1,8,-1
 185 280 l 2,9,10
 185 264 185 264 175 252 c 128,-1,11
 165 240 165 240 152 240 c 0,12,13
 127 240 127 240 73 302.5 c 128,-1,14
 19 365 19 365 19 393 c 0,15,16
 19 403 19 403 27 411 c 128,-1,17
 35 419 35 419 45 419 c 2,18,-1
 92 419 l 2,19,20
 103 419 103 419 111 429 c 128,-1,21
 119 439 119 439 119 453 c 2,22,-1
 119 606 l 1,23,-1
 -13 606 l 1,0,-1
EndSplineSet
Validated: 1
EndChar

StartChar: ghadeva
Encoding: 2328 2328 73
Width: 636
GlyphClass: 2
Flags: W
AnchorPoint: "DVAnchor3" 506 664 basechar 0
LayerCount: 2
Fore
SplineSet
264 180 m 0,0,1
 314 180 314 180 368 211 c 128,-1,2
 422 242 422 242 470 300 c 1,3,-1
 470 606 l 1,4,-1
 164 606 l 1,5,6
 142 594 142 594 129.5 572 c 128,-1,7
 117 550 117 550 117 526 c 0,8,9
 117 490 117 490 150.5 464.5 c 128,-1,10
 184 439 184 439 230 439 c 2,11,-1
 317 439 l 1,12,-1
 337 380 l 1,13,-1
 277 380 l 2,14,15
 220 380 220 380 178.5 350.5 c 128,-1,16
 137 321 137 321 137 280 c 0,17,18
 137 238 137 238 174.5 209 c 128,-1,19
 212 180 212 180 264 180 c 0,0,1
-13 606 m 1,20,-1
 -13 666 l 1,21,-1
 650 666 l 1,22,-1
 650 606 l 1,23,-1
 537 606 l 1,24,-1
 537 0 l 1,25,-1
 470 0 l 1,26,-1
 470 213 l 1,27,28
 422 165 422 165 368 139 c 128,-1,29
 314 113 314 113 264 113 c 0,30,31
 184 113 184 113 127.5 161.5 c 128,-1,32
 71 210 71 210 71 280 c 0,33,34
 71 316 71 316 90 348 c 128,-1,35
 109 380 109 380 144 399 c 1,36,37
 101 414 101 414 76 449.5 c 128,-1,38
 51 485 51 485 51 526 c 0,39,40
 51 546 51 546 59.5 566.5 c 128,-1,41
 68 587 68 587 84 606 c 1,42,-1
 -13 606 l 1,20,-1
EndSplineSet
Validated: 1
EndChar

StartChar: ngadeva
Encoding: 2329 2329 74
Width: 717
GlyphClass: 2
Flags: W
AnchorPoint: "DVAnchor3" 499 664 basechar 0
AnchorPoint: "DVAnchor0" 394 50 basechar 0
LayerCount: 2
Fore
SplineSet
652 333 m 0,0,1
 633 333 633 333 618 347 c 128,-1,2
 603 361 603 361 603 380 c 0,3,4
 603 398 603 398 618 412 c 128,-1,5
 633 426 633 426 652 426 c 0,6,7
 674 426 674 426 688.5 412 c 128,-1,8
 703 398 703 398 703 380 c 0,9,10
 703 361 703 361 688.5 347 c 128,-1,11
 674 333 674 333 652 333 c 0,0,1
-13 606 m 1,12,-1
 -13 666 l 1,13,-1
 731 666 l 1,14,-1
 731 606 l 1,15,-1
 530 606 l 1,16,-1
 530 439 l 1,17,-1
 304 439 l 2,18,19
 290 439 290 439 280 431 c 128,-1,20
 270 423 270 423 270 413 c 0,21,22
 270 385 270 385 307.5 342.5 c 128,-1,23
 345 300 345 300 370 300 c 0,24,25
 393 300 393 300 433.5 316.5 c 128,-1,26
 474 333 474 333 497 333 c 0,27,28
 538 333 538 333 567.5 301.5 c 128,-1,29
 597 270 597 270 597 226 c 0,30,31
 597 138 597 138 538 75.5 c 128,-1,32
 479 13 479 13 397 13 c 0,33,34
 301 13 301 13 199 93.5 c 128,-1,35
 97 174 97 174 17 313 c 1,36,-1
 71 353 l 1,37,38
 144 226 144 226 231 153 c 128,-1,39
 318 80 318 80 397 80 c 0,40,41
 451 80 451 80 490.5 122.5 c 128,-1,42
 530 165 530 165 530 226 c 0,43,44
 530 242 530 242 520 254 c 128,-1,45
 510 266 510 266 497 266 c 0,46,47
 474 266 474 266 433.5 249.5 c 128,-1,48
 393 233 393 233 370 233 c 0,49,50
 329 233 329 233 266.5 301 c 128,-1,51
 204 369 204 369 204 413 c 0,52,53
 204 449 204 449 233 474 c 128,-1,54
 262 499 262 499 304 499 c 2,55,-1
 463 499 l 1,56,-1
 463 606 l 1,57,-1
 -13 606 l 1,12,-1
EndSplineSet
Validated: 1
EndChar

StartChar: cadeva
Encoding: 2330 2330 75
Width: 637
GlyphClass: 2
Flags: W
AnchorPoint: "DVAnchor3" 503 664 basechar 0
LayerCount: 2
Fore
SplineSet
-13 606 m 1,0,-1
 -13 666 l 1,1,-1
 651 666 l 1,2,-1
 651 606 l 1,3,-1
 538 606 l 1,4,-1
 538 0 l 1,5,-1
 471 0 l 1,6,-1
 471 240 l 1,7,8
 431 184 431 184 384 152 c 128,-1,9
 337 120 337 120 292 120 c 0,10,11
 225 120 225 120 178.5 166.5 c 128,-1,12
 132 213 132 213 132 280 c 0,13,14
 132 328 132 328 151 367 c 128,-1,15
 170 406 170 406 205 426 c 1,16,-1
 12 426 l 1,17,-1
 12 493 l 1,18,-1
 405 493 l 1,19,-1
 405 426 l 1,20,-1
 312 426 l 1,21,22
 261 407 261 407 229.5 367.5 c 128,-1,23
 198 328 198 328 198 280 c 0,24,25
 198 241 198 241 225.5 213.5 c 128,-1,26
 253 186 253 186 292 186 c 0,27,28
 334 186 334 186 382 227.5 c 128,-1,29
 430 269 430 269 471 340 c 1,30,-1
 471 606 l 1,31,-1
 -13 606 l 1,0,-1
EndSplineSet
Validated: 1
EndChar

StartChar: chadeva
Encoding: 2331 2331 76
Width: 709
GlyphClass: 2
Flags: W
AnchorPoint: "DVAnchor3" 526 664 basechar 0
AnchorPoint: "DVAnchor0" 322 61 basechar 0
LayerCount: 2
Fore
SplineSet
523 220 m 1,0,1
 561 246 561 246 582 285 c 128,-1,2
 603 324 603 324 603 366 c 0,3,4
 603 397 603 397 580 418 c 128,-1,5
 557 439 557 439 523 439 c 0,6,7
 493 439 493 439 471.5 416 c 128,-1,8
 450 393 450 393 450 360 c 0,9,10
 450 318 450 318 469.5 281 c 128,-1,11
 489 244 489 244 523 220 c 1,0,1
310 100 m 0,12,13
 353 100 353 100 395.5 117 c 128,-1,14
 438 134 438 134 477 166 c 1,15,16
 431 212 431 212 407.5 262 c 128,-1,17
 384 312 384 312 384 360 c 0,18,19
 384 415 384 415 413.5 456.5 c 128,-1,20
 443 498 443 498 490 506 c 1,21,-1
 490 606 l 1,22,-1
 170 606 l 1,23,24
 145 585 145 585 131 559 c 128,-1,25
 117 533 117 533 117 506 c 0,26,27
 117 467 117 467 152.5 440 c 128,-1,28
 188 413 188 413 237 413 c 2,29,-1
 310 413 l 1,30,-1
 310 346 l 1,31,-1
 257 346 l 2,32,33
 213 346 213 346 181.5 309 c 128,-1,34
 150 272 150 272 150 220 c 0,35,36
 150 170 150 170 197 135 c 128,-1,37
 244 100 244 100 310 100 c 0,12,13
310 33 m 0,38,39
 217 33 217 33 150.5 87.5 c 128,-1,40
 84 142 84 142 84 220 c 0,41,42
 84 268 84 268 103.5 308.5 c 128,-1,43
 123 349 123 349 157 373 c 1,44,45
 108 395 108 395 79.5 431 c 128,-1,46
 51 467 51 467 51 506 c 0,47,48
 51 539 51 539 61.5 566 c 128,-1,49
 72 593 72 593 91 606 c 1,50,-1
 -13 606 l 1,51,-1
 -13 666 l 1,52,-1
 723 666 l 1,53,-1
 723 606 l 1,54,-1
 557 606 l 1,55,-1
 557 506 l 1,56,57
 606 497 606 497 638 457.5 c 128,-1,58
 670 418 670 418 670 366 c 0,59,60
 670 249 670 249 553.5 141 c 128,-1,61
 437 33 437 33 310 33 c 0,38,39
EndSplineSet
Validated: 1
EndChar

StartChar: jadeva
Encoding: 2332 2332 77
Width: 728
GlyphClass: 2
Flags: W
AnchorPoint: "DVAnchor3" 596 664 basechar 0
LayerCount: 2
Fore
SplineSet
309 80 m 0,0,1
 237 80 237 80 159 176.5 c 128,-1,2
 81 273 81 273 23 433 c 1,3,-1
 83 459 l 1,4,5
 134 317 134 317 196 231.5 c 128,-1,6
 258 146 258 146 309 146 c 0,7,8
 342 146 342 146 365.5 171.5 c 128,-1,9
 389 197 389 197 389 233 c 0,10,11
 389 290 389 290 359.5 350.5 c 128,-1,12
 330 411 330 411 276 466 c 1,13,-1
 562 466 l 1,14,-1
 562 606 l 1,15,-1
 -13 606 l 1,16,-1
 -13 666 l 1,17,-1
 742 666 l 1,18,-1
 742 606 l 1,19,-1
 629 606 l 1,20,-1
 629 0 l 1,21,-1
 562 0 l 1,22,-1
 562 399 l 1,23,-1
 402 399 l 1,24,25
 429 362 429 362 442 319.5 c 128,-1,26
 455 277 455 277 455 233 c 0,27,28
 455 169 455 169 412.5 124.5 c 128,-1,29
 370 80 370 80 309 80 c 0,0,1
EndSplineSet
Validated: 1
EndChar

StartChar: jhadeva
Encoding: 2333 2333 78
Width: 731
GlyphClass: 2
Flags: W
AnchorPoint: "DVAnchor3" 600 664 basechar 0
LayerCount: 2
Fore
SplineSet
478 306 m 4,0,1
 493 306 493 306 515 313 c 132,-1,2
 537 320 537 320 565 333 c 5,3,-1
 565 606 l 5,4,-1
 378 606 l 5,5,-1
 378 446 l 5,6,-1
 145 446 l 6,7,8
 132 446 132 446 122 440 c 132,-1,9
 112 434 112 434 112 426 c 4,10,11
 112 401 112 401 142 363.5 c 132,-1,12
 172 326 172 326 192 326 c 132,-1,13
 212 326 212 326 248.5 339.5 c 132,-1,14
 285 353 285 353 305 353 c 4,15,16
 324 353 324 353 341 347.5 c 132,-1,17
 358 342 358 342 372 333 c 4,18,19
 390 320 390 320 417.5 313 c 132,-1,20
 445 306 445 306 478 306 c 4,0,1
318 -47 m 5,21,22
 274 -27 274 -27 237.5 -1.5 c 132,-1,23
 201 24 201 24 172 53 c 5,24,25
 120 53 120 53 82.5 76.5 c 132,-1,26
 45 100 45 100 45 133 c 4,27,28
 45 156 45 156 60.5 171 c 132,-1,29
 76 186 76 186 99 186 c 4,30,31
 127 186 127 186 155.5 169 c 132,-1,32
 184 152 184 152 205 120 c 5,33,34
 262 130 262 130 300 165.5 c 132,-1,35
 338 201 338 201 338 246 c 4,36,37
 338 262 338 262 328 274 c 132,-1,38
 318 286 318 286 305 286 c 4,39,40
 285 286 285 286 248.5 273 c 132,-1,41
 212 260 212 260 192 260 c 4,42,43
 156 260 156 260 100.5 322.5 c 132,-1,44
 45 385 45 385 45 426 c 4,45,46
 45 462 45 462 74.5 487.5 c 132,-1,47
 104 513 104 513 145 513 c 6,48,-1
 312 513 l 5,49,-1
 312 606 l 5,50,-1
 -13 606 l 5,51,-1
 -13 666 l 5,52,-1
 744 666 l 5,53,-1
 744 606 l 5,54,-1
 631 606 l 5,55,-1
 631 0 l 5,56,-1
 565 0 l 5,57,-1
 565 266 l 5,58,59
 543 257 543 257 521 251.5 c 132,-1,60
 499 246 499 246 478 246 c 4,61,62
 459 246 459 246 441 249.5 c 132,-1,63
 423 253 423 253 405 260 c 5,64,65
 405 185 405 185 361 136 c 132,-1,66
 317 87 317 87 238 73 c 5,67,68
 272 45 272 45 300.5 26.5 c 132,-1,69
 329 8 329 8 352 0 c 5,70,-1
 318 -47 l 5,21,22
EndSplineSet
Validated: 1
Substitution2: "LocalizedNpFormslookup2 subtable" jhadeva.np
EndChar

StartChar: nyadeva
Encoding: 2334 2334 79
Width: 737
GlyphClass: 2
Flags: W
AnchorPoint: "DVAnchor3" 603 664 basechar 0
LayerCount: 2
Fore
SplineSet
218 120 m 0,0,1
 166 120 166 120 113 153 c 128,-1,2
 60 186 60 186 19 246 c 1,3,-1
 65 293 l 1,4,5
 93 244 93 244 134.5 215 c 128,-1,6
 176 186 176 186 218 186 c 0,7,8
 270 186 270 186 307.5 225.5 c 128,-1,9
 345 265 345 265 345 320 c 0,10,11
 345 366 345 366 313.5 399.5 c 128,-1,12
 282 433 282 433 238 433 c 0,13,14
 206 433 206 433 176 419 c 128,-1,15
 146 405 146 405 125 380 c 1,16,-1
 79 433 l 1,17,18
 111 465 111 465 152 482 c 128,-1,19
 193 499 193 499 238 499 c 0,20,21
 298 499 298 499 346.5 460 c 128,-1,22
 395 421 395 421 411 360 c 1,23,24
 419 350 419 350 436.5 345 c 128,-1,25
 454 340 454 340 478 340 c 0,26,27
 507 340 507 340 531 346.5 c 128,-1,28
 555 353 555 353 571 366 c 1,29,-1
 571 606 l 1,30,-1
 -13 606 l 1,31,-1
 -13 666 l 1,32,-1
 751 666 l 1,33,-1
 751 606 l 1,34,-1
 638 606 l 1,35,-1
 638 0 l 1,36,-1
 571 0 l 1,37,-1
 571 293 l 1,38,39
 545 284 545 284 521 278.5 c 128,-1,40
 497 273 497 273 478 273 c 0,41,42
 462 273 462 273 445.5 278.5 c 128,-1,43
 429 284 429 284 411 293 c 1,44,45
 398 218 398 218 343.5 169 c 128,-1,46
 289 120 289 120 218 120 c 0,0,1
EndSplineSet
Validated: 1
EndChar

StartChar: ttadeva
Encoding: 2335 2335 80
Width: 565
GlyphClass: 2
Flags: W
AnchorPoint: "DVAnchor3" 421 664 basechar 0
AnchorPoint: "DVAnchor0" 324 45 basechar 0
LayerCount: 2
Fore
SplineSet
325 13 m 0,0,1
 209 13 209 13 127 95 c 128,-1,2
 45 177 45 177 45 293 c 0,3,4
 45 368 45 368 91.5 420.5 c 128,-1,5
 138 473 138 473 205 473 c 2,6,-1
 385 473 l 1,7,-1
 385 606 l 1,8,-1
 -13 606 l 1,9,-1
 -13 666 l 1,10,-1
 579 666 l 1,11,-1
 579 606 l 1,12,-1
 451 606 l 1,13,-1
 451 406 l 1,14,-1
 205 406 l 2,15,16
 166 406 166 406 139 373 c 128,-1,17
 112 340 112 340 112 293 c 0,18,19
 112 205 112 205 174.5 142.5 c 128,-1,20
 237 80 237 80 325 80 c 0,21,22
 381 80 381 80 427 105 c 128,-1,23
 473 130 473 130 498 173 c 1,24,-1
 551 127 l 1,25,26
 521 75 521 75 460 44 c 128,-1,27
 399 13 399 13 325 13 c 0,0,1
EndSplineSet
Validated: 1
EndChar

StartChar: tthadeva
Encoding: 2336 2336 81
Width: 580
GlyphClass: 2
Flags: W
AnchorPoint: "DVAnchor3" 422 664 basechar 0
AnchorPoint: "DVAnchor0" 316 39 basechar 0
LayerCount: 2
Fore
SplineSet
324 7 m 0,0,1
 220 7 220 7 132 96.5 c 128,-1,2
 44 186 44 186 44 293 c 0,3,4
 44 370 44 370 94.5 424.5 c 128,-1,5
 145 479 145 479 217 479 c 2,6,-1
 384 479 l 1,7,-1
 384 606 l 1,8,-1
 -13 606 l 1,9,-1
 -13 666 l 1,10,-1
 594 666 l 1,11,-1
 594 606 l 1,12,-1
 450 606 l 1,13,-1
 450 413 l 1,14,-1
 217 413 l 2,15,16
 173 413 173 413 142 377.5 c 128,-1,17
 111 342 111 342 111 293 c 0,18,19
 111 212 111 212 178 142.5 c 128,-1,20
 245 73 245 73 324 73 c 0,21,22
 381 73 381 73 422 115.5 c 128,-1,23
 463 158 463 158 463 220 c 0,24,25
 463 257 463 257 442.5 295.5 c 128,-1,26
 422 334 422 334 384 366 c 1,27,-1
 437 406 l 1,28,29
 481 369 481 369 505.5 320.5 c 128,-1,30
 530 272 530 272 530 220 c 0,31,32
 530 132 530 132 469.5 69.5 c 128,-1,33
 409 7 409 7 324 7 c 0,0,1
EndSplineSet
Validated: 1
EndChar

StartChar: ddadeva
Encoding: 2337 2337 82
Width: 631
GlyphClass: 2
Flags: W
AnchorPoint: "DVAnchor3" 495 664 basechar 0
AnchorPoint: "DVAnchor0" 378 45 basechar 0
LayerCount: 2
Fore
SplineSet
385 13 m 0,0,1
 280 13 280 13 180.5 92.5 c 128,-1,2
 81 172 81 172 19 306 c 1,3,-1
 72 340 l 1,4,5
 128 221 128 221 212.5 150.5 c 128,-1,6
 297 80 297 80 385 80 c 0,7,8
 439 80 439 80 478.5 121 c 128,-1,9
 518 162 518 162 518 220 c 0,10,11
 518 236 518 236 508 248 c 128,-1,12
 498 260 498 260 485 260 c 0,13,14
 463 260 463 260 424.5 246.5 c 128,-1,15
 386 233 386 233 365 233 c 0,16,17
 314 233 314 233 253 297 c 128,-1,18
 192 361 192 361 192 413 c 0,19,20
 192 449 192 449 217 474 c 128,-1,21
 242 499 242 499 278 499 c 2,22,-1
 458 499 l 1,23,-1
 458 606 l 1,24,-1
 -13 606 l 1,25,-1
 -13 666 l 1,26,-1
 644 666 l 1,27,-1
 644 606 l 1,28,-1
 525 606 l 1,29,-1
 525 433 l 1,30,-1
 278 433 l 2,31,32
 270 433 270 433 264 427 c 128,-1,33
 258 421 258 421 258 413 c 0,34,35
 258 385 258 385 298 342.5 c 128,-1,36
 338 300 338 300 365 300 c 0,37,38
 386 300 386 300 424.5 313 c 128,-1,39
 463 326 463 326 485 326 c 0,40,41
 526 326 526 326 555.5 295 c 128,-1,42
 585 264 585 264 585 220 c 0,43,44
 585 134 585 134 526 73.5 c 128,-1,45
 467 13 467 13 385 13 c 0,0,1
EndSplineSet
Validated: 1
EndChar

StartChar: ddhadeva
Encoding: 2338 2338 83
Width: 579
GlyphClass: 2
Flags: W
AnchorPoint: "DVAnchor3" 428 664 basechar 0
AnchorPoint: "DVAnchor0" 332 47 basechar 0
LayerCount: 2
Fore
SplineSet
395 80 m 1,0,1
 430 87 430 87 452.5 114.5 c 128,-1,2
 475 142 475 142 475 180 c 0,3,4
 475 208 475 208 456 227 c 128,-1,5
 437 246 437 246 409 246 c 0,6,7
 384 246 384 246 366.5 229 c 128,-1,8
 349 212 349 212 349 186 c 0,9,10
 349 154 349 154 361 126.5 c 128,-1,11
 373 99 373 99 395 80 c 1,0,1
-13 606 m 1,12,-1
 -13 666 l 1,13,-1
 593 666 l 1,14,-1
 593 606 l 1,15,-1
 455 606 l 1,16,-1
 455 406 l 1,17,-1
 196 406 l 2,18,19
 160 406 160 406 134.5 375 c 128,-1,20
 109 344 109 344 109 300 c 0,21,22
 109 222 109 222 178.5 151 c 128,-1,23
 248 80 248 80 329 73 c 1,24,25
 306 92 306 92 294 122 c 128,-1,26
 282 152 282 152 282 186 c 0,27,28
 282 238 282 238 319.5 275.5 c 128,-1,29
 357 313 357 313 409 313 c 0,30,31
 463 313 463 313 502.5 273.5 c 128,-1,32
 542 234 542 234 542 180 c 0,33,34
 542 111 542 111 479.5 62 c 128,-1,35
 417 13 417 13 329 13 c 0,36,37
 222 13 222 13 132.5 103 c 128,-1,38
 43 193 43 193 43 300 c 0,39,40
 43 372 43 372 87.5 422.5 c 128,-1,41
 132 473 132 473 196 473 c 2,42,-1
 389 473 l 1,43,-1
 389 606 l 1,44,-1
 -13 606 l 1,12,-1
EndSplineSet
Validated: 1
EndChar

StartChar: nnadeva
Encoding: 2339 2339 84
Width: 669
GlyphClass: 2
Flags: W
AnchorPoint: "DVAnchor3" 540 664 basechar 0
AnchorPoint: "DVAnchor0" 529 29 basechar 0
LayerCount: 2
Fore
SplineSet
224 226 m 0,0,1
 260 226 260 226 285 255.5 c 128,-1,2
 310 285 310 285 310 326 c 2,3,-1
 310 606 l 1,4,-1
 130 606 l 1,5,-1
 130 326 l 2,6,7
 130 285 130 285 157.5 255.5 c 128,-1,8
 185 226 185 226 224 226 c 0,0,1
224 160 m 0,9,10
 157 160 157 160 110.5 208.5 c 128,-1,11
 64 257 64 257 64 326 c 2,12,-1
 64 606 l 1,13,-1
 -13 606 l 1,14,-1
 -13 666 l 1,15,-1
 683 666 l 1,16,-1
 683 606 l 1,17,-1
 570 606 l 1,18,-1
 570 0 l 1,19,-1
 503 0 l 1,20,-1
 503 606 l 1,21,-1
 377 606 l 1,22,-1
 377 326 l 2,23,24
 377 257 377 257 331.5 208.5 c 128,-1,25
 286 160 286 160 224 160 c 0,9,10
EndSplineSet
Validated: 1
EndChar

StartChar: tadeva
Encoding: 2340 2340 85
Width: 608
GlyphClass: 2
Flags: W
AnchorPoint: "DVAnchor3" 478 664 basechar 0
LayerCount: 2
Fore
SplineSet
43 326 m 0,0,1
 43 390 43 390 84 434.5 c 128,-1,2
 125 479 125 479 182 479 c 2,3,-1
 442 479 l 1,4,-1
 442 606 l 1,5,-1
 -13 606 l 1,6,-1
 -13 666 l 1,7,-1
 622 666 l 1,8,-1
 622 606 l 1,9,-1
 509 606 l 1,10,-1
 509 0 l 1,11,-1
 442 0 l 1,12,-1
 442 413 l 1,13,-1
 182 413 l 2,14,15
 152 413 152 413 130.5 387.5 c 128,-1,16
 109 362 109 362 109 326 c 0,17,18
 109 262 109 262 154.5 189 c 128,-1,19
 200 116 200 116 282 47 c 1,20,-1
 242 0 l 1,21,22
 148 80 148 80 95.5 165 c 128,-1,23
 43 250 43 250 43 326 c 0,0,1
EndSplineSet
Validated: 1
EndChar

StartChar: thadeva
Encoding: 2341 2341 86
Width: 685
GlyphClass: 2
Flags: W
AnchorPoint: "DVAnchor3" 555 664 basechar 0
LayerCount: 2
Fore
SplineSet
300 133 m 0,0,1
 205 133 205 133 131 199 c 128,-1,2
 57 265 57 265 40 366 c 1,3,4
 51 362 51 362 73.5 361 c 128,-1,5
 96 360 96 360 140 360 c 0,6,7
 212 360 212 360 262.5 401 c 128,-1,8
 313 442 313 442 313 499 c 0,9,10
 313 549 313 549 281.5 584 c 128,-1,11
 250 619 250 619 206 619 c 0,12,13
 168 619 168 619 140.5 598 c 128,-1,14
 113 577 113 577 113 546 c 0,15,16
 113 521 113 521 136.5 503.5 c 128,-1,17
 160 486 160 486 193 486 c 1,18,-1
 193 419 l 1,19,20
 127 419 127 419 87 454 c 128,-1,21
 47 489 47 489 47 546 c 128,-1,22
 47 603 47 603 93.5 644.5 c 128,-1,23
 140 686 140 686 206 686 c 0,24,25
 278 686 278 686 329 631.5 c 128,-1,26
 380 577 380 577 380 499 c 0,27,28
 380 414 380 414 308 353.5 c 128,-1,29
 236 293 236 293 133 293 c 1,30,31
 153 250 153 250 198.5 225 c 128,-1,32
 244 200 244 200 300 200 c 0,33,34
 354 200 354 200 411.5 233 c 128,-1,35
 469 266 469 266 519 326 c 1,36,-1
 519 606 l 1,37,-1
 453 606 l 1,38,-1
 453 666 l 1,39,-1
 699 666 l 1,40,-1
 699 606 l 1,41,-1
 586 606 l 1,42,-1
 586 0 l 1,43,-1
 519 0 l 1,44,-1
 519 240 l 1,45,46
 469 189 469 189 411.5 161 c 128,-1,47
 354 133 354 133 300 133 c 0,0,1
EndSplineSet
Validated: 1
EndChar

StartChar: dadeva
Encoding: 2342 2342 87
Width: 541
GlyphClass: 2
Flags: W
AnchorPoint: "DVAnchor3" 417 666 basechar 0
AnchorPoint: "DVAnchor0" 458 7 basechar 0
LayerCount: 2
Fore
SplineSet
-21 606 m 1,0,-1
 -21 666 l 1,1,-1
 555 666 l 1,2,-1
 555 606 l 1,3,-1
 449 606 l 1,4,-1
 449 433 l 1,5,-1
 189 433 l 2,6,7
 150 433 150 433 123 405.5 c 128,-1,8
 96 378 96 378 96 340 c 0,9,10
 96 268 96 268 172 217 c 128,-1,11
 248 166 248 166 356 166 c 1,12,13
 356 213 356 213 377 246.5 c 128,-1,14
 398 280 398 280 429 280 c 0,15,16
 451 280 451 280 466.5 264.5 c 128,-1,17
 482 249 482 249 482 226 c 0,18,19
 482 200 482 200 466 173 c 128,-1,20
 450 146 450 146 422 127 c 1,21,-1
 495 0 l 1,22,-1
 435 -27 l 1,23,-1
 362 107 l 1,24,25
 224 107 224 107 126.5 175.5 c 128,-1,26
 29 244 29 244 29 340 c 0,27,28
 29 406 29 406 75.5 452.5 c 128,-1,29
 122 499 122 499 189 499 c 2,30,-1
 382 499 l 1,31,-1
 382 606 l 1,32,-1
 -21 606 l 1,0,-1
EndSplineSet
Validated: 1
EndChar

StartChar: dhadeva
Encoding: 2343 2343 88
Width: 648
GlyphClass: 2
Flags: W
AnchorPoint: "DVAnchor3" 520 664 basechar 0
LayerCount: 2
Fore
SplineSet
276 113 m 0,0,1
 201 113 201 113 148.5 154.5 c 128,-1,2
 96 196 96 196 96 253 c 0,3,4
 96 289 96 289 110 319 c 128,-1,5
 124 349 124 349 149 366 c 1,6,7
 96 403 96 403 66 451 c 128,-1,8
 36 499 36 499 36 546 c 0,9,10
 36 603 36 603 75.5 644.5 c 128,-1,11
 115 686 115 686 169 686 c 0,12,13
 226 686 226 686 261 655.5 c 128,-1,14
 296 625 296 625 296 573 c 0,15,16
 296 529 296 529 260.5 497.5 c 128,-1,17
 225 466 225 466 176 466 c 1,18,-1
 176 533 l 1,19,20
 198 533 198 533 213.5 545 c 128,-1,21
 229 557 229 557 229 573 c 0,22,23
 229 591 229 591 211.5 605 c 128,-1,24
 194 619 194 619 169 619 c 0,25,26
 141 619 141 619 122 598 c 128,-1,27
 103 577 103 577 103 546 c 0,28,29
 103 507 103 507 129.5 470 c 128,-1,30
 156 433 156 433 202 406 c 1,31,32
 224 415 224 415 249 420.5 c 128,-1,33
 274 426 274 426 302 426 c 2,34,-1
 342 426 l 1,35,-1
 382 360 l 1,36,-1
 309 360 l 2,37,38
 248 360 248 360 205 328.5 c 128,-1,39
 162 297 162 297 162 253 c 0,40,41
 162 222 162 222 195.5 201 c 128,-1,42
 229 180 229 180 276 180 c 0,43,44
 329 180 329 180 383.5 215 c 128,-1,45
 438 250 438 250 482 313 c 1,46,-1
 482 606 l 1,47,-1
 336 606 l 1,48,-1
 336 666 l 1,49,-1
 662 666 l 1,50,-1
 662 606 l 1,51,-1
 549 606 l 1,52,-1
 549 0 l 1,53,-1
 482 0 l 1,54,-1
 482 220 l 1,55,56
 439 169 439 169 385.5 141 c 128,-1,57
 332 113 332 113 276 113 c 0,0,1
EndSplineSet
Validated: 1
EndChar

StartChar: nadeva
Encoding: 2344 2344 89
Width: 585
GlyphClass: 2
Flags: W
AnchorPoint: "DVAnchor3" 455 664 basechar 0
LayerCount: 2
Fore
SplineSet
20 399 m 0,0,1
 20 413 20 413 34 423 c 128,-1,2
 48 433 48 433 67 433 c 2,3,-1
 419 433 l 1,4,-1
 419 606 l 1,5,-1
 -13 606 l 1,6,-1
 -13 666 l 1,7,-1
 599 666 l 1,8,-1
 599 606 l 1,9,-1
 486 606 l 1,10,-1
 486 0 l 1,11,-1
 419 0 l 1,12,-1
 419 366 l 1,13,-1
 226 366 l 2,14,15
 210 366 210 366 198 358 c 128,-1,16
 186 350 186 350 186 340 c 2,17,-1
 186 273 l 2,18,19
 186 257 186 257 176 245 c 128,-1,20
 166 233 166 233 153 233 c 0,21,22
 130 233 130 233 75 302.5 c 128,-1,23
 20 372 20 372 20 399 c 0,0,1
EndSplineSet
Validated: 1
EndChar

StartChar: nnnadeva
Encoding: 2345 2345 90
Width: 585
GlyphClass: 2
Flags: W
AnchorPoint: "DVAnchor3" 452 666 basechar 0
LayerCount: 2
Fore
SplineSet
226 -7 m 1,0,-1
 173 40 l 1,1,-1
 226 93 l 1,2,-1
 280 40 l 1,3,-1
 226 -7 l 1,0,-1
EndSplineSet
Refer: 89 2344 N 1 0 0 1 0 0 2
LCarets2: 1 0 
Ligature2: "NuktaFormslookup5 subtable" nadeva nuktadeva
EndChar

StartChar: padeva
Encoding: 2346 2346 91
Width: 536
GlyphClass: 2
Flags: W
AnchorPoint: "DVAnchor3" 404 664 basechar 0
LayerCount: 2
Fore
SplineSet
237 260 m 0,0,1
 278 260 278 260 314 285 c 128,-1,2
 350 310 350 310 370 353 c 1,3,-1
 370 606 l 1,4,-1
 124 606 l 1,5,-1
 124 366 l 2,6,7
 124 322 124 322 157 291 c 128,-1,8
 190 260 190 260 237 260 c 0,0,1
57 366 m 2,9,-1
 57 606 l 1,10,-1
 -13 606 l 1,11,-1
 -13 666 l 1,12,-1
 550 666 l 1,13,-1
 550 606 l 1,14,-1
 437 606 l 1,15,-1
 437 0 l 1,16,-1
 370 0 l 1,17,-1
 370 253 l 1,18,19
 341 224 341 224 306.5 208.5 c 128,-1,20
 272 193 272 193 237 193 c 0,21,22
 162 193 162 193 109.5 243.5 c 128,-1,23
 57 294 57 294 57 366 c 2,9,-1
EndSplineSet
Validated: 1
EndChar

StartChar: phadeva
Encoding: 2347 2347 92
Width: 774
GlyphClass: 2
Flags: W
AnchorPoint: "DVAnchor3" 386 664 basechar 0
AnchorPoint: "DVAnchor0" 391 23 basechar 0
LayerCount: 2
Fore
SplineSet
221 280 m 0,0,1
 260 280 260 280 295 299 c 128,-1,2
 330 318 330 318 354 353 c 1,3,-1
 354 606 l 1,4,-1
 121 606 l 1,5,-1
 121 373 l 2,6,7
 121 334 121 334 150.5 307 c 128,-1,8
 180 280 180 280 221 280 c 0,0,1
55 373 m 2,9,-1
 55 606 l 1,10,-1
 -13 606 l 1,11,-1
 -13 666 l 1,12,-1
 788 666 l 1,13,-1
 788 606 l 1,14,-1
 421 606 l 1,15,-1
 421 419 l 1,16,17
 447 451 447 451 484 468.5 c 128,-1,18
 521 486 521 486 561 486 c 0,19,20
 630 486 630 486 678.5 431.5 c 128,-1,21
 727 377 727 377 727 300 c 0,22,23
 727 240 727 240 704.5 182 c 128,-1,24
 682 124 682 124 640 73 c 1,25,-1
 581 107 l 1,26,27
 619 145 619 145 639.5 195 c 128,-1,28
 660 245 660 245 660 300 c 0,29,30
 660 349 660 349 631 384 c 128,-1,31
 602 419 602 419 561 419 c 0,32,33
 526 419 526 419 489.5 398.5 c 128,-1,34
 453 378 453 378 421 340 c 1,35,-1
 421 0 l 1,36,-1
 354 0 l 1,37,-1
 354 266 l 1,38,39
 329 241 329 241 294.5 227 c 128,-1,40
 260 213 260 213 221 213 c 0,41,42
 152 213 152 213 103.5 259.5 c 128,-1,43
 55 306 55 306 55 373 c 2,9,-1
EndSplineSet
Validated: 1
EndChar

StartChar: badeva
Encoding: 2348 2348 93
Width: 537
GlyphClass: 2
Flags: W
AnchorPoint: "DVAnchor3" 407 666 basechar 0
LayerCount: 2
Fore
SplineSet
225 213 m 0,0,1
 249 213 249 213 269 219.5 c 128,-1,2
 289 226 289 226 305 240 c 1,3,-1
 125 386 l 1,4,5
 116 374 116 374 110.5 357.5 c 128,-1,6
 105 341 105 341 105 320 c 0,7,8
 105 276 105 276 140.5 244.5 c 128,-1,9
 176 213 176 213 225 213 c 0,0,1
39 320 m 0,10,11
 39 399 39 399 97.5 456 c 128,-1,12
 156 513 156 513 238 513 c 0,13,14
 264 513 264 513 286 507.5 c 128,-1,15
 308 502 308 502 325 493 c 1,16,-1
 305 439 l 1,17,18
 290 446 290 446 273.5 449.5 c 128,-1,19
 257 453 257 453 238 453 c 0,20,21
 209 453 209 453 188.5 445.5 c 128,-1,22
 168 438 168 438 158 426 c 1,23,-1
 352 280 l 1,24,-1
 372 306 l 1,25,-1
 372 606 l 1,26,-1
 -13 606 l 1,27,-1
 -13 666 l 1,28,-1
 551 666 l 1,29,-1
 551 606 l 1,30,-1
 438 606 l 1,31,-1
 438 0 l 1,32,-1
 372 0 l 1,33,-1
 372 213 l 1,34,35
 340 181 340 181 302 163.5 c 128,-1,36
 264 146 264 146 225 146 c 0,37,38
 148 146 148 146 93.5 197 c 128,-1,39
 39 248 39 248 39 320 c 0,10,11
EndSplineSet
Validated: 1
EndChar

StartChar: bhadeva
Encoding: 2349 2349 94
Width: 657
GlyphClass: 2
Flags: W
AnchorPoint: "DVAnchor3" 526 664 basechar 0
LayerCount: 2
Fore
SplineSet
119 326 m 0,0,1
 119 337 119 337 128.5 345 c 128,-1,2
 138 353 138 353 152 353 c 2,3,-1
 205 353 l 1,4,-1
 205 546 l 2,5,6
 205 574 205 574 187.5 593.5 c 128,-1,7
 170 613 170 613 145 613 c 128,-1,8
 120 613 120 613 102.5 599 c 128,-1,9
 85 585 85 585 85 566 c 0,10,11
 85 543 85 543 102.5 528 c 128,-1,12
 120 513 120 513 145 513 c 1,13,-1
 145 446 l 1,14,15
 93 446 93 446 56 481.5 c 128,-1,16
 19 517 19 517 19 566 c 0,17,18
 19 613 19 613 56 646 c 128,-1,19
 93 679 93 679 145 679 c 128,-1,20
 197 679 197 679 234.5 640 c 128,-1,21
 272 601 272 601 272 546 c 2,22,-1
 272 353 l 1,23,-1
 491 353 l 1,24,-1
 491 606 l 1,25,-1
 318 606 l 1,26,-1
 318 666 l 1,27,-1
 671 666 l 1,28,-1
 671 606 l 1,29,-1
 558 606 l 1,30,-1
 558 0 l 1,31,-1
 491 0 l 1,32,-1
 491 286 l 1,33,-1
 272 286 l 1,34,-1
 272 233 l 2,35,36
 272 222 272 222 262 214 c 128,-1,37
 252 206 252 206 238 206 c 0,38,39
 218 206 218 206 168.5 256 c 128,-1,40
 119 306 119 306 119 326 c 0,0,1
EndSplineSet
Validated: 1
EndChar

StartChar: madeva
Encoding: 2350 2350 95
Width: 579
GlyphClass: 2
Flags: W
AnchorPoint: "DVAnchor3" 447 664 basechar 0
LayerCount: 2
Fore
SplineSet
173 386 m 1,0,-1
 413 386 l 1,1,-1
 413 606 l 1,2,-1
 173 606 l 1,3,-1
 173 386 l 1,0,-1
-13 606 m 1,4,-1
 -13 666 l 1,5,-1
 593 666 l 1,6,-1
 593 606 l 1,7,-1
 479 606 l 1,8,-1
 479 0 l 1,9,-1
 413 0 l 1,10,-1
 413 320 l 1,11,-1
 173 320 l 1,12,-1
 173 273 l 2,13,14
 173 257 173 257 167 245 c 128,-1,15
 161 233 161 233 153 233 c 0,16,17
 130 233 130 233 75 283 c 128,-1,18
 20 333 20 333 20 353 c 0,19,20
 20 366 20 366 30 376 c 128,-1,21
 40 386 40 386 53 386 c 2,22,-1
 107 386 l 1,23,-1
 107 606 l 1,24,-1
 -13 606 l 1,4,-1
EndSplineSet
Validated: 1
EndChar

StartChar: yadeva
Encoding: 2351 2351 96
Width: 596
GlyphClass: 2
Flags: W
AnchorPoint: "DVAnchor3" 464 664 basechar 0
AnchorPoint: "DVAnchor0" 466 26 basechar 0
LayerCount: 2
Fore
SplineSet
257 193 m 0,0,1
 309 193 309 193 355.5 221.5 c 128,-1,2
 402 250 402 250 430 300 c 1,3,-1
 430 606 l 1,4,-1
 204 606 l 1,5,6
 229 575 229 575 243 540.5 c 128,-1,7
 257 506 257 506 257 473 c 0,8,9
 257 415 257 415 211.5 370 c 128,-1,10
 166 325 166 325 97 313 c 1,11,12
 107 261 107 261 152 227 c 128,-1,13
 197 193 197 193 257 193 c 0,0,1
-13 606 m 1,14,-1
 -13 666 l 1,15,-1
 610 666 l 1,16,-1
 610 606 l 1,17,-1
 497 606 l 1,18,-1
 497 0 l 1,19,-1
 430 0 l 1,20,-1
 430 206 l 1,21,22
 391 168 391 168 346.5 147.5 c 128,-1,23
 302 127 302 127 257 127 c 0,24,25
 161 127 161 127 92.5 196.5 c 128,-1,26
 24 266 24 266 24 366 c 1,27,28
 100 366 100 366 145 395.5 c 128,-1,29
 190 425 190 425 190 473 c 0,30,31
 190 505 190 505 173 539.5 c 128,-1,32
 156 574 156 574 124 606 c 1,33,-1
 -13 606 l 1,14,-1
EndSplineSet
Validated: 1
EndChar

StartChar: radeva
Encoding: 2352 2352 97
Width: 436
GlyphClass: 2
Flags: W
AnchorPoint: "DVAnchor3" 331 664 basechar 0
LayerCount: 2
Fore
SplineSet
-13 606 m 1,0,-1
 -13 666 l 1,1,-1
 450 666 l 1,2,-1
 450 606 l 1,3,-1
 360 606 l 1,4,-1
 360 453 l 2,5,6
 360 391 360 391 318.5 348.5 c 128,-1,7
 277 306 277 306 220 306 c 0,8,9
 212 306 212 306 198.5 309.5 c 128,-1,10
 185 313 185 313 166 320 c 1,11,12
 209 245 209 245 267.5 176.5 c 128,-1,13
 326 108 326 108 399 47 c 1,14,-1
 360 0 l 1,15,16
 253 89 253 89 167 202.5 c 128,-1,17
 81 316 81 316 20 446 c 1,18,-1
 80 479 l 1,19,20
 97 431 97 431 135.5 402 c 128,-1,21
 174 373 174 373 220 373 c 0,22,23
 250 373 250 373 271.5 396 c 128,-1,24
 293 419 293 419 293 453 c 2,25,-1
 293 606 l 1,26,-1
 -13 606 l 1,0,-1
EndSplineSet
Validated: 1
EndChar

StartChar: rradeva
Encoding: 2353 2353 98
Width: 442
GlyphClass: 3
Flags: W
AnchorPoint: "DVAnchor3" 335 665 basechar 0
LayerCount: 2
Fore
SplineSet
125 -7 m 1,0,-1
 72 40 l 1,1,-1
 125 93 l 1,2,-1
 178 40 l 1,3,-1
 125 -7 l 1,0,-1
EndSplineSet
Refer: 97 2352 S 1 0 0 1 0 0 2
LCarets2: 1 0 
Ligature2: "NuktaFormslookup5 subtable" radeva nuktadeva
EndChar

StartChar: ladeva
Encoding: 2354 2354 99
Width: 727
GlyphClass: 2
Flags: W
AnchorPoint: "DVAnchor3" 597 664 basechar 0
LayerCount: 2
Fore
SplineSet
-13 606 m 1,0,-1
 -13 666 l 1,1,-1
 740 666 l 1,2,-1
 740 606 l 1,3,-1
 627 606 l 1,4,-1
 627 0 l 1,5,-1
 561 0 l 1,6,-1
 561 399 l 1,7,8
 503 399 503 399 453 347.5 c 128,-1,9
 403 296 403 296 381 213 c 1,10,-1
 321 233 l 1,11,12
 326 265 326 265 337 291 c 128,-1,13
 348 317 348 317 361 333 c 1,14,15
 340 365 340 365 308 382 c 128,-1,16
 276 399 276 399 241 399 c 0,17,18
 186 399 186 399 147 360 c 128,-1,19
 108 321 108 321 108 266 c 0,20,21
 108 206 108 206 168.5 147.5 c 128,-1,22
 229 89 229 89 328 53 c 1,23,-1
 301 -7 l 1,24,25
 184 36 184 36 112.5 111 c 128,-1,26
 41 186 41 186 41 266 c 0,27,28
 41 349 41 349 99.5 407.5 c 128,-1,29
 158 466 158 466 241 466 c 0,30,31
 290 466 290 466 334 446.5 c 128,-1,32
 378 427 378 427 407 393 c 1,33,34
 437 427 437 427 477 446.5 c 128,-1,35
 517 466 517 466 561 466 c 1,36,-1
 561 606 l 1,37,-1
 -13 606 l 1,0,-1
EndSplineSet
Validated: 1
Substitution2: "LocalizedMrForms_lookup0 subtable" ladeva.mr
EndChar

StartChar: lladeva
Encoding: 2355 2355 100
Width: 735
GlyphClass: 2
Flags: W
AnchorPoint: "DVAnchor3" 519 664 basechar 0
AnchorPoint: "DVAnchor0" 527 101 basechar 0
LayerCount: 2
Fore
SplineSet
523 133 m 0,0,1
 565 133 565 133 594 175.5 c 128,-1,2
 623 218 623 218 623 280 c 0,3,4
 623 337 623 337 594 378 c 128,-1,5
 565 419 565 419 523 419 c 0,6,7
 487 419 487 419 453 380 c 128,-1,8
 419 341 419 341 403 280 c 1,9,10
 427 213 427 213 460.5 173 c 128,-1,11
 494 133 494 133 523 133 c 0,0,1
224 140 m 0,12,13
 253 140 253 140 284.5 176.5 c 128,-1,14
 316 213 316 213 337 273 c 1,15,16
 320 338 320 338 288.5 378.5 c 128,-1,17
 257 419 257 419 224 419 c 0,18,19
 177 419 177 419 144 376.5 c 128,-1,20
 111 334 111 334 111 274 c 0,21,22
 111 218 111 218 144 179 c 128,-1,23
 177 140 177 140 224 140 c 0,12,13
-13 606 m 1,24,-1
 -13 666 l 1,25,-1
 748 666 l 1,26,-1
 748 606 l 1,27,-1
 550 606 l 1,28,-1
 550 479 l 1,29,30
 611 469 611 469 650.5 412.5 c 128,-1,31
 690 356 690 356 690 280 c 0,32,33
 690 194 690 194 641.5 133.5 c 128,-1,34
 593 73 593 73 523 73 c 0,35,36
 482 73 482 73 440 109 c 128,-1,37
 398 145 398 145 370 206 c 1,38,39
 342 145 342 145 302 109 c 128,-1,40
 262 73 262 73 224 73 c 0,41,42
 149 73 149 73 96.5 131.5 c 128,-1,43
 44 190 44 190 44 274 c 0,44,45
 44 360 44 360 96.5 419.5 c 128,-1,46
 149 479 149 479 224 479 c 0,47,48
 270 479 270 479 310 446.5 c 128,-1,49
 350 414 350 414 370 360 c 1,50,51
 389 409 389 409 419 441 c 128,-1,52
 449 473 449 473 483 479 c 1,53,-1
 483 606 l 1,54,-1
 -13 606 l 1,24,-1
EndSplineSet
Validated: 1
EndChar

StartChar: llladeva
Encoding: 2356 2356 101
Width: 733
GlyphClass: 2
Flags: W
AnchorPoint: "DVAnchor3" 515 664 basechar 0
AnchorPoint: "DVAnchor0" 553 98 basechar 0
LayerCount: 2
Fore
SplineSet
370 -20 m 1,0,-1
 317 33 l 1,1,-1
 370 87 l 1,2,-1
 423 33 l 1,3,-1
 370 -20 l 1,0,-1
EndSplineSet
Refer: 100 2355 S 1 0 0 1 0 0 2
LCarets2: 1 0 
Ligature2: "NuktaFormslookup5 subtable" lladeva nuktadeva
EndChar

StartChar: vadeva
Encoding: 2357 2357 102
Width: 543
GlyphClass: 2
Flags: W
AnchorPoint: "DVAnchor3" 410 665 basechar 0
LayerCount: 2
Fore
SplineSet
-13 606 m 1,0,-1
 -13 666 l 1,1,-1
 557 666 l 1,2,-1
 557 606 l 1,3,-1
 443 606 l 1,4,-1
 443 0 l 1,5,-1
 377 0 l 1,6,-1
 377 213 l 1,7,8
 350 181 350 181 313.5 163.5 c 128,-1,9
 277 146 277 146 237 146 c 0,10,11
 154 146 154 146 95.5 199 c 128,-1,12
 37 252 37 252 37 326 c 0,13,14
 37 401 37 401 95.5 453.5 c 128,-1,15
 154 506 154 506 237 506 c 0,16,17
 261 506 261 506 283 499.5 c 128,-1,18
 305 493 305 493 324 479 c 1,19,-1
 290 426 l 1,20,21
 278 435 278 435 265 440.5 c 128,-1,22
 252 446 252 446 237 446 c 0,23,24
 182 446 182 446 143 411 c 128,-1,25
 104 376 104 376 104 326 c 0,26,27
 104 280 104 280 143 246.5 c 128,-1,28
 182 213 182 213 237 213 c 0,29,30
 276 213 276 213 313 239.5 c 128,-1,31
 350 266 350 266 377 313 c 1,32,-1
 377 606 l 1,33,-1
 -13 606 l 1,0,-1
EndSplineSet
Validated: 1
EndChar

StartChar: shadeva
Encoding: 2358 2358 103
Width: 676
GlyphClass: 2
Flags: W
AnchorPoint: "DVAnchor3" 546 664 basechar 0
LayerCount: 2
Fore
SplineSet
377 606 m 1,0,-1
 377 666 l 1,1,-1
 690 666 l 1,2,-1
 690 606 l 1,3,-1
 577 606 l 1,4,-1
 577 0 l 1,5,-1
 510 0 l 1,6,-1
 510 606 l 1,7,-1
 377 606 l 1,0,-1
197 453 m 0,8,9
 230 453 230 453 259 473 c 128,-1,10
 288 493 288 493 304 526 c 1,11,12
 289 565 289 565 263.5 589 c 128,-1,13
 238 613 238 613 210 613 c 0,14,15
 177 613 177 613 153.5 587.5 c 128,-1,16
 130 562 130 562 130 526 c 0,17,18
 130 495 130 495 149.5 474 c 128,-1,19
 169 453 169 453 197 453 c 0,8,9
330 0 m 1,20,-1
 31 253 l 1,21,-1
 64 300 l 1,22,23
 93 276 93 276 110 264.5 c 128,-1,24
 127 253 127 253 137 253 c 0,25,26
 212 253 212 253 264.5 311.5 c 128,-1,27
 317 370 317 370 317 453 c 1,28,29
 300 422 300 422 267 404 c 128,-1,30
 234 386 234 386 197 386 c 0,31,32
 142 386 142 386 103 427.5 c 128,-1,33
 64 469 64 469 64 526 c 0,34,35
 64 590 64 590 106.5 634.5 c 128,-1,36
 149 679 149 679 210 679 c 0,37,38
 282 679 282 679 333 612.5 c 128,-1,39
 384 546 384 546 384 453 c 0,40,41
 384 350 384 350 323 278 c 128,-1,42
 262 206 262 206 177 206 c 1,43,-1
 370 47 l 1,44,-1
 330 0 l 1,20,-1
EndSplineSet
Validated: 1
Substitution2: "LocalizedMrForms_lookup0 subtable" shadeva.mr
EndChar

StartChar: ssadeva
Encoding: 2359 2359 104
Width: 535
GlyphClass: 2
Flags: W
AnchorPoint: "DVAnchor3" 404 666 basechar 0
LayerCount: 2
Fore
SplineSet
369 386 m 1,0,-1
 369 606 l 1,1,-1
 136 606 l 1,2,-1
 369 386 l 1,0,-1
229 266 m 0,3,4
 270 266 270 266 306 278 c 128,-1,5
 342 290 342 290 369 313 c 1,6,-1
 123 539 l 1,7,-1
 123 373 l 2,8,9
 123 329 123 329 154 297.5 c 128,-1,10
 185 266 185 266 229 266 c 0,3,4
-13 606 m 1,11,-1
 -13 666 l 1,12,-1
 549 666 l 1,13,-1
 549 606 l 1,14,-1
 435 606 l 1,15,-1
 435 0 l 1,16,-1
 369 0 l 1,17,-1
 369 240 l 1,18,19
 341 220 341 220 305 210 c 128,-1,20
 269 200 269 200 229 200 c 0,21,22
 157 200 157 200 106.5 250.5 c 128,-1,23
 56 301 56 301 56 373 c 2,24,-1
 56 606 l 1,25,-1
 -13 606 l 1,11,-1
EndSplineSet
Validated: 1
EndChar

StartChar: sadeva
Encoding: 2360 2360 105
Width: 709
GlyphClass: 2
Flags: W
AnchorPoint: "DVAnchor3" 576 665 basechar 0
LayerCount: 2
Fore
SplineSet
-13 606 m 1,0,-1
 -13 666 l 1,1,-1
 723 666 l 1,2,-1
 723 606 l 1,3,-1
 610 606 l 1,4,-1
 610 0 l 1,5,-1
 543 0 l 1,6,-1
 543 320 l 1,7,-1
 259 320 l 1,8,9
 232 300 232 300 197 300 c 0,10,11
 189 300 189 300 181.5 302 c 128,-1,12
 174 304 174 304 170 306 c 1,13,-1
 370 27 l 1,14,-1
 317 -7 l 1,15,-1
 17 419 l 1,16,-1
 71 459 l 1,17,18
 92 414 92 414 120.5 387 c 128,-1,19
 149 360 149 360 177 360 c 128,-1,20
 205 360 205 360 224.5 379 c 128,-1,21
 244 398 244 398 244 426 c 2,22,-1
 244 606 l 1,23,-1
 -13 606 l 1,0,-1
304 386 m 1,24,-1
 543 386 l 1,25,-1
 543 606 l 1,26,-1
 310 606 l 1,27,-1
 310 426 l 2,28,29
 310 405 310 405 304 386 c 1,24,-1
EndSplineSet
Validated: 1
EndChar

StartChar: hadeva
Encoding: 2361 2361 106
Width: 527
GlyphClass: 2
Flags: W
AnchorPoint: "DVAnchor3" 401 666 basechar 0
AnchorPoint: "DVAnchor0" 335 2 basechar 0
LayerCount: 2
Fore
SplineSet
-13 606 m 1,0,-1
 -13 666 l 1,1,-1
 541 666 l 1,2,-1
 541 606 l 1,3,-1
 434 606 l 1,4,-1
 434 446 l 1,5,-1
 161 446 l 2,6,7
 148 446 148 446 138 440 c 128,-1,8
 128 434 128 434 128 426 c 0,9,10
 128 399 128 399 148 374 c 128,-1,11
 168 349 168 349 201 333 c 1,12,13
 222 342 222 342 247.5 347.5 c 128,-1,14
 273 353 273 353 301 353 c 0,15,16
 376 353 376 353 428.5 310.5 c 128,-1,17
 481 268 481 268 481 206 c 0,18,19
 481 172 481 172 467 143.5 c 128,-1,20
 453 115 453 115 427 100 c 1,21,-1
 374 146 l 1,22,23
 393 157 393 157 403.5 173 c 128,-1,24
 414 189 414 189 414 206 c 0,25,26
 414 240 414 240 381 263 c 128,-1,27
 348 286 348 286 301 286 c 0,28,29
 229 286 229 286 178.5 253 c 128,-1,30
 128 220 128 220 128 173 c 0,31,32
 128 112 128 112 214 69.5 c 128,-1,33
 300 27 300 27 421 27 c 1,34,-1
 407 -33 l 1,35,36
 264 -33 264 -33 162.5 27.5 c 128,-1,37
 61 88 61 88 61 173 c 0,38,39
 61 212 61 212 80.5 246 c 128,-1,40
 100 280 100 280 134 300 c 1,41,42
 100 329 100 329 80.5 362 c 128,-1,43
 61 395 61 395 61 426 c 0,44,45
 61 462 61 462 90.5 487.5 c 128,-1,46
 120 513 120 513 161 513 c 2,47,-1
 368 513 l 1,48,-1
 368 606 l 1,49,-1
 -13 606 l 1,0,-1
EndSplineSet
Validated: 1
EndChar

StartChar: oesigndeva
Encoding: 2362 2362 107
Width: 0
GlyphClass: 4
Flags: W
AnchorPoint: "DVAnchor3" -133 666 mark 0
LayerCount: 2
Fore
SplineSet
-163 666 m 1,0,-1
 -163 821 l 1,1,-1
 -101 821 l 1,2,-1
 -100 666 l 1,3,-1
 -163 666 l 1,0,-1
EndSplineSet
Validated: 1
EndChar

StartChar: ooesigndeva
Encoding: 2363 2363 108
Width: 266
GlyphClass: 2
Flags: W
LayerCount: 2
Fore
SplineSet
-13 606 m 1,0,-1
 -13 666 l 1,1,-1
 100 666 l 1,2,-1
 100 821 l 1,3,-1
 162 821 l 1,4,-1
 163 666 l 1,5,-1
 280 666 l 1,6,-1
 280 606 l 1,7,-1
 166 606 l 1,8,-1
 166 0 l 1,9,-1
 100 0 l 1,10,-1
 100 606 l 1,11,-1
 -13 606 l 1,0,-1
EndSplineSet
Validated: 1
EndChar

StartChar: nuktadeva
Encoding: 2364 2364 109
Width: 0
GlyphClass: 4
Flags: W
LayerCount: 2
Fore
SplineSet
-526 -93 m 1,0,-1
 -579 -47 l 1,1,-1
 -526 7 l 1,2,-1
 -473 -47 l 1,3,-1
 -526 -93 l 1,0,-1
EndSplineSet
Validated: 1
EndChar

StartChar: avagrahadeva
Encoding: 2365 2365 110
Width: 442
GlyphClass: 2
Flags: W
LayerCount: 2
Fore
SplineSet
245 5 m 0,0,1
 176 5 176 5 114.5 63 c 128,-1,2
 53 121 53 121 25 214 c 1,3,-1
 85 246 l 1,4,5
 108 170 108 170 152.5 123.5 c 128,-1,6
 197 77 197 77 245 77 c 0,7,8
 281 77 281 77 306.5 110.5 c 128,-1,9
 332 144 332 144 332 192 c 0,10,11
 332 236 332 236 294.5 284.5 c 128,-1,12
 257 333 257 333 192 376 c 1,13,14
 148 403 148 403 123.5 445 c 128,-1,15
 99 487 99 487 99 533 c 0,16,17
 99 582 99 582 140 617 c 128,-1,18
 181 652 181 652 238 652 c 2,19,-1
 398 652 l 1,20,-1
 398 585 l 1,21,-1
 238 585 l 2,22,23
 208 585 208 585 186.5 569 c 128,-1,24
 165 553 165 553 165 530 c 0,25,26
 165 498 165 498 199 457.5 c 128,-1,27
 233 417 233 417 292 378 c 0,28,29
 341 345 341 345 370 296 c 1,30,31
 398 246 398 246 398 192 c 0,32,33
 398 115 398 115 353.5 60 c 128,-1,34
 309 5 309 5 245 5 c 0,0,1
EndSplineSet
Validated: 1
EndChar

StartChar: aasigndeva
Encoding: 2366 2366 111
Width: 266
GlyphClass: 2
Flags: W
LayerCount: 2
Fore
SplineSet
-13 606 m 1,0,-1
 -13 666 l 1,1,-1
 280 666 l 1,2,-1
 280 606 l 1,3,-1
 166 606 l 1,4,-1
 166 0 l 1,5,-1
 100 0 l 1,6,-1
 100 606 l 1,7,-1
 -13 606 l 1,0,-1
EndSplineSet
Validated: 1
EndChar

StartChar: isigndeva
Encoding: 2367 2367 112
Width: 266
GlyphClass: 4
Flags: W
LayerCount: 2
Fore
SplineSet
-13 606 m 1,0,-1
 -13 666 l 1,1,-1
 100 666 l 1,2,3
 91 678 91 678 85.5 700 c 128,-1,4
 80 722 80 722 80 752 c 0,5,6
 80 832 80 832 142.5 888.5 c 128,-1,7
 205 945 205 945 293 945 c 0,8,9
 398 945 398 945 506 867 c 128,-1,10
 614 789 614 789 685 665 c 5,11,-1
 606 665 l 5,12,13
 550 761 550 761 463.5 823.5 c 128,-1,14
 377 886 377 886 293 886 c 0,15,16
 232 886 232 886 189 846.5 c 128,-1,17
 146 807 146 807 146 752 c 0,18,19
 146 722 146 722 151.5 700 c 128,-1,20
 157 678 157 678 166 666 c 1,21,-1
 280 666 l 1,22,-1
 280 606 l 1,23,-1
 166 606 l 1,24,-1
 166 0 l 1,25,-1
 100 0 l 1,26,-1
 100 606 l 1,27,-1
 -13 606 l 1,0,-1
EndSplineSet
Validated: 1
Substitution2: "Single Substitution lookup 23 subtable" isigndeva.ja
Substitution2: "Single Substitution lookup 21 subtable" isigndeva.tha
Substitution2: "Single Substitution lookup 19 subtable" isigndeva.alt4
Substitution2: "Single Substitution lookup 17 subtable" isigndeva.alt2
Substitution2: "Single Substitution lookup 15 subtable" isigndeva.alt3
Substitution2: "Single Substitution lookup 14 subtable" isigndeva.alt1
EndChar

StartChar: iisigndeva
Encoding: 2368 2368 113
Width: 266
GlyphClass: 4
Flags: W
LayerCount: 2
Fore
SplineSet
-13 606 m 1,0,-1
 -13 666 l 1,1,-1
 100 666 l 1,2,3
 83 762 83 762 37.5 824 c 128,-1,4
 -8 886 -8 886 -60 886 c 0,5,6
 -99 886 -99 886 -126 860.5 c 128,-1,7
 -153 835 -153 835 -153 799 c 0,8,9
 -153 767 -153 767 -139 735.5 c 128,-1,10
 -125 704 -125 704 -100 679 c 1,11,-1
 -173 679 l 1,12,13
 -196 702 -196 702 -208 733 c 128,-1,14
 -220 764 -220 764 -220 799 c 0,15,16
 -220 860 -220 860 -173.5 902.5 c 128,-1,17
 -127 945 -127 945 -60 945 c 0,18,19
 17 945 17 945 81 866 c 128,-1,20
 145 787 145 787 166 666 c 1,21,-1
 280 666 l 1,22,-1
 280 606 l 1,23,-1
 166 606 l 1,24,-1
 166 0 l 1,25,-1
 100 0 l 1,26,-1
 100 606 l 1,27,-1
 -13 606 l 1,0,-1
EndSplineSet
Validated: 1
Substitution2: "Single Substitution lookup 29 subtable" iisigndeva.alt1
EndChar

StartChar: usigndeva
Encoding: 2369 2369 114
Width: 0
GlyphClass: 4
Flags: W
AnchorPoint: "DVAnchor0" -143 61 mark 0
LayerCount: 2
Fore
SplineSet
-200 -273 m 0,0,1
 -272 -273 -272 -273 -350.5 -238.5 c 128,-1,2
 -429 -204 -429 -204 -506 -140 c 1,3,-1
 -459 -80 l 1,4,5
 -386 -141 -386 -141 -319.5 -173.5 c 128,-1,6
 -253 -206 -253 -206 -200 -206 c 0,7,8
 -142 -206 -142 -206 -101 -177 c 128,-1,9
 -60 -148 -60 -148 -60 -107 c 0,10,11
 -60 -73 -60 -73 -81.5 -50 c 128,-1,12
 -103 -27 -103 -27 -133 -27 c 0,13,14
 -165 -27 -165 -27 -193 -39 c 128,-1,15
 -221 -51 -221 -51 -240 -73 c 1,16,-1
 -286 -27 l 1,17,18
 -260 5 -260 5 -220 22.5 c 128,-1,19
 -180 40 -180 40 -133 40 c 0,20,21
 -76 40 -76 40 -34.5 -2.5 c 128,-1,22
 7 -45 7 -45 7 -107 c 0,23,24
 7 -176 7 -176 -54 -224.5 c 128,-1,25
 -115 -273 -115 -273 -200 -273 c 0,0,1
EndSplineSet
Validated: 1
EndChar

StartChar: uusigndeva
Encoding: 2370 2370 115
Width: 0
GlyphClass: 4
Flags: W
AnchorPoint: "DVAnchor0" -130 69 mark 0
LayerCount: 2
Fore
SplineSet
-153 -253 m 0,0,1
 -210 -253 -210 -253 -251.5 -211.5 c 128,-1,2
 -293 -170 -293 -170 -293 -113 c 0,3,4
 -293 -47 -293 -47 -244.5 0 c 128,-1,5
 -196 47 -196 47 -127 47 c 0,6,7
 -40 47 -40 47 40.5 -28.5 c 128,-1,8
 121 -104 121 -104 166 -226 c 1,9,-1
 107 -253 l 1,10,11
 68 -148 68 -148 4 -84 c 128,-1,12
 -60 -20 -60 -20 -127 -20 c 0,13,14
 -168 -20 -168 -20 -197 -47.5 c 128,-1,15
 -226 -75 -226 -75 -226 -113 c 0,16,17
 -226 -144 -226 -144 -205 -165 c 128,-1,18
 -184 -186 -184 -186 -153 -186 c 0,19,20
 -137 -186 -137 -186 -118 -177.5 c 128,-1,21
 -99 -169 -99 -169 -80 -153 c 1,22,-1
 -47 -213 l 1,23,24
 -75 -233 -75 -233 -102 -243 c 128,-1,25
 -129 -253 -129 -253 -153 -253 c 0,0,1
EndSplineSet
Validated: 1
EndChar

StartChar: rvocalicsigndeva
Encoding: 2371 2371 116
Width: 0
GlyphClass: 4
Flags: W
AnchorPoint: "DVAnchor0" -127 50 mark 0
LayerCount: 2
Fore
SplineSet
-168 -273 m 0,0,1
 -237 -273 -237 -273 -285.5 -228.5 c 128,-1,2
 -334 -184 -334 -184 -334 -120 c 0,3,4
 -334 -59 -334 -59 -281.5 -16 c 128,-1,5
 -229 27 -229 27 -154 27 c 2,6,-1
 -95 27 l 1,7,-1
 -95 -33 l 1,8,-1
 -154 -33 l 2,9,10
 -201 -33 -201 -33 -234.5 -58.5 c 128,-1,11
 -268 -84 -268 -84 -268 -120 c 128,-1,12
 -268 -156 -268 -156 -238.5 -181 c 128,-1,13
 -209 -206 -209 -206 -168 -206 c 0,14,15
 -129 -206 -129 -206 -96.5 -194 c 128,-1,16
 -64 -182 -64 -182 -41 -160 c 1,17,-1
 -8 -220 l 1,18,19
 -39 -245 -39 -245 -80 -259 c 128,-1,20
 -121 -273 -121 -273 -168 -273 c 0,0,1
EndSplineSet
Validated: 1
EndChar

StartChar: rrvocalicsigndeva
Encoding: 2372 2372 117
Width: 0
GlyphClass: 4
Flags: W
AnchorPoint: "DVAnchor0" -130 69 mark 0
LayerCount: 2
Fore
SplineSet
-162 -266 m 0,0,1
 -232 -266 -232 -266 -280.5 -239 c 128,-1,2
 -329 -212 -329 -212 -329 -173 c 0,3,4
 -329 -152 -329 -152 -309 -132 c 128,-1,5
 -289 -112 -289 -112 -256 -100 c 1,6,7
 -282 -93 -282 -93 -299 -74.5 c 128,-1,8
 -316 -56 -316 -56 -316 -33 c 0,9,10
 -316 0 -316 0 -286.5 23.5 c 128,-1,11
 -257 47 -257 47 -216 47 c 2,12,-1
 -96 47 l 1,13,-1
 -96 0 l 1,14,-1
 -202 0 l 2,15,16
 -225 0 -225 0 -240.5 -10 c 128,-1,17
 -256 -20 -256 -20 -256 -33 c 0,18,19
 -256 -49 -256 -49 -232.5 -61 c 128,-1,20
 -209 -73 -209 -73 -176 -73 c 2,21,-1
 -129 -73 l 1,22,-1
 -129 -127 l 1,23,-1
 -189 -127 l 2,24,25
 -222 -127 -222 -127 -245.5 -140.5 c 128,-1,26
 -269 -154 -269 -154 -269 -173 c 0,27,28
 -269 -189 -269 -189 -241.5 -201 c 128,-1,29
 -214 -213 -214 -213 -176 -213 c 0,30,31
 -129 -213 -129 -213 -95 -206.5 c 128,-1,32
 -61 -200 -61 -200 -43 -186 c 1,33,-1
 -23 -233 l 1,34,35
 -45 -249 -45 -249 -81 -257.5 c 128,-1,36
 -117 -266 -117 -266 -162 -266 c 0,0,1
EndSplineSet
Validated: 1
EndChar

StartChar: ecandrasigndeva
Encoding: 2373 2373 118
Width: 0
GlyphClass: 4
Flags: W
AnchorPoint: "DVAnchor3" -127 666 mark 0
LayerCount: 2
Fore
SplineSet
-127 759 m 0,0,1
 -200 759 -200 759 -256.5 810 c 128,-1,2
 -313 861 -313 861 -326 939 c 1,3,-1
 -260 939 l 1,4,5
 -250 885 -250 885 -212 849 c 128,-1,6
 -174 813 -174 813 -127 813 c 0,7,8
 -79 813 -79 813 -41 849 c 128,-1,9
 -3 885 -3 885 7 939 c 1,10,-1
 73 939 l 1,11,12
 60 861 60 861 3.5 810 c 128,-1,13
 -53 759 -53 759 -127 759 c 0,0,1
EndSplineSet
Validated: 1
EndChar

StartChar: eshortsigndeva
Encoding: 2374 2374 119
Width: 0
GlyphClass: 4
Flags: W
AnchorPoint: "DVAnchor3" -127 665 mark 0
LayerCount: 2
Fore
SplineSet
-296 807 m 0,0,1
 -369 807 -369 807 -425.5 857.5 c 128,-1,2
 -482 908 -482 908 -495 987 c 1,3,-1
 -429 987 l 1,4,5
 -419 932 -419 932 -381.5 896 c 128,-1,6
 -344 860 -344 860 -296 860 c 0,7,8
 -213 860 -213 860 -154.5 803.5 c 128,-1,9
 -96 747 -96 747 -96 667 c 1,10,-1
 -162 667 l 1,11,12
 -162 724 -162 724 -201.5 765.5 c 128,-1,13
 -241 807 -241 807 -296 807 c 0,0,1
EndSplineSet
Validated: 1
EndChar

StartChar: esigndeva
Encoding: 2375 2375 120
Width: 0
GlyphClass: 4
Flags: W
AnchorPoint: "DVAnchor3" -122 664 mark 0
LayerCount: 2
Fore
SplineSet
-169 666 m 1,0,-1
 -415 959 l 1,1,-1
 -369 999 l 1,2,-1
 -103 666 l 1,3,-1
 -169 666 l 1,0,-1
EndSplineSet
Validated: 1
EndChar

StartChar: aisigndeva
Encoding: 2376 2376 121
Width: 0
GlyphClass: 4
Flags: W
AnchorPoint: "DVAnchor3" -135 664 mark 0
LayerCount: 2
Fore
SplineSet
-192 666 m 1,0,-1
 -478 846 l 1,1,-1
 -438 905 l 1,2,-1
 -145 672 l 1,3,-1
 -285 959 l 1,4,-1
 -218 999 l 1,5,-1
 -105 666 l 1,6,-1
 -192 666 l 1,0,-1
EndSplineSet
Validated: 1
EndChar

StartChar: ocandrasigndeva
Encoding: 2377 2377 122
Width: 266
GlyphClass: 2
Flags: W
LayerCount: 2
Fore
SplineSet
0 752 m 128,-1,1
 -73 752 -73 752 -129.5 803 c 128,-1,2
 -186 854 -186 854 -200 932 c 1,3,-1
 -133 932 l 1,4,5
 -124 878 -124 878 -86 842 c 128,-1,6
 -48 806 -48 806 0 806 c 128,-1,7
 48 806 48 806 86 842 c 128,-1,8
 124 878 124 878 133 932 c 1,9,-1
 200 932 l 1,10,11
 186 854 186 854 129.5 803 c 128,-1,0
 73 752 73 752 0 752 c 128,-1,1
-13 606 m 1,12,-1
 -13 666 l 1,13,-1
 280 666 l 1,14,-1
 280 606 l 1,15,-1
 166 606 l 1,16,-1
 166 0 l 1,17,-1
 100 0 l 1,18,-1
 100 606 l 1,19,-1
 -13 606 l 1,12,-1
EndSplineSet
Validated: 1
EndChar

StartChar: oshortsigndeva
Encoding: 2378 2378 123
Width: 266
GlyphClass: 2
Flags: W
LayerCount: 2
Fore
SplineSet
-33 806 m 0,0,1
 -107 806 -107 806 -163.5 856.5 c 128,-1,2
 -220 907 -220 907 -233 986 c 1,3,-1
 -166 986 l 1,4,5
 -157 931 -157 931 -119 895 c 128,-1,6
 -81 859 -81 859 -33 859 c 0,7,8
 49 859 49 859 107.5 802.5 c 128,-1,9
 166 746 166 746 166 666 c 1,10,-1
 280 666 l 1,11,-1
 280 606 l 1,12,-1
 166 606 l 1,13,-1
 166 0 l 1,14,-1
 100 0 l 1,15,-1
 100 606 l 1,16,-1
 -13 606 l 1,17,-1
 -13 666 l 1,18,-1
 100 666 l 1,19,20
 100 723 100 723 60.5 764.5 c 128,-1,21
 21 806 21 806 -33 806 c 0,0,1
EndSplineSet
Validated: 1
EndChar

StartChar: osigndeva
Encoding: 2379 2379 124
Width: 266
GlyphClass: 2
Flags: W
LayerCount: 2
Fore
SplineSet
-13 606 m 1,0,-1
 -13 666 l 1,1,-1
 95 666 l 1,2,-1
 -146 959 l 1,3,-1
 -100 999 l 1,4,-1
 161 666 l 1,5,-1
 280 666 l 1,6,-1
 280 606 l 1,7,-1
 166 606 l 1,8,-1
 166 0 l 1,9,-1
 100 0 l 1,10,-1
 100 606 l 1,11,-1
 -13 606 l 1,0,-1
EndSplineSet
Validated: 1
EndChar

StartChar: ausigndeva
Encoding: 2380 2380 125
Width: 266
GlyphClass: 2
Flags: W
LayerCount: 2
Fore
SplineSet
-13 606 m 1,0,-1
 -13 666 l 1,1,-1
 76 666 l 1,2,-1
 -200 846 l 1,3,-1
 -160 905 l 1,4,-1
 133 666 l 1,5,-1
 -7 959 l 1,6,-1
 60 999 l 1,7,-1
 170 666 l 1,8,-1
 280 666 l 1,9,-1
 280 606 l 1,10,-1
 166 606 l 1,11,-1
 166 0 l 1,12,-1
 100 0 l 1,13,-1
 100 606 l 1,14,-1
 -13 606 l 1,0,-1
EndSplineSet
Validated: 1
EndChar

StartChar: viramadeva
Encoding: 2381 2381 126
Width: 0
GlyphClass: 4
Flags: W
AnchorPoint: "DVAnchor0" -119 42 mark 0
LayerCount: 2
Fore
SplineSet
-174 -100 m 1,0,-1
 -208 -53 l 1,1,-1
 -128 7 l 1,2,-1
 112 -180 l 1,3,-1
 72 -220 l 1,4,-1
 -128 -60 l 1,5,-1
 -174 -100 l 1,0,-1
EndSplineSet
Validated: 1
EndChar

StartChar: eprishthamatrasigndeva
Encoding: 2382 2382 127
Width: 266
GlyphClass: 2
Flags: W
LayerCount: 2
Fore
SplineSet
100 666 m 1,0,-1
 280 666 l 1,1,-1
 280 606 l 1,2,-1
 166 606 l 1,3,-1
 166 0 l 1,4,-1
 100 0 l 1,5,-1
 100 666 l 1,0,-1
EndSplineSet
Validated: 1
EndChar

StartChar: awsigndeva
Encoding: 2383 2383 128
Width: 266
GlyphClass: 2
Flags: W
LayerCount: 2
Fore
SplineSet
167 666 m 1,0,-1
 280 666 l 1,1,-1
 280 606 l 1,2,-1
 166 606 l 1,3,-1
 166 0 l 1,4,-1
 100 0 l 1,5,-1
 100 606 l 1,6,-1
 -13 606 l 1,7,-1
 -13 666 l 1,8,-1
 62 666 l 1,9,10
 49 690 49 690 26 708 c 0,11,12
 -4 731 -4 731 -54 737 c 0,13,14
 -63 738 -63 738 -73 736 c 0,15,16
 -88 733 -88 733 -111 733 c 0,17,18
 -162 733 -162 733 -204 756 c 0,19,20
 -263 787 -263 787 -288 863 c 1,21,-1
 -222 872 l 1,22,23
 -205 819 -205 819 -167 800 c 0,24,25
 -139 786 -139 786 -106 786 c 0,26,27
 -96 786 -96 786 -81 788 c 128,-1,28
 -66 790 -66 790 -51 790 c 0,29,30
 -48.2727 790.091 -48.2727 790.091 -45.5868 790.091 c 0,31,32
 10.8182 790.091 10.8182 790.091 49 750 c 0,33,34
 82 716 82 716 98 666 c 1,35,-1
 134 666 l 1,36,37
 134 701 134 701 116 734 c 0,38,39
 89 784 89 784 35 797 c 1,40,41
 -37 816 -37 816 -78 867 c 0,42,43
 -114 911 -114 911 -114 976 c 0,44,45
 -114 987 -114 987 -113 998 c 1,46,-1
 -49 981 l 1,47,48
 -50 973 -50 973 -50 965 c 0,49,50
 -48 919 -48 919 -26 893 c 0,51,52
 0 862 0 862 49 849 c 0,53,54
 129 828 129 828 154 763 c 0,55,56
 167 729 167 729 168 686 c 0,57,58
 168 675 168 675 167 666 c 1,0,-1
EndSplineSet
Validated: 1
EndChar

StartChar: omdeva
Encoding: 2384 2384 129
Width: 977
GlyphClass: 2
Flags: W
LayerCount: 2
Fore
SplineSet
664 739 m 1,0,-1
 664 812 l 1,1,-1
 738 812 l 1,2,-1
 738 739 l 1,3,-1
 664 739 l 1,0,-1
698 606 m 128,-1,5
 610 606 610 606 544 656.5 c 128,-1,6
 478 707 478 707 465 786 c 1,7,-1
 531 786 l 1,8,9
 553 726 553 726 598.5 689 c 128,-1,10
 644 652 644 652 698 652 c 0,11,12
 751 652 751 652 797 689 c 128,-1,13
 843 726 843 726 864 786 c 1,14,-1
 931 786 l 1,15,16
 917 707 917 707 851.5 656.5 c 128,-1,4
 786 606 786 606 698 606 c 128,-1,5
390 459 m 0,17,18
 390 501 390 501 359.5 530 c 128,-1,19
 329 559 329 559 286 559 c 0,20,21
 254 559 254 559 218 532.5 c 128,-1,22
 182 506 182 506 152 459 c 1,23,-1
 101 501 l 1,24,25
 138 559 138 559 187.5 593 c 128,-1,26
 237 627 237 627 288 627 c 0,27,28
 358 627 358 627 408 578 c 128,-1,29
 458 529 458 529 458 459 c 0,30,31
 458 430 458 430 442 400 c 128,-1,32
 426 370 426 370 398 346 c 1,33,34
 426 330 426 330 456.5 321.5 c 128,-1,35
 487 313 487 313 518 313 c 0,36,37
 550 313 550 313 578.5 331 c 128,-1,38
 607 349 607 349 625 380 c 0,39,40
 644 414 644 414 681.5 433.5 c 128,-1,41
 719 453 719 453 764 453 c 0,42,43
 834 453 834 453 882.5 392.5 c 128,-1,44
 931 332 931 332 931 246 c 0,45,46
 931 161 931 161 884.5 100.5 c 128,-1,47
 838 40 838 40 771 40 c 0,48,49
 702 40 702 40 653.5 90.5 c 128,-1,50
 605 141 605 141 605 213 c 1,51,-1
 664 213 l 1,52,53
 664 169 664 169 695.5 138 c 128,-1,54
 727 107 727 107 771 107 c 0,55,56
 810 107 810 107 837 148 c 128,-1,57
 864 189 864 189 864 246 c 0,58,59
 864 304 864 304 835 345 c 128,-1,60
 806 386 806 386 764 386 c 0,61,62
 734 386 734 386 703 365 c 128,-1,63
 672 344 672 344 651 306 c 0,64,65
 635 278 635 278 599 262 c 128,-1,66
 563 246 563 246 518 246 c 0,67,68
 510 246 510 246 493.5 249.5 c 128,-1,69
 477 253 477 253 451 260 c 1,70,71
 461 248 461 248 466 229 c 128,-1,72
 471 210 471 210 471 186 c 0,73,74
 471 115 471 115 424.5 64 c 128,-1,75
 378 13 378 13 312 13 c 0,76,77
 229 13 229 13 149 78.5 c 128,-1,78
 69 144 69 144 19 253 c 1,79,-1
 79 286 l 1,80,81
 123 192 123 192 186 136 c 128,-1,82
 249 80 249 80 312 80 c 0,83,84
 350 80 350 80 377.5 111 c 128,-1,85
 405 142 405 142 405 186 c 0,86,87
 405 233 405 233 383.5 266.5 c 128,-1,88
 362 300 362 300 332 300 c 0,89,90
 314 300 314 300 301 298 c 128,-1,91
 288 296 288 296 278 293 c 1,92,-1
 238 340 l 1,93,94
 301 345 301 345 345.5 380 c 128,-1,95
 390 415 390 415 390 459 c 0,17,18
EndSplineSet
Validated: 1
EndChar

StartChar: udattadeva
Encoding: 2385 2385 130
Width: 0
GlyphClass: 4
Flags: W
AnchorPoint: "DVAnchor3" -127 666 mark 0
LayerCount: 2
Fore
SplineSet
-172 710 m 1,0,-1
 -172 1023 l 1,1,-1
 -85 1023 l 1,2,-1
 -85 710 l 1,3,-1
 -172 710 l 1,0,-1
EndSplineSet
Validated: 1
EndChar

StartChar: anudattadeva
Encoding: 2386 2386 131
Width: 0
GlyphClass: 4
Flags: W
LayerCount: 2
Fore
SplineSet
-637 -159 m 1,0,-1
 -637 -99 l 1,1,-1
 -111 -99 l 1,2,-1
 -111 -159 l 1,3,-1
 -637 -159 l 1,0,-1
EndSplineSet
Validated: 1
EndChar

StartChar: gravedeva
Encoding: 2387 2387 132
Width: 0
GlyphClass: 4
Flags: W
AnchorPoint: "DVAnchor3" -69 664 mark 0
LayerCount: 2
Fore
SplineSet
-44 710 m 1,0,-1
 -93 710 l 1,1,-1
 -185 921 l 1,2,-1
 -98 921 l 1,3,-1
 -44 710 l 1,0,-1
EndSplineSet
Validated: 1
EndChar

StartChar: acutedeva
Encoding: 2388 2388 133
Width: 0
GlyphClass: 4
Flags: W
AnchorPoint: "DVAnchor3" -143 665 mark 0
LayerCount: 2
Fore
SplineSet
-178 714 m 1,0,-1
 -124 925 l 1,1,-1
 -37 925 l 1,2,-1
 -129 714 l 1,3,-1
 -178 714 l 1,0,-1
EndSplineSet
Validated: 1
EndChar

StartChar: ecandralongsigndeva
Encoding: 2389 2389 134
Width: 0
GlyphClass: 4
Flags: W
AnchorPoint: "DVAnchor3" -120 666 mark 0
LayerCount: 2
Fore
SplineSet
71 726 m 1,0,-1
 -323 726 l 1,1,-1
 -323 776 l 1,2,-1
 71 776 l 1,3,-1
 71 726 l 1,0,-1
-127 819 m 0,4,5
 -200 819 -200 819 -256.5 870 c 128,-1,6
 -313 921 -313 921 -326 999 c 1,7,-1
 -260 999 l 1,8,9
 -250 945 -250 945 -212 909 c 128,-1,10
 -174 873 -174 873 -127 873 c 0,11,12
 -79 873 -79 873 -41 909 c 128,-1,13
 -3 945 -3 945 7 999 c 1,14,-1
 73 999 l 1,15,16
 60 921 60 921 3.5 870 c 128,-1,17
 -53 819 -53 819 -127 819 c 0,4,5
EndSplineSet
Validated: 1
EndChar

StartChar: uesigndeva
Encoding: 2390 2390 135
Width: 0
GlyphClass: 4
Flags: W
AnchorPoint: "DVAnchor0" -259 -1 mark 0
LayerCount: 2
Fore
SplineSet
-414 -154 m 128,-1,1
 -478 -100 -478 -100 -489 -53 c 1,2,-1
 -416 -53 l 1,3,4
 -416 -66 -416 -66 -366 -111 c 1,5,6
 -335 -141 -335 -141 -276 -142 c 0,7,8
 -226 -142 -226 -142 -185 -108 c 1,9,10
 -152 -82 -152 -82 -136 -53 c 1,11,-1
 -63 -53 l 1,12,13
 -74 -98 -74 -98 -137 -154 c 1,14,15
 -193 -202 -193 -202 -276 -204 c 1,16,0
 -350 -208 -350 -208 -414 -154 c 128,-1,1
EndSplineSet
Validated: 33
EndChar

StartChar: uuesigndeva
Encoding: 2391 2391 136
Width: 0
GlyphClass: 4
Flags: W
AnchorPoint: "DVAnchor0" -265 0 mark 0
LayerCount: 2
Fore
SplineSet
-412 -152 m 0,0,1
 -476 -98 -476 -98 -487 -50 c 1,2,-1
 -414 -50 l 1,3,4
 -414 -64 -414 -64 -364 -108 c 1,5,6
 -333 -138 -333 -138 -274 -139 c 0,7,8
 -224 -139 -224 -139 -183 -106 c 1,9,10
 -150 -78 -150 -78 -134 -50 c 1,11,-1
 -61 -50 l 1,12,13
 -72 -96 -72 -96 -135 -152 c 1,14,15
 -191 -200 -191 -200 -274 -201 c 1,16,17
 -348 -205 -348 -205 -412 -152 c 0,0,1
-410 -285 m 0,18,19
 -473 -239 -473 -239 -484 -186 c 1,20,-1
 -414 -186 l 1,21,22
 -400 -224 -400 -224 -362 -244 c 1,23,24
 -307 -271 -307 -271 -274 -272 c 1,25,26
 -224 -272 -224 -272 -183 -238 c 1,27,28
 -150 -212 -150 -212 -134 -183 c 1,29,-1
 -61 -183 l 1,30,31
 -71 -227 -71 -227 -135 -282 c 0,32,33
 -191 -330 -191 -330 -274 -332 c 1,34,35
 -349 -329 -349 -329 -410 -285 c 0,18,19
EndSplineSet
Validated: 33
EndChar

StartChar: qadeva
Encoding: 2392 2392 137
Width: 753
GlyphClass: 2
Flags: W
AnchorPoint: "DVAnchor3" 385 664 basechar 0
AnchorPoint: "DVAnchor0" 386 23 basechar 0
LayerCount: 2
Fore
SplineSet
204 -13 m 1,0,-1
 150 40 l 1,1,-1
 204 93 l 1,2,-1
 257 40 l 1,3,-1
 204 -13 l 1,0,-1
EndSplineSet
Refer: 70 2325 N 1 0 0 1 0 0 2
LCarets2: 1 0 
Ligature2: "NuktaFormslookup5 subtable" kadeva nuktadeva
EndChar

StartChar: khhadeva
Encoding: 2393 2393 138
Width: 836
GlyphClass: 2
Flags: W
AnchorPoint: "DVAnchor3" 707 664 basechar 0
LayerCount: 2
Fore
SplineSet
104 -13 m 1,0,-1
 44 40 l 1,1,-1
 104 93 l 1,2,-1
 164 40 l 1,3,-1
 104 -13 l 1,0,-1
EndSplineSet
Refer: 71 2326 S 1 0 0 1 0 0 2
LCarets2: 1 0 
Ligature2: "NuktaFormslookup5 subtable" khadeva nuktadeva
EndChar

StartChar: ghhadeva
Encoding: 2394 2394 139
Width: 517
GlyphClass: 2
Flags: W
AnchorPoint: "DVAnchor3" 392 666 basechar 0
LayerCount: 2
Fore
SplineSet
132 -13 m 1,0,-1
 79 40 l 1,1,-1
 132 93 l 1,2,-1
 185 40 l 1,3,-1
 132 -13 l 1,0,-1
EndSplineSet
Refer: 72 2327 N 1 0 0 1 0 0 2
LCarets2: 1 0 
Ligature2: "NuktaFormslookup5 subtable" gadeva nuktadeva
EndChar

StartChar: zadeva
Encoding: 2395 2395 140
Width: 733
GlyphClass: 2
Flags: W
AnchorPoint: "DVAnchor3" 603 664 basechar 0
LayerCount: 2
Fore
SplineSet
181 -13 m 1,0,-1
 121 40 l 1,1,-1
 181 93 l 1,2,-1
 241 40 l 1,3,-1
 181 -13 l 1,0,-1
EndSplineSet
Refer: 77 2332 S 1 0 0 1 0 0 2
LCarets2: 1 0 
Ligature2: "NuktaFormslookup5 subtable" jadeva nuktadeva
EndChar

StartChar: dddhadeva
Encoding: 2396 2396 141
Width: 632
GlyphClass: 2
Flags: W
AnchorPoint: "DVAnchor3" 502 664 basechar 0
AnchorPoint: "DVAnchor0" 407 50 basechar 0
LayerCount: 2
Fore
SplineSet
385 -133 m 1,0,-1
 325 -87 l 1,1,-1
 385 -40 l 1,2,-1
 445 -87 l 1,3,-1
 385 -133 l 1,0,-1
EndSplineSet
Refer: 82 2337 N 1 0 0 1 0 0 2
LCarets2: 1 0 
Ligature2: "NuktaFormslookup5 subtable" ddadeva nuktadeva
EndChar

StartChar: rhadeva
Encoding: 2397 2397 142
Width: 572
GlyphClass: 2
Flags: W
AnchorPoint: "DVAnchor3" 427 664 basechar 0
AnchorPoint: "DVAnchor0" 332 58 basechar 0
LayerCount: 2
Fore
SplineSet
321 -133 m 1,0,-1
 261 -87 l 1,1,-1
 321 -40 l 1,2,-1
 381 -87 l 1,3,-1
 321 -133 l 1,0,-1
EndSplineSet
Refer: 83 2338 S 1 0 0 1 0 0 2
LCarets2: 1 0 
Ligature2: "NuktaFormslookup5 subtable" ddhadeva nuktadeva
EndChar

StartChar: fadeva
Encoding: 2398 2398 143
Width: 765
GlyphClass: 2
Flags: W
AnchorPoint: "DVAnchor3" 379 664 basechar 0
AnchorPoint: "DVAnchor0" 380 21 basechar 0
LayerCount: 2
Fore
SplineSet
172 -7 m 1,0,-1
 119 43 l 1,1,-1
 172 93 l 1,2,-1
 225 43 l 1,3,-1
 172 -7 l 1,0,-1
EndSplineSet
Refer: 92 2347 S 1 0 0 1 1 0 2
LCarets2: 1 0 
Ligature2: "NuktaFormslookup5 subtable" phadeva nuktadeva
EndChar

StartChar: yyadeva
Encoding: 2399 2399 144
Width: 596
GlyphClass: 2
Flags: W
AnchorPoint: "DVAnchor3" 465 665 basechar 0
LayerCount: 2
Fore
SplineSet
164 -7 m 1,0,-1
 111 40 l 1,1,-1
 164 93 l 1,2,-1
 217 40 l 1,3,-1
 164 -7 l 1,0,-1
EndSplineSet
Refer: 96 2351 N 1 0 0 1 0 0 2
LCarets2: 1 0 
Ligature2: "NuktaFormslookup5 subtable" yadeva nuktadeva
EndChar

StartChar: rrvocalicdeva
Encoding: 2400 2400 145
Width: 882
GlyphClass: 2
Flags: W
AnchorPoint: "DVAnchor3" 467 666 basechar 0
AnchorPoint: "DVAnchor0" 468 15 basechar 0
LayerCount: 2
Fore
SplineSet
-13 606 m 1,0,-1
 -13 666 l 1,1,-1
 896 666 l 1,2,-1
 896 606 l 1,3,-1
 498 606 l 1,4,-1
 498 366 l 1,5,-1
 611 419 l 1,6,7
 603 450 603 450 620 474.5 c 128,-1,8
 637 499 637 499 664 499 c 0,9,10
 690 499 690 499 707 484 c 128,-1,11
 724 469 724 469 724 446 c 0,12,13
 724 425 724 425 717 409 c 128,-1,14
 710 393 710 393 698 386 c 1,15,-1
 744 300 l 1,16,17
 698 292 698 292 668 263 c 128,-1,18
 638 234 638 234 638 200 c 0,19,20
 638 158 638 158 669 129 c 128,-1,21
 700 100 700 100 744 100 c 0,22,23
 762 100 762 100 786 108.5 c 128,-1,24
 810 117 810 117 838 133 c 1,25,-1
 871 73 l 1,26,27
 836 57 836 57 803.5 48.5 c 128,-1,28
 771 40 771 40 744 40 c 0,29,30
 672 40 672 40 621.5 86.5 c 128,-1,31
 571 133 571 133 571 200 c 0,32,33
 571 240 571 240 594.5 274 c 128,-1,34
 618 308 618 308 658 326 c 1,35,-1
 631 366 l 1,36,-1
 498 306 l 1,37,-1
 498 0 l 1,38,-1
 431 0 l 1,39,-1
 431 253 l 1,40,-1
 158 127 l 1,41,-1
 119 180 l 1,42,-1
 378 300 l 1,43,-1
 298 373 l 1,44,45
 274 401 274 401 249.5 417 c 128,-1,46
 225 433 225 433 205 433 c 0,47,48
 177 433 177 433 138 415.5 c 128,-1,49
 99 398 99 398 52 366 c 1,50,-1
 12 413 l 1,51,52
 68 451 68 451 117 472 c 128,-1,53
 166 493 166 493 205 493 c 0,54,55
 229 493 229 493 259.5 477.5 c 128,-1,56
 290 462 290 462 325 433 c 1,57,-1
 431 326 l 1,58,-1
 431 606 l 1,59,-1
 -13 606 l 1,0,-1
EndSplineSet
Validated: 33
EndChar

StartChar: llvocalicdeva
Encoding: 2401 2401 146
Width: 708
GlyphClass: 2
Flags: W
LayerCount: 2
Fore
SplineSet
250 0 m 1,0,1
 157 40 157 40 100.5 112.5 c 128,-1,2
 44 185 44 185 44 266 c 0,3,4
 44 346 44 346 92.5 402.5 c 128,-1,5
 141 459 141 459 210 459 c 0,6,7
 250 459 250 459 287 438 c 128,-1,8
 324 417 324 417 350 380 c 1,9,10
 370 411 370 411 398 432 c 128,-1,11
 426 453 426 453 457 459 c 1,12,-1
 457 606 l 1,13,-1
 -13 606 l 1,14,-1
 -13 666 l 1,15,-1
 722 666 l 1,16,-1
 722 606 l 1,17,-1
 523 606 l 1,18,-1
 523 459 l 1,19,20
 586 441 586 441 624.5 381.5 c 128,-1,21
 663 322 663 322 663 246 c 0,22,23
 663 168 663 168 612.5 107.5 c 128,-1,24
 562 47 562 47 483 33 c 0,25,26
 463 29 463 29 450 18 c 128,-1,27
 437 7 437 7 437 -7 c 0,28,29
 437 -29 437 -29 458 -44.5 c 128,-1,30
 479 -60 479 -60 510 -60 c 2,31,-1
 557 -60 l 1,32,-1
 557 -113 l 1,33,-1
 510 -113 l 2,34,35
 479 -113 479 -113 458 -127.5 c 128,-1,36
 437 -142 437 -142 437 -164 c 128,-1,37
 437 -186 437 -186 458 -203 c 128,-1,38
 479 -220 479 -220 510 -220 c 0,39,40
 543 -220 543 -220 576 -210 c 128,-1,41
 609 -200 609 -200 637 -180 c 1,42,-1
 663 -233 l 1,43,44
 631 -256 631 -256 592 -268 c 128,-1,45
 553 -280 553 -280 510 -280 c 0,46,47
 453 -280 453 -280 411.5 -246.5 c 128,-1,48
 370 -213 370 -213 370 -166 c 0,49,50
 370 -140 370 -140 386.5 -118 c 128,-1,51
 403 -96 403 -96 430 -87 c 1,52,53
 403 -80 403 -80 386.5 -57.5 c 128,-1,54
 370 -35 370 -35 370 -7 c 0,55,56
 370 35 370 35 401.5 65 c 128,-1,57
 433 95 433 95 478 99 c 0,58,59
 529 103 529 103 563 145.5 c 128,-1,60
 597 188 597 188 597 246 c 0,61,62
 597 308 597 308 563.5 350.5 c 128,-1,63
 530 393 530 393 483 393 c 0,64,65
 443 393 443 393 406 342.5 c 128,-1,66
 369 292 369 292 350 213 c 1,67,-1
 284 233 l 1,68,69
 289 257 289 257 297.5 280.5 c 128,-1,70
 306 304 306 304 317 326 c 1,71,72
 298 357 298 357 269.5 375 c 128,-1,73
 241 393 241 393 210 393 c 0,74,75
 169 393 169 393 140 355.5 c 128,-1,76
 111 318 111 318 111 266 c 0,77,78
 111 201 111 201 156 143 c 128,-1,79
 201 85 201 85 277 53 c 1,80,-1
 250 0 l 1,0,1
EndSplineSet
Validated: 1
EndChar

StartChar: lvocalicsigndeva
Encoding: 2402 2402 147
Width: 0
GlyphClass: 4
Flags: W
AnchorPoint: "DVAnchor0" -141 37 mark 0
LayerCount: 2
Fore
SplineSet
-217 -306 m 1,0,1
 -288 -277 -288 -277 -330 -223.5 c 128,-1,2
 -372 -170 -372 -170 -372 -112 c 0,3,4
 -372 -53 -372 -53 -335 -12 c 128,-1,5
 -298 29 -298 29 -246 29 c 0,6,7
 -216 29 -216 29 -189 16 c 128,-1,8
 -162 3 -162 3 -145 -21 c 1,9,10
 -129 3 -129 3 -102 16 c 128,-1,11
 -75 29 -75 29 -43 29 c 0,12,13
 9 29 9 29 46.5 -18 c 128,-1,14
 84 -65 84 -65 84 -132 c 0,15,16
 84 -184 84 -184 53.5 -224.5 c 128,-1,17
 23 -265 23 -265 -27 -277 c 0,18,19
 -57 -285 -57 -285 -76.5 -307 c 128,-1,20
 -96 -329 -96 -329 -96 -356 c 0,21,22
 -96 -382 -96 -382 -76 -400.5 c 128,-1,23
 -56 -419 -56 -419 -27 -419 c 0,24,25
 0 -419 0 -419 23.5 -412.5 c 128,-1,26
 47 -406 47 -406 64 -394 c 1,27,-1
 80 -438 l 1,28,29
 56 -455 56 -455 28.5 -464 c 128,-1,30
 1 -473 1 -473 -27 -473 c 0,31,32
 -77 -473 -77 -473 -113 -438 c 128,-1,33
 -149 -403 -149 -403 -149 -356 c 128,-1,34
 -149 -309 -149 -309 -120 -273.5 c 128,-1,35
 -91 -238 -91 -238 -45 -230 c 0,36,37
 -12 -225 -12 -225 9.5 -197 c 128,-1,38
 31 -169 31 -169 31 -132 c 0,39,40
 31 -87 31 -87 9.5 -55.5 c 128,-1,41
 -12 -24 -12 -24 -43 -24 c 0,42,43
 -76 -24 -76 -24 -106 -61.5 c 128,-1,44
 -136 -99 -136 -99 -149 -156 c 1,45,-1
 -192 -136 l 1,46,47
 -188 -119 -188 -119 -182 -101.5 c 128,-1,48
 -176 -84 -176 -84 -168 -68 c 1,49,50
 -180 -48 -180 -48 -201 -36 c 128,-1,51
 -222 -24 -222 -24 -246 -24 c 0,52,53
 -276 -24 -276 -24 -297 -50 c 128,-1,54
 -318 -76 -318 -76 -318 -112 c 0,55,56
 -318 -157 -318 -157 -285.5 -197.5 c 128,-1,57
 -253 -238 -253 -238 -198 -261 c 1,58,-1
 -217 -306 l 1,0,1
EndSplineSet
Validated: 1
EndChar

StartChar: llvocalicsigndeva
Encoding: 2403 2403 148
Width: 0
GlyphClass: 4
Flags: W
AnchorPoint: "DVAnchor0" -138 34 mark 0
LayerCount: 2
Fore
SplineSet
-217 -306 m 1,0,1
 -288 -277 -288 -277 -330 -223.5 c 128,-1,2
 -372 -170 -372 -170 -372 -112 c 0,3,4
 -372 -52 -372 -52 -335 -9.5 c 128,-1,5
 -298 33 -298 33 -246 33 c 0,6,7
 -214 33 -214 33 -186 18.5 c 128,-1,8
 -158 4 -158 4 -141 -21 c 1,9,10
 -125 4 -125 4 -100 18.5 c 128,-1,11
 -75 33 -75 33 -47 33 c 0,12,13
 9 33 9 33 49 -11.5 c 128,-1,14
 89 -56 89 -56 89 -120 c 0,15,16
 89 -180 89 -180 52.5 -226 c 128,-1,17
 16 -272 16 -272 -41 -281 c 0,18,19
 -56 -284 -56 -284 -66 -293 c 128,-1,20
 -76 -302 -76 -302 -76 -313 c 0,21,22
 -76 -329 -76 -329 -61.5 -339.5 c 128,-1,23
 -47 -350 -47 -350 -27 -350 c 2,24,-1
 5 -350 l 1,25,-1
 5 -389 l 1,26,-1
 -27 -389 l 2,27,28
 -47 -389 -47 -389 -61.5 -401 c 128,-1,29
 -76 -413 -76 -413 -76 -429 c 0,30,31
 -76 -442 -76 -442 -61.5 -452 c 128,-1,32
 -47 -462 -47 -462 -27 -462 c 0,33,34
 3 -462 3 -462 27.5 -455.5 c 128,-1,35
 52 -449 52 -449 71 -435 c 1,36,-1
 89 -483 l 1,37,38
 67 -499 67 -499 37.5 -507 c 128,-1,39
 8 -515 8 -515 -27 -515 c 0,40,41
 -69 -515 -69 -515 -99 -490 c 128,-1,42
 -129 -465 -129 -465 -129 -429 c 0,43,44
 -129 -409 -129 -409 -118.5 -393 c 128,-1,45
 -108 -377 -108 -377 -89 -370 c 1,46,47
 -107 -365 -107 -365 -118 -349 c 128,-1,48
 -129 -333 -129 -333 -129 -313 c 0,49,50
 -129 -282 -129 -282 -106.5 -259 c 128,-1,51
 -84 -236 -84 -236 -51 -233 c 0,52,53
 -13 -230 -13 -230 11.5 -197.5 c 128,-1,54
 36 -165 36 -165 36 -120 c 0,55,56
 36 -79 36 -79 12 -49.5 c 128,-1,57
 -12 -20 -12 -20 -47 -20 c 0,58,59
 -76 -20 -76 -20 -103 -56.5 c 128,-1,60
 -130 -93 -130 -93 -144 -150 c 1,61,-1
 -192 -136 l 1,62,63
 -188 -119 -188 -119 -182 -101.5 c 128,-1,64
 -176 -84 -176 -84 -168 -68 c 1,65,66
 -181 -45 -181 -45 -202.5 -32.5 c 128,-1,67
 -224 -20 -224 -20 -246 -20 c 0,68,69
 -276 -20 -276 -20 -297 -46.5 c 128,-1,70
 -318 -73 -318 -73 -318 -112 c 0,71,72
 -318 -157 -318 -157 -285 -197.5 c 128,-1,73
 -252 -238 -252 -238 -197 -262 c 1,74,-1
 -217 -306 l 1,0,1
EndSplineSet
Validated: 1
EndChar

StartChar: danda
Encoding: 2404 2404 149
Width: 366
GlyphClass: 2
Flags: W
LayerCount: 2
Fore
SplineSet
200 0 m 1,0,-1
 200 666 l 1,1,-1
 266 666 l 1,2,-1
 266 0 l 1,3,-1
 200 0 l 1,0,-1
EndSplineSet
Validated: 1
EndChar

StartChar: dbldanda
Encoding: 2405 2405 150
Width: 579
GlyphClass: 2
Flags: W
LayerCount: 2
Fore
SplineSet
413 0 m 1,0,-1
 413 666 l 1,1,-1
 479 666 l 1,2,-1
 479 0 l 1,3,-1
 413 0 l 1,0,-1
200 0 m 1,4,-1
 200 666 l 1,5,-1
 266 666 l 1,6,-1
 266 0 l 1,7,-1
 200 0 l 1,4,-1
EndSplineSet
Validated: 1
EndChar

StartChar: zerodeva
Encoding: 2406 2406 151
Width: 665
GlyphClass: 2
Flags: W
LayerCount: 2
Fore
SplineSet
333 166 m 128,-1,1
 402 166 402 166 450.5 215 c 128,-1,2
 499 264 499 264 499 333 c 128,-1,3
 499 402 499 402 450.5 450.5 c 128,-1,4
 402 499 402 499 333 499 c 128,-1,5
 264 499 264 499 215 450.5 c 128,-1,6
 166 402 166 402 166 333 c 128,-1,7
 166 264 166 264 215 215 c 128,-1,0
 264 166 264 166 333 166 c 128,-1,1
333 100 m 128,-1,9
 237 100 237 100 168.5 168.5 c 128,-1,10
 100 237 100 237 100 333 c 128,-1,11
 100 429 100 429 168.5 497.5 c 128,-1,12
 237 566 237 566 333 566 c 128,-1,13
 429 566 429 566 497.5 497.5 c 128,-1,14
 566 429 566 429 566 333 c 128,-1,15
 566 237 566 237 497.5 168.5 c 128,-1,8
 429 100 429 100 333 100 c 128,-1,9
EndSplineSet
Validated: 1
EndChar

StartChar: onedeva
Encoding: 2407 2407 152
Width: 665
GlyphClass: 2
Flags: W
LayerCount: 2
Fore
SplineSet
326 399 m 0,0,1
 373 399 373 399 406 434.5 c 128,-1,2
 439 470 439 470 439 519 c 0,3,4
 439 571 439 571 406 608.5 c 128,-1,5
 373 646 373 646 326 646 c 0,6,7
 282 646 282 646 251 608.5 c 128,-1,8
 220 571 220 571 220 519 c 0,9,10
 220 470 220 470 251 434.5 c 128,-1,11
 282 399 282 399 326 399 c 0,0,1
446 -33 m 1,12,-1
 446 386 l 1,13,14
 423 364 423 364 392 352 c 128,-1,15
 361 340 361 340 326 340 c 0,16,17
 254 340 254 340 203.5 392.5 c 128,-1,18
 153 445 153 445 153 519 c 0,19,20
 153 594 153 594 203.5 646.5 c 128,-1,21
 254 699 254 699 326 699 c 0,22,23
 411 699 411 699 462 644.5 c 128,-1,24
 513 590 513 590 513 499 c 2,25,-1
 513 -33 l 1,26,-1
 446 -33 l 1,12,-1
EndSplineSet
Validated: 1
EndChar

StartChar: twodeva
Encoding: 2408 2408 153
Width: 665
GlyphClass: 2
Flags: W
LayerCount: 2
Fore
SplineSet
479 -47 m 1,0,-1
 306 186 l 1,1,2
 300 184 300 184 288 182 c 128,-1,3
 276 180 276 180 260 180 c 0,4,5
 218 180 218 180 189 203 c 128,-1,6
 160 226 160 226 160 260 c 0,7,8
 160 282 160 282 179 297.5 c 128,-1,9
 198 313 198 313 226 313 c 0,10,11
 252 313 252 313 280 299 c 128,-1,12
 308 285 308 285 333 260 c 1,13,14
 402 285 402 285 444 343.5 c 128,-1,15
 486 402 486 402 486 473 c 0,16,17
 486 542 486 542 441.5 590.5 c 128,-1,18
 397 639 397 639 333 639 c 0,19,20
 288 639 288 639 242 620.5 c 128,-1,21
 196 602 196 602 153 566 c 1,22,-1
 113 619 l 1,23,24
 164 660 164 660 220.5 683 c 128,-1,25
 277 706 277 706 333 706 c 0,26,27
 423 706 423 706 488 637.5 c 128,-1,28
 553 569 553 569 553 473 c 0,29,30
 553 385 553 385 503.5 313.5 c 128,-1,31
 454 242 454 242 373 213 c 1,32,-1
 533 -7 l 1,33,-1
 479 -47 l 1,0,-1
EndSplineSet
Validated: 1
EndChar

StartChar: threedeva
Encoding: 2409 2409 154
Width: 664
GlyphClass: 2
Flags: W
LayerCount: 2
Fore
SplineSet
395 -146 m 1,0,1
 368 -130 368 -130 337 -87.5 c 128,-1,2
 306 -45 306 -45 276 20 c 1,3,4
 226 20 226 20 191 49.5 c 128,-1,5
 156 79 156 79 156 120 c 0,6,7
 156 142 156 142 173 157.5 c 128,-1,8
 190 173 190 173 216 173 c 128,-1,9
 242 173 242 173 271 150 c 128,-1,10
 300 127 300 127 322 87 c 1,11,12
 384 97 384 97 423 136.5 c 128,-1,13
 462 176 462 176 462 226 c 0,14,15
 462 281 462 281 415.5 320.5 c 128,-1,16
 369 360 369 360 302 360 c 2,17,-1
 229 360 l 1,18,-1
 196 419 l 1,19,-1
 316 419 l 2,20,21
 365 419 365 419 400 450.5 c 128,-1,22
 435 482 435 482 435 526 c 0,23,24
 435 567 435 567 398 596.5 c 128,-1,25
 361 626 361 626 309 626 c 0,26,27
 280 626 280 626 244.5 614 c 128,-1,28
 209 602 209 602 169 579 c 1,29,-1
 136 626 l 1,30,31
 174 658 174 658 220 675 c 128,-1,32
 266 692 266 692 316 692 c 0,33,34
 393 692 393 692 447.5 643.5 c 128,-1,35
 502 595 502 595 502 526 c 0,36,37
 502 485 502 485 478.5 447 c 128,-1,38
 455 409 455 409 415 386 c 1,39,40
 467 362 467 362 498 319 c 128,-1,41
 529 276 529 276 529 226 c 0,42,43
 529 157 529 157 476 102.5 c 128,-1,44
 423 48 423 48 342 33 c 1,45,46
 374 -23 374 -23 401.5 -57 c 128,-1,47
 429 -91 429 -91 449 -100 c 1,48,-1
 395 -146 l 1,0,1
EndSplineSet
Validated: 1
EndChar

StartChar: fourdeva
Encoding: 2410 2410 155
Width: 664
GlyphClass: 2
Flags: W
LayerCount: 2
Fore
SplineSet
336 60 m 0,0,1
 382 60 382 60 415.5 91.5 c 128,-1,2
 449 123 449 123 449 166 c 0,3,4
 449 206 449 206 418 244 c 128,-1,5
 387 282 387 282 336 306 c 1,6,7
 288 289 288 289 258.5 250.5 c 128,-1,8
 229 212 229 212 229 166 c 0,9,10
 229 123 229 123 260.5 91.5 c 128,-1,11
 292 60 292 60 336 60 c 0,0,1
336 0 m 0,12,13
 264 0 264 0 213 48.5 c 128,-1,14
 162 97 162 97 162 166 c 0,15,16
 162 218 162 218 194 266 c 128,-1,17
 226 314 226 314 282 346 c 1,18,19
 200 385 200 385 151.5 443 c 128,-1,20
 103 501 103 501 103 559 c 0,21,22
 103 593 103 593 118.5 624 c 128,-1,23
 134 655 134 655 162 679 c 1,24,-1
 216 646 l 1,25,26
 193 623 193 623 181 600.5 c 128,-1,27
 169 578 169 578 169 559 c 0,28,29
 169 509 169 509 215 461 c 128,-1,30
 261 413 261 413 336 386 c 1,31,32
 410 429 410 429 452.5 475.5 c 128,-1,33
 495 522 495 522 495 559 c 0,34,35
 495 578 495 578 483 602 c 128,-1,36
 471 626 471 626 449 652 c 1,37,-1
 509 686 l 1,38,39
 534 660 534 660 548 627 c 128,-1,40
 562 594 562 594 562 559 c 0,41,42
 562 505 562 505 517.5 447.5 c 128,-1,43
 473 390 473 390 395 346 c 1,44,45
 451 314 451 314 483 266 c 128,-1,46
 515 218 515 218 515 166 c 0,47,48
 515 97 515 97 462.5 48.5 c 128,-1,49
 410 0 410 0 336 0 c 0,12,13
EndSplineSet
Validated: 1
EndChar

StartChar: fivedeva
Encoding: 2411 2411 156
Width: 665
GlyphClass: 2
Flags: W
LayerCount: 2
Fore
SplineSet
466 -87 m 1,0,-1
 433 -33 l 1,1,2
 461 -13 461 -13 477 8 c 128,-1,3
 493 29 493 29 493 47 c 0,4,5
 493 63 493 63 486 90 c 128,-1,6
 479 117 479 117 466 153 c 1,7,-1
 419 306 l 1,8,9
 397 290 397 290 369.5 281.5 c 128,-1,10
 342 273 342 273 313 273 c 0,11,12
 225 273 225 273 162.5 337.5 c 128,-1,13
 100 402 100 402 100 493 c 0,14,15
 100 555 100 555 113.5 611 c 128,-1,16
 127 667 127 667 153 712 c 1,17,-1
 213 686 l 1,18,19
 190 646 190 646 178 596.5 c 128,-1,20
 166 547 166 547 166 493 c 0,21,22
 166 426 166 426 209 379.5 c 128,-1,23
 252 333 252 333 313 333 c 0,24,25
 337 333 337 333 359 339.5 c 128,-1,26
 381 346 381 346 399 360 c 1,27,28
 393 374 393 374 389.5 402.5 c 128,-1,29
 386 431 386 431 386 473 c 0,30,31
 386 517 386 517 409.5 548 c 128,-1,32
 433 579 433 579 466 579 c 0,33,34
 494 579 494 579 513.5 548 c 128,-1,35
 533 517 533 517 533 473 c 0,36,37
 533 445 533 445 519 414.5 c 128,-1,38
 505 384 505 384 479 353 c 1,39,-1
 539 153 l 1,40,41
 553 117 553 117 559.5 90 c 128,-1,42
 566 63 566 63 566 47 c 0,43,44
 566 12 566 12 539.5 -24 c 128,-1,45
 513 -60 513 -60 466 -87 c 1,0,-1
EndSplineSet
Validated: 1
Substitution2: "LocalizedNpFormslookup2 subtable" fivedeva.np
EndChar

StartChar: sixdeva
Encoding: 2412 2412 157
Width: 665
GlyphClass: 2
Flags: W
LayerCount: 2
Fore
SplineSet
499 -166 m 1,0,1
 479 -142 479 -142 456 -93.5 c 128,-1,2
 433 -45 433 -45 406 27 c 1,3,4
 304 27 304 27 232 83.5 c 128,-1,5
 160 140 160 140 160 220 c 0,6,7
 160 261 160 261 183 299 c 128,-1,8
 206 337 206 337 246 360 c 1,9,10
 192 369 192 369 156 414 c 128,-1,11
 120 459 120 459 120 519 c 0,12,13
 120 583 120 583 170.5 627.5 c 128,-1,14
 221 672 221 672 293 672 c 0,15,16
 340 672 340 672 379 663.5 c 128,-1,17
 418 655 418 655 446 639 c 1,18,-1
 426 579 l 1,19,20
 390 593 390 593 356 599.5 c 128,-1,21
 322 606 322 606 293 606 c 0,22,23
 249 606 249 606 217.5 580.5 c 128,-1,24
 186 555 186 555 186 519 c 0,25,26
 186 470 186 470 221.5 434.5 c 128,-1,27
 257 399 257 399 306 399 c 2,28,-1
 413 399 l 1,29,-1
 439 346 l 1,30,-1
 366 346 l 2,31,32
 309 346 309 346 267.5 309 c 128,-1,33
 226 272 226 272 226 220 c 0,34,35
 226 165 226 165 277 126 c 128,-1,36
 328 87 328 87 399 87 c 1,37,38
 399 130 399 130 424.5 161.5 c 128,-1,39
 450 193 450 193 486 193 c 0,40,41
 505 193 505 193 519 175.5 c 128,-1,42
 533 158 533 158 533 133 c 0,43,44
 533 107 533 107 517 80 c 128,-1,45
 501 53 501 53 473 33 c 1,46,47
 479 9 479 9 498 -29.5 c 128,-1,48
 517 -68 517 -68 546 -120 c 1,49,-1
 499 -166 l 1,0,1
EndSplineSet
Validated: 1
EndChar

StartChar: sevendeva
Encoding: 2413 2413 158
Width: 665
GlyphClass: 2
Flags: W
LayerCount: 2
Fore
SplineSet
499 240 m 1,0,1
 506 277 506 277 509.5 309 c 128,-1,2
 513 341 513 341 513 366 c 0,3,4
 513 441 513 441 487.5 493.5 c 128,-1,5
 462 546 462 546 426 546 c 0,6,7
 393 546 393 546 369.5 506.5 c 128,-1,8
 346 467 346 467 346 413 c 0,9,10
 346 341 346 341 390.5 290.5 c 128,-1,11
 435 240 435 240 499 240 c 1,0,1
340 0 m 0,12,13
 234 0 234 0 160.5 103 c 128,-1,14
 87 206 87 206 87 353 c 0,15,16
 87 386 87 386 91.5 446 c 128,-1,17
 96 506 96 506 107 633 c 1,18,-1
 180 672 l 1,19,20
 166 597 166 597 159.5 517 c 128,-1,21
 153 437 153 437 153 353 c 0,22,23
 153 232 153 232 207.5 146 c 128,-1,24
 262 60 262 60 340 60 c 0,25,26
 384 60 384 60 424.5 96.5 c 128,-1,27
 465 133 465 133 486 193 c 1,28,29
 403 193 403 193 344.5 257.5 c 128,-1,30
 286 322 286 322 286 413 c 0,31,32
 286 493 286 493 327.5 549.5 c 128,-1,33
 369 606 369 606 426 606 c 0,34,35
 490 606 490 606 534.5 536 c 128,-1,36
 579 466 579 466 579 366 c 0,37,38
 579 200 579 200 514 100 c 128,-1,39
 449 0 449 0 340 0 c 0,12,13
EndSplineSet
Validated: 1
EndChar

StartChar: eightdeva
Encoding: 2414 2414 159
Width: 665
GlyphClass: 2
Flags: W
LayerCount: 2
Fore
SplineSet
346 0 m 0,0,1
 244 0 244 0 172 62.5 c 128,-1,2
 100 125 100 125 100 213 c 0,3,4
 100 250 100 250 115 287 c 128,-1,5
 130 324 130 324 160 353 c 1,6,-1
 473 679 l 1,7,-1
 519 633 l 1,8,-1
 213 313 l 2,9,10
 194 293 194 293 183.5 267 c 128,-1,11
 173 241 173 241 173 213 c 0,12,13
 173 149 173 149 223.5 104.5 c 128,-1,14
 274 60 274 60 346 60 c 0,15,16
 386 60 386 60 431.5 88 c 128,-1,17
 477 116 477 116 519 166 c 1,18,-1
 566 120 l 1,19,20
 518 63 518 63 460.5 31.5 c 128,-1,21
 403 0 403 0 346 0 c 0,0,1
EndSplineSet
Validated: 1
Substitution2: "LocalizedNpFormslookup2 subtable" eightdeva.np
EndChar

StartChar: ninedeva
Encoding: 2415 2415 160
Width: 664
GlyphClass: 2
Flags: W
LayerCount: 2
Fore
SplineSet
302 406 m 0,0,1
 346 406 346 406 377.5 443.5 c 128,-1,2
 409 481 409 481 409 533 c 0,3,4
 409 582 409 582 377.5 617 c 128,-1,5
 346 652 346 652 302 652 c 0,6,7
 253 652 253 652 217.5 617 c 128,-1,8
 182 582 182 582 182 533 c 0,9,10
 182 481 182 481 217.5 443.5 c 128,-1,11
 253 406 253 406 302 406 c 0,0,1
415 -93 m 1,12,-1
 395 -33 l 1,13,14
 431 -33 431 -33 456.5 -19 c 128,-1,15
 482 -5 482 -5 482 13 c 0,16,17
 482 24 482 24 470.5 40.5 c 128,-1,18
 459 57 459 57 435 87 c 1,19,-1
 229 313 l 1,20,21
 174 368 174 368 145 428.5 c 128,-1,22
 116 489 116 489 116 546 c 0,23,24
 116 621 116 621 170.5 673.5 c 128,-1,25
 225 726 225 726 302 726 c 0,26,27
 377 726 377 726 429.5 669.5 c 128,-1,28
 482 613 482 613 482 533 c 0,29,30
 482 455 482 455 437.5 400.5 c 128,-1,31
 393 346 393 346 329 346 c 0,32,33
 324 346 324 346 314 347.5 c 128,-1,34
 304 349 304 349 282 353 c 1,35,-1
 509 100 l 2,36,37
 529 77 529 77 539 54.5 c 128,-1,38
 549 32 549 32 549 13 c 0,39,40
 549 -27 549 -27 510 -57.5 c 128,-1,41
 471 -88 471 -88 415 -93 c 1,12,-1
EndSplineSet
Validated: 1
EndChar

StartChar: abbreviationsigndeva
Encoding: 2416 2416 161
Width: 545
GlyphClass: 2
Flags: W
LayerCount: 2
Fore
SplineSet
274 381 m 0,0,1
 320 381 320 381 352.5 414.5 c 128,-1,2
 385 448 385 448 385 496 c 128,-1,3
 385 544 385 544 352.5 577 c 128,-1,4
 320 610 320 610 274 610 c 0,5,6
 229 610 229 610 196.5 577 c 128,-1,7
 164 544 164 544 164 496 c 128,-1,8
 164 448 164 448 196.5 414.5 c 128,-1,9
 229 381 229 381 274 381 c 0,0,1
273 325 m 128,-1,11
 201 325 201 325 150.5 375 c 128,-1,12
 100 425 100 425 100 496 c 0,13,14
 100 566 100 566 150.5 616 c 128,-1,15
 201 666 201 666 273 666 c 128,-1,16
 345 666 345 666 395.5 616 c 128,-1,17
 446 566 446 566 446 496 c 0,18,19
 446 425 446 425 395.5 375 c 128,-1,10
 345 325 345 325 273 325 c 128,-1,11
EndSplineSet
Validated: 1
EndChar

StartChar: highspacingdotdeva
Encoding: 2417 2417 162
Width: 180
GlyphClass: 2
Flags: W
LayerCount: 2
Fore
SplineSet
40 588 m 1,0,-1
 40 681 l 1,1,-1
 140 681 l 1,2,-1
 140 588 l 1,3,-1
 40 588 l 1,0,-1
EndSplineSet
Validated: 1
EndChar

StartChar: oedeva
Encoding: 2419 2419 164
Width: 768
GlyphClass: 2
Flags: W
AnchorPoint: "DVAnchor3" 636 664 basechar 0
LayerCount: 2
Fore
SplineSet
668 820 m 1,0,-1
 668 666 l 1,1,-1
 782 666 l 1,2,-1
 782 606 l 1,3,-1
 668 606 l 1,4,-1
 668 0 l 1,5,-1
 602 0 l 1,6,-1
 602 300 l 1,7,8
 586 286 586 286 569.5 279.5 c 128,-1,9
 553 273 553 273 535 273 c 0,10,11
 507 273 507 273 484.5 278.5 c 128,-1,12
 462 284 462 284 449 293 c 1,13,14
 462 282 462 282 468.5 263 c 128,-1,15
 475 244 475 244 475 220 c 0,16,17
 475 148 475 148 426.5 97.5 c 128,-1,18
 378 47 378 47 309 47 c 0,19,20
 229 47 229 47 154 113.5 c 128,-1,21
 79 180 79 180 23 300 c 1,22,-1
 72 328 l 1,23,24
 120 226 120 226 182 169.5 c 128,-1,25
 244 113 244 113 309 113 c 0,26,27
 350 113 350 113 379.5 143.5 c 128,-1,28
 409 174 409 174 409 218 c 0,29,30
 409 272 409 272 375.5 309 c 128,-1,31
 342 346 342 346 296 346 c 0,32,33
 281 346 281 346 264.5 343 c 128,-1,34
 248 340 248 340 229 333 c 1,35,-1
 202 393 l 1,36,37
 262 398 262 398 308 434.5 c 128,-1,38
 354 471 354 471 354 513 c 0,39,40
 354 551 354 551 331 578.5 c 128,-1,41
 308 606 308 606 276 606 c 0,42,43
 237 606 237 606 195 581.5 c 128,-1,44
 153 557 153 557 116 513 c 1,45,-1
 69 559 l 1,46,47
 104 610 104 610 158.5 638 c 128,-1,48
 213 666 213 666 276 666 c 0,49,50
 337 666 337 666 379.5 621.5 c 128,-1,51
 422 577 422 577 422 513 c 0,52,53
 422 479 422 479 406 448 c 128,-1,54
 390 417 390 417 362 393 c 1,55,56
 413 364 413 364 452 348.5 c 128,-1,57
 491 333 491 333 515 333 c 0,58,59
 530 333 530 333 552 341.5 c 128,-1,60
 574 350 574 350 602 366 c 1,61,-1
 602 606 l 1,62,-1
 482 606 l 1,63,-1
 482 666 l 1,64,-1
 602 666 l 1,65,-1
 602 820 l 1,66,-1
 668 820 l 1,0,-1
EndSplineSet
Validated: 1
EndChar

StartChar: ooedeva
Encoding: 2420 2420 165
Width: 1042
GlyphClass: 2
Flags: W
LayerCount: 2
Fore
SplineSet
937 820 m 1,0,-1
 938 666 l 1,1,-1
 1056 666 l 1,2,-1
 1056 606 l 1,3,-1
 943 606 l 1,4,-1
 943 0 l 1,5,-1
 876 0 l 1,6,-1
 876 606 l 1,7,-1
 670 606 l 1,8,-1
 670 0 l 1,9,-1
 603 0 l 1,10,-1
 603 300 l 1,11,12
 587 286 587 286 570.5 279.5 c 128,-1,13
 554 273 554 273 537 273 c 0,14,15
 509 273 509 273 486 278.5 c 128,-1,16
 463 284 463 284 450 293 c 1,17,18
 463 282 463 282 470 263 c 128,-1,19
 477 244 477 244 477 220 c 0,20,21
 477 148 477 148 428.5 97.5 c 128,-1,22
 380 47 380 47 310 47 c 0,23,24
 230 47 230 47 155 113.5 c 128,-1,25
 80 180 80 180 24 300 c 1,26,-1
 71 340 l 1,27,28
 121 232 121 232 183.5 172.5 c 128,-1,29
 246 113 246 113 310 113 c 0,30,31
 352 113 352 113 381 144.5 c 128,-1,32
 410 176 410 176 410 220 c 0,33,34
 410 272 410 272 377 309 c 128,-1,35
 344 346 344 346 297 346 c 0,36,37
 282 346 282 346 265.5 343 c 128,-1,38
 249 340 249 340 230 333 c 1,39,-1
 204 393 l 1,40,41
 264 398 264 398 310.5 436.5 c 128,-1,42
 357 475 357 475 357 519 c 0,43,44
 357 555 357 555 329.5 580.5 c 128,-1,45
 302 606 302 606 264 606 c 0,46,47
 232 606 232 606 193 581.5 c 128,-1,48
 154 557 154 557 117 513 c 1,49,-1
 71 559 l 1,50,51
 108 613 108 613 159 642.5 c 128,-1,52
 210 672 210 672 264 672 c 0,53,54
 330 672 330 672 376.5 627.5 c 128,-1,55
 423 583 423 583 423 519 c 0,56,57
 423 483 423 483 407 450 c 128,-1,58
 391 417 391 417 364 393 c 1,59,60
 414 364 414 364 454.5 348.5 c 128,-1,61
 495 333 495 333 523 333 c 0,62,63
 539 333 539 333 560 341.5 c 128,-1,64
 581 350 581 350 603 366 c 1,65,-1
 603 606 l 1,66,-1
 483 606 l 1,67,-1
 483 666 l 1,68,-1
 871 666 l 1,69,-1
 871 820 l 1,70,-1
 937 820 l 1,0,-1
EndSplineSet
Validated: 1
EndChar

StartChar: awdeva
Encoding: 2421 2421 166
Width: 1042
GlyphClass: 2
Flags: W
LayerCount: 2
Fore
SplineSet
310 47 m 0,0,1
 230 47 230 47 155 113.5 c 128,-1,2
 80 180 80 180 24 300 c 1,3,-1
 71 340 l 1,4,5
 121 232 121 232 183.5 172.5 c 128,-1,6
 246 113 246 113 310 113 c 0,7,8
 352 113 352 113 381 144.5 c 128,-1,9
 410 176 410 176 410 220 c 0,10,11
 410 272 410 272 377 309 c 128,-1,12
 344 346 344 346 297 346 c 0,13,14
 282 346 282 346 265.5 343 c 128,-1,15
 249 340 249 340 230 333 c 1,16,-1
 204 393 l 1,17,18
 264 398 264 398 310.5 434.5 c 128,-1,19
 357 471 357 471 357 513 c 0,20,21
 357 551 357 551 325.5 578.5 c 128,-1,22
 294 606 294 606 250 606 c 0,23,24
 220 606 220 606 186 583.5 c 128,-1,25
 152 561 152 561 124 519 c 1,26,-1
 71 559 l 1,27,28
 108 613 108 613 156 642.5 c 128,-1,29
 204 672 204 672 250 672 c 0,30,31
 322 672 322 672 372.5 625.5 c 128,-1,32
 423 579 423 579 423 513 c 0,33,34
 423 479 423 479 407 448 c 128,-1,35
 391 417 391 417 364 393 c 1,36,37
 414 364 414 364 456.5 348.5 c 128,-1,38
 499 333 499 333 530 333 c 0,39,40
 539 333 539 333 556 341 c 128,-1,41
 573 349 573 349 603 366 c 1,42,-1
 603 606 l 1,43,-1
 483 606 l 1,44,-1
 483 666 l 1,45,-1
 844 666 l 1,46,47
 831 690 831 690 808 708 c 0,48,49
 763 744 763 744 709 736 c 0,50,51
 636 725 636 725 577.5 755.5 c 128,-1,52
 519 786 519 786 494 863 c 1,53,-1
 560 872 l 1,54,55
 577 819 577 819 615 800 c 128,-1,56
 653 781 653 781 701 788 c 0,57,58
 783 800 783 800 831 750 c 0,59,60
 864 715 864 715 880 666 c 1,61,-1
 916 666 l 1,62,63
 916 701 916 701 898 734 c 0,64,65
 871 784 871 784 817 797 c 1,66,67
 747 816 747 816 704.5 867 c 128,-1,68
 662 918 662 918 669 998 c 1,69,-1
 733 981 l 1,70,71
 728 925 728 925 756 893 c 128,-1,72
 784 861 784 861 831 849 c 0,73,74
 911 828 911 828 936 763 c 0,75,76
 953 718 953 718 949 666 c 1,77,-1
 1056 666 l 1,78,-1
 1056 606 l 1,79,-1
 943 606 l 1,80,-1
 943 0 l 1,81,-1
 876 0 l 1,82,-1
 876 606 l 1,83,-1
 670 606 l 1,84,-1
 670 0 l 1,85,-1
 603 0 l 1,86,-1
 603 300 l 1,87,88
 587 286 587 286 570.5 279.5 c 128,-1,89
 554 273 554 273 537 273 c 0,90,91
 509 273 509 273 486 278.5 c 128,-1,92
 463 284 463 284 450 293 c 1,93,94
 463 282 463 282 470 263 c 128,-1,95
 477 244 477 244 477 220 c 0,96,97
 477 148 477 148 428.5 97.5 c 128,-1,98
 380 47 380 47 310 47 c 0,0,1
EndSplineSet
Validated: 33
EndChar

StartChar: zhadeva
Encoding: 2425 2425 169
Width: 728
GlyphClass: 2
Flags: W
LayerCount: 2
Fore
SplineSet
301 -189 m 1,0,-1
 248 -137 l 1,1,-1
 301 -83 l 1,2,-1
 354 -137 l 1,3,-1
 301 -189 l 1,0,-1
424 -69 m 1,4,-1
 371 -17 l 1,5,-1
 424 37 l 1,6,-1
 477 -17 l 1,7,-1
 424 -69 l 1,4,-1
174 -69 m 1,8,-1
 121 -17 l 1,9,-1
 174 37 l 1,10,-1
 227 -17 l 1,11,-1
 174 -69 l 1,8,-1
EndSplineSet
Refer: 77 2332 S 1 0 0 1 0 0 2
EndChar

StartChar: yaheavydeva
Encoding: 2426 2426 170
Width: 596
GlyphClass: 2
Flags: W
AnchorPoint: "DVAnchor3" 464 664 basechar 0
AnchorPoint: "DVAnchor0" 466 26 basechar 0
LayerCount: 2
Fore
SplineSet
404 262 m 1,0,-1
 249 426 l 1,1,2
 238 396 238 396 212 370 c 0,3,4
 166 325 166 325 97 313 c 1,5,6
 107 261 107 261 152 227 c 128,-1,7
 197 193 197 193 257 193 c 0,8,9
 309 193 309 193 356 222 c 0,10,11
 383 238 383 238 404 262 c 1,0,-1
430 308 m 1,12,-1
 430 606 l 1,13,-1
 204 606 l 1,14,15
 229 575 229 575 243 540 c 0,16,17
 252 517 252 517 256 495 c 1,18,-1
 430 308 l 1,12,-1
-13 606 m 1,19,-1
 -13 666 l 1,20,-1
 610 666 l 1,21,-1
 610 606 l 1,22,-1
 497 606 l 1,23,-1
 497 0 l 1,24,-1
 430 0 l 1,25,-1
 430 206 l 1,26,27
 391 168 391 168 346.5 147.5 c 128,-1,28
 302 127 302 127 257 127 c 0,29,30
 161 127 161 127 92.5 196.5 c 128,-1,31
 24 266 24 266 24 366 c 1,32,33
 100 366 100 366 145 395.5 c 128,-1,34
 190 425 190 425 190 473 c 0,35,36
 190 505 190 505 173 539.5 c 128,-1,37
 156 574 156 574 124 606 c 1,38,-1
 -13 606 l 1,19,-1
EndSplineSet
Validated: 1
EndChar

StartChar: ggadeva
Encoding: 2427 2427 171
Width: 517
GlyphClass: 2
Flags: W
AnchorPoint: "DVAnchor3" 390 663 basechar 0
LayerCount: 2
Fore
SplineSet
-13 606 m 1,0,-1
 -13 666 l 1,1,-1
 531 666 l 1,2,-1
 531 606 l 1,3,-1
 418 606 l 1,4,-1
 418 0 l 1,5,-1
 418 -60 l 1,6,-1
 -14 -60 l 1,7,-1
 -14 0 l 1,8,-1
 352 0 l 1,9,-1
 352 606 l 1,10,-1
 185 606 l 1,11,-1
 185 280 l 2,12,13
 185 264 185 264 175 252 c 128,-1,14
 165 240 165 240 152 240 c 0,15,16
 127 240 127 240 73 302.5 c 128,-1,17
 19 365 19 365 19 393 c 0,18,19
 19 403 19 403 27 411 c 128,-1,20
 35 419 35 419 45 419 c 2,21,-1
 92 419 l 2,22,23
 103 419 103 419 111 429 c 128,-1,24
 119 439 119 439 119 453 c 2,25,-1
 119 606 l 1,26,-1
 -13 606 l 1,0,-1
EndSplineSet
Validated: 1
EndChar

StartChar: jjadeva
Encoding: 2428 2428 172
Width: 728
GlyphClass: 2
Flags: W
AnchorPoint: "DVAnchor3" 596 666 basechar 0
LayerCount: 2
Fore
SplineSet
-2 -61 m 5,0,-1
 -2 -1 l 5,1,-1
 627 -1 l 5,2,-1
 627 -61 l 5,3,-1
 -2 -61 l 5,0,-1
EndSplineSet
Refer: 77 2332 N 1 0 0 1 0 0 2
EndChar

StartChar: glottalstopdeva
Encoding: 2429 2429 173
Width: 631
GlyphClass: 2
Flags: W
LayerCount: 2
Fore
SplineSet
284 255 m 1,0,-1
 284 0 l 1,1,-1
 218 0 l 1,2,-1
 218 322 l 1,3,4
 338 319 338 319 376 339 c 0,5,6
 461 384 461 384 459 472 c 0,7,8
 457 587 457 587 308 599 c 0,9,10
 219 606 219 606 156 537 c 1,11,-1
 104 580 l 1,12,13
 123 609 123 609 189 642 c 0,14,15
 266 681 266 681 379 654 c 0,16,17
 522 619 522 619 527 481 c 0,18,19
 531 380 531 380 466 311 c 1,20,21
 414 258 414 258 284 255 c 1,0,-1
EndSplineSet
Validated: 33
EndChar

StartChar: dddadeva
Encoding: 2430 2430 174
Width: 717
GlyphClass: 2
Flags: W
AnchorPoint: "DVAnchor3" 497 666 basechar 0
LayerCount: 2
Fore
SplineSet
22 -60 m 1,0,-1
 22 0 l 1,1,-1
 668 0 l 1,2,-1
 668 -60 l 1,3,-1
 22 -60 l 1,0,-1
EndSplineSet
Refer: 82 2337 S 1 0 0 1 30 0 2
EndChar

StartChar: bbadeva
Encoding: 2431 2431 175
Width: 537
GlyphClass: 2
Flags: W
AnchorPoint: "DVAnchor3" 406 665 basechar 0
LayerCount: 2
Fore
SplineSet
225 213 m 0,0,1
 249 213 249 213 269 219.5 c 128,-1,2
 289 226 289 226 305 240 c 1,3,-1
 125 386 l 1,4,5
 116 374 116 374 110.5 357.5 c 128,-1,6
 105 341 105 341 105 320 c 0,7,8
 105 276 105 276 140.5 244.5 c 128,-1,9
 176 213 176 213 225 213 c 0,0,1
39 320 m 0,10,11
 39 399 39 399 97.5 456 c 128,-1,12
 156 513 156 513 238 513 c 0,13,14
 264 513 264 513 286 507.5 c 128,-1,15
 308 502 308 502 325 493 c 1,16,-1
 305 439 l 1,17,18
 290 446 290 446 273.5 449.5 c 128,-1,19
 257 453 257 453 238 453 c 0,20,21
 209 453 209 453 188.5 445.5 c 128,-1,22
 168 438 168 438 158 426 c 1,23,-1
 352 280 l 1,24,-1
 372 306 l 1,25,-1
 372 606 l 1,26,-1
 -13 606 l 1,27,-1
 -13 666 l 1,28,-1
 551 666 l 1,29,-1
 551 606 l 1,30,-1
 438 606 l 1,31,-1
 438 0 l 1,32,-1
 438 -60 l 1,33,-1
 -15 -60 l 1,34,-1
 -15 0 l 1,35,-1
 372 0 l 1,36,-1
 372 213 l 1,37,38
 340 181 340 181 302 163.5 c 128,-1,39
 264 146 264 146 225 146 c 0,40,41
 148 146 148 146 93.5 197 c 128,-1,42
 39 248 39 248 39 320 c 0,10,11
EndSplineSet
EndChar

StartChar: zerowidthnonjoiner
Encoding: 8204 8204 176
Width: 0
GlyphClass: 2
Flags: W
LayerCount: 2
Fore
SplineSet
0 -326 m 1,0,-1
 0 999 l 1,1,-1
 53 999 l 1,2,-1
 53 -326 l 1,3,-1
 0 -326 l 1,0,-1
EndSplineSet
Validated: 1
EndChar

StartChar: endash
Encoding: 8211 8211 177
Width: 665
GlyphClass: 2
Flags: W
LayerCount: 2
Fore
SplineSet
0 280 m 1,0,-1
 0 340 l 1,1,-1
 666 340 l 1,2,-1
 666 280 l 1,3,-1
 0 280 l 1,0,-1
EndSplineSet
Validated: 1
EndChar

StartChar: emdash
Encoding: 8212 8212 178
Width: 1331
GlyphClass: 2
Flags: W
LayerCount: 2
Fore
SplineSet
0 280 m 1,0,-1
 0 340 l 1,1,-1
 1332 340 l 1,2,-1
 1332 280 l 1,3,-1
 0 280 l 1,0,-1
EndSplineSet
Validated: 1
EndChar

StartChar: quoteleft
Encoding: 8216 8216 179
Width: 352
GlyphClass: 2
Flags: W
LayerCount: 2
Fore
SplineSet
100 579 m 1,0,-1
 200 826 l 1,1,-1
 253 826 l 1,2,-1
 193 579 l 1,3,-1
 100 579 l 1,0,-1
EndSplineSet
Validated: 1
EndChar

StartChar: quoteright
Encoding: 8217 8217 180
Width: 386
GlyphClass: 2
Flags: W
LayerCount: 2
Fore
SplineSet
100 579 m 1,0,-1
 180 846 l 1,1,-1
 286 846 l 1,2,-1
 160 579 l 1,3,-1
 100 579 l 1,0,-1
EndSplineSet
Validated: 1
EndChar

StartChar: quotedblleft
Encoding: 8220 8220 181
Width: 539
GlyphClass: 2
Flags: W
LayerCount: 2
Fore
SplineSet
286 579 m 1,0,-1
 386 826 l 1,1,-1
 439 826 l 1,2,-1
 380 579 l 1,3,-1
 286 579 l 1,0,-1
100 579 m 1,4,-1
 200 826 l 1,5,-1
 253 826 l 1,6,-1
 193 579 l 1,7,-1
 100 579 l 1,4,-1
EndSplineSet
Validated: 1
EndChar

StartChar: quotedblright
Encoding: 8221 8221 182
Width: 572
GlyphClass: 2
Flags: W
LayerCount: 2
Fore
SplineSet
286 579 m 1,0,-1
 366 846 l 1,1,-1
 473 846 l 1,2,-1
 346 579 l 1,3,-1
 286 579 l 1,0,-1
100 579 m 1,4,-1
 180 846 l 1,5,-1
 286 846 l 1,6,-1
 160 579 l 1,7,-1
 100 579 l 1,4,-1
EndSplineSet
Validated: 1
EndChar

StartChar: ellipsis
Encoding: 8230 8230 183
Width: 1038
GlyphClass: 2
Flags: W
LayerCount: 2
Fore
SplineSet
792 0 m 1,0,-1
 792 60 l 1,1,-1
 939 60 l 1,2,-1
 939 0 l 1,3,-1
 792 0 l 1,0,-1
446 0 m 1,4,-1
 446 60 l 1,5,-1
 593 60 l 1,6,-1
 593 0 l 1,7,-1
 446 0 l 1,4,-1
100 0 m 1,8,-1
 100 60 l 1,9,-1
 246 60 l 1,10,-1
 246 0 l 1,11,-1
 100 0 l 1,8,-1
EndSplineSet
Validated: 1
EndChar

StartChar: inr_currency
Encoding: 8377 8377 184
Width: 609
GlyphClass: 2
Flags: W
LayerCount: 2
Fore
SplineSet
358 500 m 0,0,1
 359 509 359 509 359 514 c 1,2,-1
 59 514 l 1,3,-1
 85 577 l 1,4,-1
 346 577 l 1,5,6
 340 589 340 589 331 599 c 0,7,8
 280 654 280 654 165 654 c 2,9,-1
 59 654 l 1,10,-1
 85 717 l 1,11,-1
 583 717 l 1,12,-1
 557 654 l 1,13,-1
 367 654 l 1,14,15
 406 631 406 631 420 577 c 1,16,-1
 583 577 l 1,17,-1
 557 514 l 1,18,-1
 429 514 l 1,19,20
 429 359 429 359 171 340 c 1,21,-1
 507 0 l 1,22,-1
 407 0 l 1,23,-1
 70 337 l 1,24,-1
 70 396 l 1,25,26
 346 394 346 394 358 500 c 0,0,1
EndSplineSet
Validated: 33
EndChar

StartChar: minus
Encoding: 8722 8722 185
Width: 692
GlyphClass: 2
Flags: W
LayerCount: 2
Fore
SplineSet
100 293 m 1,0,-1
 100 366 l 1,1,-1
 593 366 l 1,2,-1
 593 293 l 1,3,-1
 100 293 l 1,0,-1
EndSplineSet
Validated: 1
EndChar

StartChar: dottedcircle
Encoding: 9676 9676 186
Width: 918
GlyphClass: 2
Flags: W
LayerCount: 2
Fore
SplineSet
567 64 m 128,-1,1
 567 84 567 84 581 98 c 128,-1,2
 595 112 595 112 615 112 c 128,-1,3
 635 112 635 112 649 98 c 128,-1,4
 663 84 663 84 663 64 c 128,-1,5
 663 44 663 44 649 29.5 c 128,-1,6
 635 15 635 15 615 15 c 128,-1,7
 595 15 595 15 581 29.5 c 128,-1,0
 567 44 567 44 567 64 c 128,-1,1
256 603 m 128,-1,9
 256 623 256 623 270 637 c 128,-1,10
 284 651 284 651 304 651 c 128,-1,11
 324 651 324 651 338 637 c 128,-1,12
 352 623 352 623 352 603 c 128,-1,13
 352 583 352 583 338 569 c 128,-1,14
 324 555 324 555 304 555 c 128,-1,15
 284 555 284 555 270 569 c 128,-1,8
 256 583 256 583 256 603 c 128,-1,9
682 177 m 128,-1,17
 682 197 682 197 696 211 c 128,-1,18
 710 225 710 225 730 225 c 128,-1,19
 750 225 750 225 764 211 c 128,-1,20
 778 197 778 197 778 177 c 128,-1,21
 778 157 778 157 764 143 c 128,-1,22
 750 129 750 129 730 129 c 128,-1,23
 710 129 710 129 696 143 c 128,-1,16
 682 157 682 157 682 177 c 128,-1,17
142 489 m 128,-1,25
 142 509 142 509 156 523 c 128,-1,26
 170 537 170 537 190 537 c 128,-1,27
 210 537 210 537 224 523 c 128,-1,28
 238 509 238 509 238 489 c 128,-1,29
 238 469 238 469 224 455 c 128,-1,30
 210 441 210 441 190 441 c 128,-1,31
 170 441 170 441 156 455 c 128,-1,24
 142 469 142 469 142 489 c 128,-1,25
256 64 m 128,-1,33
 256 84 256 84 270 98 c 128,-1,34
 284 112 284 112 304 112 c 128,-1,35
 324 112 324 112 338 98 c 128,-1,36
 352 84 352 84 352 64 c 128,-1,37
 352 44 352 44 338 29.5 c 128,-1,38
 324 15 324 15 304 15 c 128,-1,39
 284 15 284 15 270 29.5 c 128,-1,32
 256 44 256 44 256 64 c 128,-1,33
567 603 m 128,-1,41
 567 623 567 623 581 637 c 128,-1,42
 595 651 595 651 615 651 c 128,-1,43
 635 651 635 651 649 637 c 128,-1,44
 663 623 663 623 663 603 c 128,-1,45
 663 583 663 583 649 569 c 128,-1,46
 635 555 635 555 615 555 c 128,-1,47
 595 555 595 555 581 569 c 128,-1,40
 567 583 567 583 567 603 c 128,-1,41
682 489 m 128,-1,49
 682 509 682 509 696 523 c 128,-1,50
 710 537 710 537 730 537 c 128,-1,51
 750 537 750 537 764 523 c 128,-1,52
 778 509 778 509 778 489 c 128,-1,53
 778 469 778 469 764 455 c 128,-1,54
 750 441 750 441 730 441 c 128,-1,55
 710 441 710 441 696 455 c 128,-1,48
 682 469 682 469 682 489 c 128,-1,49
142 177 m 128,-1,57
 142 197 142 197 156 211 c 128,-1,58
 170 225 170 225 190 225 c 128,-1,59
 210 225 210 225 224 211 c 128,-1,60
 238 197 238 197 238 177 c 128,-1,61
 238 157 238 157 224 143 c 128,-1,62
 210 129 210 129 190 129 c 128,-1,63
 170 129 170 129 156 143 c 128,-1,56
 142 157 142 157 142 177 c 128,-1,57
723 333 m 128,-1,65
 723 353 723 353 737 367 c 128,-1,66
 751 381 751 381 771 381 c 128,-1,67
 791 381 791 381 805 367 c 128,-1,68
 819 353 819 353 819 333 c 128,-1,69
 819 313 819 313 805 299 c 128,-1,70
 791 285 791 285 771 285 c 128,-1,71
 751 285 751 285 737 299 c 128,-1,64
 723 313 723 313 723 333 c 128,-1,65
100 333 m 128,-1,73
 100 353 100 353 114 367 c 128,-1,74
 128 381 128 381 148 381 c 128,-1,75
 168 381 168 381 182 367 c 128,-1,76
 196 353 196 353 196 333 c 128,-1,77
 196 313 196 313 182 299 c 128,-1,78
 168 285 168 285 148 285 c 128,-1,79
 128 285 128 285 114 299 c 128,-1,72
 100 313 100 313 100 333 c 128,-1,73
411 21 m 128,-1,81
 411 41 411 41 425 55 c 128,-1,82
 439 69 439 69 459 69 c 128,-1,83
 479 69 479 69 493 55 c 128,-1,84
 507 41 507 41 507 21 c 128,-1,85
 507 1 507 1 493 -13 c 128,-1,86
 479 -27 479 -27 459 -27 c 128,-1,87
 439 -27 439 -27 425 -13 c 128,-1,80
 411 1 411 1 411 21 c 128,-1,81
411 644 m 0,88,89
 411 664 411 664 425 678 c 128,-1,90
 439 692 439 692 459 692 c 128,-1,91
 479 692 479 692 493 678 c 128,-1,92
 507 664 507 664 507 644 c 0,93,94
 507 625 507 625 493 611 c 128,-1,95
 479 597 479 597 459 597 c 128,-1,96
 439 597 439 597 425 611 c 128,-1,97
 411 625 411 625 411 644 c 0,88,89
EndSplineSet
Validated: 1
EndChar

StartChar: zerocombiningdigitdeva
Encoding: 43232 43232 187
Width: 0
GlyphClass: 4
Flags: W
AnchorPoint: "DVAnchor3" -127 721 mark 0
LayerCount: 2
Fore
SplineSet
-126 818 m 256,0,1
 -98 818 -98 818 -78 838.5 c 128,-1,2
 -58 859 -58 859 -58 888.5 c 128,-1,3
 -58 918 -58 918 -78 938.5 c 128,-1,4
 -98 959 -98 959 -126 959 c 256,5,6
 -154 959 -154 959 -174 938.5 c 128,-1,7
 -194 918 -194 918 -194 888.5 c 128,-1,8
 -194 859 -194 859 -174 838.5 c 128,-1,9
 -154 818 -154 818 -126 818 c 256,0,1
-127 774 m 128,-1,11
 -175 774 -175 774 -209 807.5 c 128,-1,12
 -243 841 -243 841 -243 889 c 0,13,14
 -243 935 -243 935 -209 968.5 c 128,-1,15
 -175 1002 -175 1002 -127 1002 c 128,-1,16
 -79 1002 -79 1002 -45 968.5 c 128,-1,17
 -11 935 -11 935 -11 889 c 0,18,19
 -11 841 -11 841 -45 807.5 c 128,-1,10
 -79 774 -79 774 -127 774 c 128,-1,11
EndSplineSet
Validated: 1
EndChar

StartChar: onecombiningdigitdeva
Encoding: 43233 43233 188
Width: 0
GlyphClass: 4
Flags: W
AnchorPoint: "DVAnchor3" -137 681 mark 0
LayerCount: 2
Fore
SplineSet
-155 912 m 0,0,1
 -130 912 -130 912 -112 928 c 0,2,3
 -95 942 -95 942 -95 963 c 256,4,5
 -95 984 -95 984 -112.5 1000 c 128,-1,6
 -130 1016 -130 1016 -155 1016 c 0,7,8
 -178 1016 -178 1016 -194.5 1000.5 c 128,-1,9
 -211 985 -211 985 -211 963 c 0,10,11
 -211 942 -211 942 -194.5 927 c 128,-1,12
 -178 912 -178 912 -155 912 c 0,0,1
-76 1022 m 1,13,14
 -46 1000 -46 1000 -46 954 c 2,15,-1
 -46 729 l 1,16,-1
 -91 729 l 1,17,-1
 -91 896 l 1,18,19
 -103 888 -103 888 -117 884 c 0,20,21
 -135 878 -135 878 -155 878 c 0,22,23
 -197 878 -197 878 -226 903 c 0,24,25
 -256 928 -256 928 -256 963 c 256,26,27
 -256 998 -256 998 -226 1023 c 0,28,29
 -197 1047 -197 1047 -155 1047 c 0,30,31
 -106 1047 -106 1047 -76 1022 c 1,13,14
EndSplineSet
Validated: 1
EndChar

StartChar: twocombiningdigitdeva
Encoding: 43234 43234 189
Width: 0
GlyphClass: 4
Flags: W
AnchorPoint: "DVAnchor3" -137 675 mark 0
LayerCount: 2
Fore
SplineSet
-84 697 m 1,0,-1
 -180 801 l 1,1,2
 -184 800 -184 800 -188 799 c 0,3,4
 -195 798 -195 798 -204 798 c 0,5,6
 -228 798 -228 798 -245 809 c 0,7,8
 -263 820 -263 820 -263 837 c 0,9,10
 -263 849 -263 849 -251 857 c 256,11,12
 -239 865 -239 865 -223 865 c 0,13,14
 -208 865 -208 865 -191 858 c 0,15,16
 -177 852 -177 852 -163 841 c 1,17,18
 -127 853 -127 853 -105 877 c 0,19,20
 -83 902 -83 902 -83 932 c 0,21,22
 -83 960 -83 960 -106 981 c 1,23,24
 -130 1001 -130 1001 -164 1001 c 0,25,26
 -188 1001 -188 1001 -213 993 c 128,-1,27
 -238 985 -238 985 -261 970 c 1,28,-1
 -263 968 l 1,29,-1
 -291 997 l 1,30,-1
 -287 999 l 1,31,32
 -258 1018 -258 1018 -226.5 1028 c 128,-1,33
 -195 1038 -195 1038 -164 1038 c 0,34,35
 -112 1038 -112 1038 -76 1007 c 1,36,37
 -38 976 -38 976 -38 932 c 0,38,39
 -38 891 -38 891 -67 859 c 0,40,41
 -93 829 -93 829 -135 815 c 1,42,-1
 -47 719 l 1,43,-1
 -84 697 l 1,0,-1
EndSplineSet
Validated: 1
EndChar

StartChar: threecombiningdigitdeva
Encoding: 43235 43235 190
Width: 0
GlyphClass: 4
Flags: W
AnchorPoint: "DVAnchor3" -147 671 mark 0
LayerCount: 2
Fore
SplineSet
-111 698 m 1,0,1
 -126 705 -126 705 -144 722 c 1,2,3
 -160 739 -160 739 -177 764 c 1,4,5
 -205 765 -205 765 -224 776 c 0,6,7
 -245 789 -245 789 -245 808 c 0,8,9
 -245 818 -245 818 -234 826 c 1,10,11
 -224 832 -224 832 -208.5 832 c 128,-1,12
 -193 832 -193 832 -176 823 c 0,13,14
 -160 814 -160 814 -148 798 c 1,15,16
 -116 803 -116 803 -96 817.5 c 128,-1,17
 -76 832 -76 832 -76 850 c 0,18,19
 -76 870 -76 870 -100 884 c 0,20,21
 -125 899 -125 899 -161 899 c 2,22,-1
 -203 899 l 1,23,-1
 -227 930 l 1,24,-1
 -153 930 l 2,25,26
 -127 930 -127 930 -108 942 c 0,27,28
 -91 953 -91 953 -91 969 c 0,29,30
 -91 983 -91 983 -109 994 c 0,31,32
 -129 1005 -129 1005 -157 1005 c 0,33,34
 -172 1005 -172 1005 -191.5 1000.5 c 128,-1,35
 -211 996 -211 996 -233 987 c 1,36,-1
 -235 986 l 1,37,-1
 -258 1009 l 1,38,-1
 -254 1012 l 1,39,40
 -233 1025 -233 1025 -207 1032 c 128,-1,41
 -181 1039 -181 1039 -153 1039 c 0,42,43
 -109 1039 -109 1039 -78 1019 c 0,44,45
 -46 998 -46 998 -46 969 c 0,46,47
 -46 951 -46 951 -60 935 c 0,48,49
 -71 923 -71 923 -88 914 c 1,50,51
 -65 904 -65 904 -50 889 c 0,52,53
 -32 871 -32 871 -32 850 c 0,54,55
 -32 820 -32 820 -62 798 c 0,56,57
 -90 777 -90 777 -132 770 c 1,58,59
 -116 752 -116 752 -103 740 c 0,60,61
 -89 727 -89 727 -78 724 c 1,62,-1
 -71 721 l 1,63,-1
 -109 698 l 1,64,-1
 -111 698 l 1,0,1
EndSplineSet
Validated: 1
EndChar

StartChar: fourcombiningdigitdeva
Encoding: 43236 43236 191
Width: 0
GlyphClass: 4
Flags: W
AnchorPoint: "DVAnchor3" -130 681 mark 0
LayerCount: 2
Fore
SplineSet
-127 758 m 0,0,1
 -103 758 -103 758 -85 771 c 0,2,3
 -68 784 -68 784 -68 801 c 0,4,5
 -68 817 -68 817 -84 833 c 128,-1,6
 -100 849 -100 849 -127 859 c 1,7,8
 -152 852 -152 852 -167.5 836 c 128,-1,9
 -183 820 -183 820 -183 801 c 0,10,11
 -183 784 -183 784 -167 771 c 0,12,13
 -150 758 -150 758 -127 758 c 0,0,1
-127 724 m 0,14,15
 -168 724 -168 724 -197 746 c 0,16,17
 -227 769 -227 769 -227 801 c 0,18,19
 -227 825 -227 825 -209 848 c 0,20,21
 -193 867 -193 867 -166 880 c 1,22,23
 -207 898 -207 898 -232 921 c 0,24,25
 -260 948 -260 948 -260 975 c 0,26,27
 -260 991 -260 991 -251 1006 c 0,28,29
 -242 1020 -242 1020 -226 1031 c 1,30,-1
 -224 1033 l 1,31,-1
 -187 1014 l 1,32,-1
 -191 1011 l 2,33,34
 -204 1001 -204 1001 -210 991 c 0,35,36
 -216 982 -216 982 -216 975 c 0,37,38
 -216 955 -216 955 -192 934.5 c 128,-1,39
 -168 914 -168 914 -127 902 c 1,40,41
 -88 921 -88 921 -65 941 c 0,42,43
 -43 960 -43 960 -43 975 c 0,44,45
 -43 983 -43 983 -49 992 c 0,46,47
 -55 1002 -55 1002 -67 1014 c 1,48,-1
 -71 1017 l 1,49,-1
 -31 1036 l 1,50,-1
 -29 1034 l 1,51,52
 -15 1022 -15 1022 -6.5 1007 c 128,-1,53
 2 992 2 992 2 975 c 0,54,55
 2 950 2 950 -24 923 c 0,56,57
 -47 900 -47 900 -86 881 c 1,58,59
 -59 867 -59 867 -43 848 c 0,60,61
 -24 825 -24 825 -24 801 c 0,62,63
 -24 769 -24 769 -55 746 c 0,64,65
 -85 724 -85 724 -127 724 c 0,14,15
EndSplineSet
Validated: 1
EndChar

StartChar: fivecombiningdigitdeva
Encoding: 43237 43237 192
Width: 0
GlyphClass: 4
Flags: W
LayerCount: 2
Fore
SplineSet
-24 815 m 1,0,1
 -16 800 -16 800 -13 789 c 0,2,3
 -9 778 -9 778 -9 771 c 0,4,5
 -9 756 -9 756 -25 740 c 0,6,7
 -40 726 -40 726 -66 715 c 1,8,-1
 -69 714 l 1,9,-1
 -92 741 l 1,10,-1
 -88 743 l 2,11,12
 -73 750 -73 750 -64 758 c 0,13,14
 -56 766 -56 766 -56 771.5 c 128,-1,15
 -56 777 -56 777 -60 787 c 0,16,17
 -64 798 -64 798 -71 812 c 1,18,-1
 -95 869 l 1,19,20
 -107 864 -107 864 -120 861 c 0,21,22
 -136 857 -136 857 -152 857 c 0,23,24
 -202 857 -202 857 -237 884 c 1,25,26
 -273 910 -273 910 -273 948 c 0,27,28
 -273 974 -273 974 -265.5 996.5 c 128,-1,29
 -258 1019 -258 1019 -243 1038 c 1,30,-1
 -242 1040 l 1,31,-1
 -201 1027 l 1,32,-1
 -204 1023 l 2,33,34
 -217 1007 -217 1007 -223 988 c 128,-1,35
 -229 969 -229 969 -229 948 c 0,36,37
 -229 924 -229 924 -207 906 c 0,38,39
 -184 888 -184 888 -152 888 c 0,40,41
 -139 888 -139 888 -127 891 c 0,42,43
 -118 893 -118 893 -110 897 c 1,44,45
 -112 903 -112 903 -113 912 c 0,46,47
 -115 923 -115 923 -115 940 c 0,48,49
 -115 959 -115 959 -101 972.5 c 128,-1,50
 -87 986 -87 986 -68 986 c 0,51,52
 -51 986 -51 986 -39 973 c 0,53,54
 -27 959 -27 959 -27 940 c 0,55,56
 -27 928 -27 928 -35 915 c 1,57,58
 -43 904 -43 904 -56 892 c 1,59,-1
 -24 815 l 1,0,1
EndSplineSet
Validated: 1
EndChar

StartChar: sixcombiningdigitdeva
Encoding: 43238 43238 193
Width: 0
GlyphClass: 4
Flags: W
AnchorPoint: "DVAnchor3" -137 679 mark 0
LayerCount: 2
Fore
SplineSet
-55 699 m 1,0,1
 -66 709 -66 709 -79 728 c 256,2,3
 -92 747 -92 747 -106 774 c 1,4,5
 -163 775 -163 775 -203 797 c 0,6,7
 -245 820 -245 820 -245 853 c 0,8,9
 -245 871 -245 871 -231 886 c 0,10,11
 -221 898 -221 898 -205 906 c 1,12,13
 -229 912 -229 912 -245 926 c 0,14,15
 -267 945 -267 945 -267 970 c 0,16,17
 -267 997 -267 997 -237 1016 c 0,18,19
 -208 1034 -208 1034 -167 1034 c 0,20,21
 -141 1034 -141 1034 -119 1030.5 c 128,-1,22
 -97 1027 -97 1027 -81 1020 c 1,23,-1
 -77 1019 l 1,24,-1
 -91 989 l 1,25,-1
 -94 990 l 1,26,27
 -114 995 -114 995 -132.5 997.5 c 128,-1,28
 -151 1000 -151 1000 -167 1000 c 0,29,30
 -190 1000 -190 1000 -207 991 c 0,31,32
 -223 982 -223 982 -223 970 c 0,33,34
 -223 953 -223 953 -205 940 c 0,35,36
 -186 927 -186 927 -160 927 c 2,37,-1
 -98 927 l 1,38,-1
 -79 899 l 1,39,-1
 -126 899 l 2,40,41
 -157 899 -157 899 -179 885 c 0,42,43
 -200 871 -200 871 -200 853 c 0,44,45
 -200 834 -200 834 -174 820 c 256,46,47
 -148 806 -148 806 -112 805 c 1,48,49
 -110 821 -110 821 -96 833 c 0,50,51
 -81 846 -81 846 -60 846 c 0,52,53
 -48 846 -48 846 -39 839 c 0,54,55
 -30 831 -30 831 -30 819.5 c 128,-1,56
 -30 808 -30 808 -40 796 c 0,57,58
 -48 786 -48 786 -62 778 c 1,59,60
 -59 770 -59 770 -50 758 c 0,61,62
 -40 743 -40 743 -24 723 c 2,63,-1
 -21 719 l 1,64,-1
 -53 698 l 1,65,-1
 -55 699 l 1,0,1
EndSplineSet
Validated: 1
EndChar

StartChar: sevencombiningdigitdeva
Encoding: 43239 43239 194
Width: 0
GlyphClass: 4
Flags: W
AnchorPoint: "DVAnchor3" -137 681 mark 0
LayerCount: 2
Fore
SplineSet
-38 836 m 1,0,1
 -35 851 -35 851 -33 863 c 0,2,3
 -31 877 -31 877 -31 888 c 0,4,5
 -31 921 -31 921 -45 943 c 0,6,7
 -58 965 -58 965 -76 965 c 0,8,9
 -92 965 -92 965 -104 949 c 0,10,11
 -117 932 -117 932 -117 909 c 0,12,13
 -117 879 -117 879 -93 857 c 0,14,15
 -71 837 -71 837 -38 836 c 1,0,1
-124 722 m 0,16,17
 -184 722 -184 722 -226 769 c 128,-1,18
 -268 816 -268 816 -268 883 c 0,19,20
 -268 897 -268 897 -265.5 924 c 128,-1,21
 -263 951 -263 951 -257 1008 c 1,22,-1
 -257 1010 l 1,23,-1
 -207 1031 l 1,24,-1
 -209 1024 l 1,25,26
 -217 991 -217 991 -220.5 955.5 c 128,-1,27
 -224 920 -224 920 -224 883 c 0,28,29
 -224 830 -224 830 -195 793 c 0,30,31
 -165 756 -165 756 -124 756 c 0,32,33
 -100 756 -100 756 -79 771 c 0,34,35
 -59 785 -59 785 -48 808 c 1,36,37
 -92 810 -92 810 -124 837 c 1,38,39
 -157 867 -157 867 -157 909 c 0,40,41
 -157 946 -157 946 -133 972.5 c 128,-1,42
 -109 999 -109 999 -76 999 c 0,43,44
 -38 999 -38 999 -12 966 c 0,45,46
 13 934 13 934 13 888 c 0,47,48
 13 813 13 813 -24 768 c 0,49,50
 -61 722 -61 722 -124 722 c 0,16,17
EndSplineSet
Validated: 1
EndChar

StartChar: eightcombiningdigitdeva
Encoding: 43240 43240 195
Width: 0
GlyphClass: 4
Flags: W
AnchorPoint: "DVAnchor3" -137 681 mark 0
LayerCount: 2
Fore
SplineSet
-125 723 m 0,0,1
 -183 723 -183 723 -224 752 c 0,2,3
 -266 781 -266 781 -266 822 c 0,4,5
 -266 839 -266 839 -257 856 c 128,-1,6
 -248 873 -248 873 -231 887 c 2,7,-1
 -55 1033 l 1,8,-1
 -23 1008 l 1,9,-1
 -197 863 l 2,10,11
 -207 855 -207 855 -212.5 844 c 128,-1,12
 -218 833 -218 833 -218 822 c 0,13,14
 -218 795 -218 795 -191 776 c 256,15,16
 -164 757 -164 757 -125 757 c 0,17,18
 -104 757 -104 757 -79 769 c 1,19,20
 -55 782 -55 782 -32 803 c 1,21,-1
 -29 806 l 1,22,-1
 3 781 l 1,23,-1
 0 778 l 1,24,25
 -28 752 -28 752 -60.5 737.5 c 128,-1,26
 -93 723 -93 723 -125 723 c 0,0,1
EndSplineSet
Validated: 1
EndChar

StartChar: ninecombiningdigitdeva
Encoding: 43241 43241 196
Width: 0
GlyphClass: 4
Flags: W
AnchorPoint: "DVAnchor3" -137 674 mark 0
LayerCount: 2
Fore
SplineSet
-161 908 m 0,0,1
 -138 908 -138 908 -122 922 c 256,2,3
 -106 936 -106 936 -106 955 c 0,4,5
 -106 973 -106 973 -122 986 c 256,6,7
 -138 999 -138 999 -161 999 c 0,8,9
 -187 999 -187 999 -206 986 c 0,10,11
 -224 973 -224 973 -224 955 c 0,12,13
 -224 936 -224 936 -206 923 c 0,14,15
 -187 908 -187 908 -161 908 c 0,0,1
-90 775 m 1,16,-1
 -204 865 l 1,17,18
 -235 887 -235 887 -251 912 c 0,19,20
 -268 937 -268 937 -268 961 c 0,21,22
 -268 992 -268 992 -236 1014 c 0,23,24
 -205 1036 -205 1036 -161 1036 c 0,25,26
 -118 1036 -118 1036 -88 1013 c 0,27,28
 -58 989 -58 989 -58 955 c 0,29,30
 -58 923 -58 923 -84 900 c 0,31,32
 -109 877 -109 877 -146 877 c 0,33,34
 -149 877 -149 877 -155 878 c 0,35,36
 -157 878 -157 878 -160 878 c 1,37,-1
 -44 786 l 2,38,39
 -33 776 -33 776 -27 766 c 0,40,41
 -21 757 -21 757 -21 748 c 0,42,43
 -21 730 -21 730 -44 717 c 256,44,45
 -67 704 -67 704 -98 702 c 1,46,-1
 -101 702 l 1,47,-1
 -115 733 l 1,48,-1
 -110 733 l 2,49,50
 -90 733 -90 733 -77 739 c 1,51,52
 -65 743 -65 743 -65 748 c 0,53,54
 -65 751 -65 751 -71 756 c 1,55,56
 -77 763 -77 763 -90 775 c 1,16,-1
EndSplineSet
Validated: 1
EndChar

StartChar: acombiningletterdeva
Encoding: 43242 43242 197
Width: 0
GlyphClass: 4
Flags: W
AnchorPoint: "DVAnchor3" -137 681 mark 0
LayerCount: 2
Fore
SplineSet
-215 750 m 0,0,1
 -261 750 -261 750 -303 780 c 0,2,3
 -346 810 -346 810 -377 865 c 1,4,-1
 -379 868 l 1,5,-1
 -345 884 l 1,6,-1
 -343 881 l 1,7,8
 -317 836 -317 836 -283 811 c 0,9,10
 -250 787 -250 787 -215 787 c 0,11,12
 -193 787 -193 787 -178 800 c 0,13,14
 -163 812 -163 812 -163 830 c 0,15,16
 -163 852 -163 852 -180.5 867.5 c 128,-1,17
 -198 883 -198 883 -222 883 c 0,18,19
 -230 883 -230 883 -239 882 c 128,-1,20
 -248 881 -248 881 -258 878 c 2,21,-1
 -261 877 l 1,22,-1
 -280 911 l 1,23,-1
 -275 911 l 1,24,25
 -242 914 -242 914 -217 929 c 1,26,27
 -194 945 -194 945 -194 961 c 0,28,29
 -194 976 -194 976 -205.5 987.5 c 128,-1,30
 -217 999 -217 999 -233 999 c 0,31,32
 -254 999 -254 999 -276.5 988.5 c 128,-1,33
 -299 978 -299 978 -320 958 c 2,34,-1
 -322 956 l 1,35,-1
 -354 981 l 1,36,-1
 -351 984 l 1,37,38
 -331 1007 -331 1007 -300 1020 c 128,-1,39
 -269 1033 -269 1033 -233 1033 c 0,40,41
 -198 1033 -198 1033 -173 1012 c 256,42,43
 -148 991 -148 991 -148 961 c 0,44,45
 -148 945 -148 945 -158 930 c 0,46,47
 -165 918 -165 918 -178 909 c 1,48,49
 -153 898 -153 898 -134 892 c 0,50,51
 -113 885 -113 885 -100 885 c 0,52,53
 -93 885 -93 885 -81 888 c 1,54,55
 -70 892 -70 892 -56 898 c 1,56,-1
 -56 999 l 1,57,-1
 -122 999 l 1,58,-1
 -122 1033 l 1,59,-1
 52 1033 l 1,60,-1
 52 999 l 1,61,-1
 -12 999 l 1,62,-1
 -12 729 l 1,63,-1
 -56 729 l 1,64,-1
 -56 860 l 1,65,66
 -62 856 -62 856 -69 854 c 0,67,68
 -79 851 -79 851 -89 851 c 0,69,70
 -105 851 -105 851 -118 853 c 0,71,72
 -121 854 -121 854 -124 855 c 1,73,74
 -123 853 -123 853 -123 851 c 0,75,76
 -119 842 -119 842 -119 831 c 0,77,78
 -119 797 -119 797 -147 774 c 0,79,80
 -175 750 -175 750 -215 750 c 0,0,1
EndSplineSet
Validated: 1
EndChar

StartChar: ucombiningletterdeva
Encoding: 43243 43243 198
Width: 0
GlyphClass: 4
Flags: W
AnchorPoint: "DVAnchor3" -137 681 mark 0
LayerCount: 2
Fore
SplineSet
-349 998 m 1,0,-1
 -349 1032 l 1,1,-1
 24 1032 l 1,2,-1
 24 998 l 1,3,-1
 -50 998 l 1,4,5
 -43 990 -43 990 -39 981 c 0,6,7
 -33 968 -33 968 -33 954 c 0,8,9
 -33 934 -33 934 -43 917 c 0,10,11
 -51 904 -51 904 -64 896 c 1,12,13
 -45 888 -45 888 -33 871 c 0,14,15
 -18 851 -18 851 -18 824 c 0,16,17
 -18 783 -18 783 -49 757 c 0,18,19
 -79 732 -79 732 -122 732 c 0,20,21
 -180 732 -180 732 -235 782 c 0,22,23
 -288 830 -288 830 -329 918 c 1,24,-1
 -330 922 l 1,25,-1
 -293 935 l 1,26,-1
 -292 932 l 1,27,28
 -257 854 -257 854 -211 812 c 1,29,30
 -167 770 -167 770 -122 770 c 0,31,32
 -97 770 -97 770 -80 784 c 0,33,34
 -62 799 -62 799 -62 823 c 128,-1,35
 -62 847 -62 847 -78.5 863.5 c 128,-1,36
 -95 880 -95 880 -118 880 c 2,37,-1
 -194 880 l 1,38,-1
 -213 913 l 1,39,-1
 -125 913 l 2,40,41
 -105 913 -105 913 -91 926 c 0,42,43
 -77 938 -77 938 -77 954 c 0,44,45
 -77 966 -77 966 -85.5 977 c 128,-1,46
 -94 988 -94 988 -108 998 c 1,47,-1
 -349 998 l 1,0,-1
EndSplineSet
Validated: 1
EndChar

StartChar: kacombiningletterdeva
Encoding: 43244 43244 199
Width: 0
GlyphClass: 4
Flags: W
AnchorPoint: "DVAnchor3" -131 681 mark 0
LayerCount: 2
Fore
SplineSet
-325 998 m 1,0,-1
 -325 1032 l 1,1,-1
 59 1032 l 1,2,-1
 59 998 l 1,3,-1
 -104 998 l 1,4,-1
 -104 931 l 1,5,6
 -92 943 -92 943 -76 951 c 0,7,8
 -55 961 -55 961 -30 961 c 0,9,10
 8 961 8 961 33.5 936.5 c 128,-1,11
 59 912 59 912 59 877 c 0,12,13
 59 847 59 847 40 818 c 0,14,15
 22 790 22 790 -12 767 c 1,16,-1
 -14 766 l 1,17,-1
 -56 788 l 1,18,-1
 -50 791 l 1,19,20
 -19 808 -19 808 -2 831 c 256,21,22
 15 854 15 854 15 877 c 0,23,24
 15 896 15 896 2 909.5 c 128,-1,25
 -11 923 -11 923 -30 923 c 0,26,27
 -54 923 -54 923 -75 908 c 0,28,29
 -96 894 -96 894 -104 870 c 1,30,-1
 -104 728 l 1,31,-1
 -148 728 l 1,32,-1
 -148 813 l 1,33,34
 -160 803 -160 803 -175 798 c 0,35,36
 -195 790 -195 790 -218 790 c 0,37,38
 -260 790 -260 790 -289 814 c 0,39,40
 -318 837 -318 837 -318 871 c 0,41,42
 -318 908 -318 908 -284 935 c 0,43,44
 -251 961 -251 961 -204 961 c 0,45,46
 -190 961 -190 961 -180 959 c 256,47,48
 -170 957 -170 957 -165 954 c 1,49,-1
 -162 953 l 1,50,-1
 -171 916 l 1,51,-1
 -175 918 l 2,52,53
 -182 921 -182 921 -189 922 c 128,-1,54
 -196 923 -196 923 -204 923 c 0,55,56
 -233 923 -233 923 -254 908 c 1,57,58
 -274 892 -274 892 -274 871 c 0,59,60
 -274 853 -274 853 -258 840 c 0,61,62
 -241 827 -241 827 -218 827 c 0,63,64
 -198 827 -198 827 -179 837 c 256,65,66
 -160 847 -160 847 -148 863 c 1,67,-1
 -148 998 l 1,68,-1
 -325 998 l 1,0,-1
EndSplineSet
Validated: 1
EndChar

StartChar: nacombiningletterdeva
Encoding: 43245 43245 200
Width: 0
GlyphClass: 4
Flags: W
AnchorPoint: "DVAnchor3" -137 681 mark 0
LayerCount: 2
Fore
SplineSet
-294 909 m 0,0,1
 -294 918 -294 918 -284 923 c 0,2,3
 -276 928 -276 928 -264 928 c 2,4,-1
 -72 928 l 1,5,-1
 -72 998 l 1,6,-1
 -313 998 l 1,7,-1
 -313 1032 l 1,8,-1
 36 1032 l 1,9,-1
 36 998 l 1,10,-1
 -27 998 l 1,11,-1
 -27 728 l 1,12,-1
 -72 728 l 1,13,-1
 -72 891 l 1,14,-1
 -176 891 l 2,15,16
 -184 891 -184 891 -190 888 c 0,17,18
 -194 885 -194 885 -194 883 c 2,19,-1
 -194 853 l 2,20,21
 -194 844 -194 844 -201 838 c 128,-1,22
 -208 832 -208 832 -216 832 c 0,23,24
 -231 832 -231 832 -262.5 864 c 128,-1,25
 -294 896 -294 896 -294 909 c 0,0,1
EndSplineSet
Validated: 1
EndChar

StartChar: pacombiningletterdeva
Encoding: 43246 43246 201
Width: 0
GlyphClass: 4
Flags: W
AnchorPoint: "DVAnchor3" -137 681 mark 0
LayerCount: 2
Fore
SplineSet
-153 851 m 0,0,1
 -131 851 -131 851 -112 862 c 0,2,3
 -93 872 -93 872 -83 890 c 1,4,-1
 -83 998 l 1,5,-1
 -212 998 l 1,6,-1
 -212 895 l 2,7,8
 -212 877 -212 877 -195 864 c 256,9,10
 -178 851 -178 851 -153 851 c 0,0,1
-257 895 m 2,11,-1
 -257 998 l 1,12,-1
 -296 998 l 1,13,-1
 -296 1032 l 1,14,-1
 25 1032 l 1,15,-1
 25 998 l 1,16,-1
 -38 998 l 1,17,-1
 -38 728 l 1,18,-1
 -83 728 l 1,19,-1
 -83 837 l 1,20,21
 -97 827 -97 827 -113 821 c 0,22,23
 -133 814 -133 814 -153 814 c 0,24,25
 -196 814 -196 814 -226 837 c 0,26,27
 -257 861 -257 861 -257 895 c 2,11,-1
EndSplineSet
Validated: 1
EndChar

StartChar: racombiningletterdeva
Encoding: 43247 43247 202
Width: 0
GlyphClass: 4
Flags: W
AnchorPoint: "DVAnchor3" -137 681 mark 0
LayerCount: 2
Fore
SplineSet
-281 998 m 1,0,-1
 -281 1032 l 1,1,-1
 -16 1032 l 1,2,-1
 -16 998 l 1,3,-1
 -66 998 l 1,4,-1
 -66 933 l 2,5,6
 -66 904 -66 904 -91 884 c 0,7,8
 -115 864 -115 864 -148 864 c 0,9,10
 -153 864 -153 864 -161 866 c 0,11,12
 -164 867 -164 867 -169 868 c 1,13,14
 -146 839 -146 839 -119 813 c 0,15,16
 -87 783 -87 783 -46 756 c 1,17,-1
 -42 753 l 1,18,-1
 -69 727 l 1,19,-1
 -72 729 l 2,20,21
 -132 769 -132 769 -180 819.5 c 128,-1,22
 -228 870 -228 870 -262 928 c 1,23,-1
 -264 932 l 1,24,-1
 -224 950 l 1,25,-1
 -222 947 l 1,26,27
 -213 926 -213 926 -192.5 914 c 128,-1,28
 -172 902 -172 902 -148 902 c 0,29,30
 -132 902 -132 902 -122 911 c 0,31,32
 -111 920 -111 920 -111 933 c 2,33,-1
 -111 998 l 1,34,-1
 -281 998 l 1,0,-1
EndSplineSet
Validated: 1
EndChar

StartChar: vicombiningletterdeva
Encoding: 43248 43248 203
Width: 0
GlyphClass: 4
Flags: W
AnchorPoint: "DVAnchor3" -137 681 mark 0
LayerCount: 2
Fore
SplineSet
-39 1010 m 1,0,1
 -66 1047 -66 1047 -105 1069 c 0,2,3
 -144 1090 -144 1090 -185 1090 c 0,4,5
 -214 1090 -214 1090 -234 1075 c 0,6,7
 -254 1061 -254 1061 -254 1040 c 0,8,9
 -254 1029 -254 1029 -252 1021 c 1,10,11
 -249 1014 -249 1014 -246 1010 c 1,12,-1
 -39 1010 l 1,0,1
9 1010 m 1,13,-1
 79 1010 l 1,14,-1
 79 979 l 1,15,-1
 22 979 l 1,16,-1
 22 739 l 1,17,-1
 -17 739 l 1,18,-1
 -17 819 l 1,19,20
 -29 809 -29 809 -44 804 c 0,21,22
 -63 797 -63 797 -83 797 c 0,23,24
 -126 797 -126 797 -156 818 c 0,25,26
 -186 840 -186 840 -186 871 c 0,27,28
 -186 903 -186 903 -156 925 c 0,29,30
 -126 946 -126 946 -83 946 c 0,31,32
 -71 946 -71 946 -59.5 943.5 c 128,-1,33
 -48 941 -48 941 -39 935 c 1,34,-1
 -35 933 l 1,35,-1
 -56 907 l 1,36,-1
 -59 908 l 1,37,38
 -64 912 -64 912 -70 914 c 128,-1,39
 -76 916 -76 916 -83 916 c 0,40,41
 -110 916 -110 916 -128 902 c 0,42,43
 -146 889 -146 889 -146 871 c 0,44,45
 -146 855 -146 855 -128 842 c 0,46,47
 -110 830 -110 830 -83 830 c 0,48,49
 -65 830 -65 830 -47 840 c 0,50,51
 -30 850 -30 850 -17 867 c 1,52,-1
 -17 979 l 1,53,-1
 -244 979 l 1,54,-1
 -244 739 l 1,55,-1
 -284 739 l 1,56,-1
 -284 979 l 1,57,-1
 -340 979 l 1,58,-1
 -340 1010 l 1,59,-1
 -287 1010 l 1,60,61
 -289 1014 -289 1014 -291 1019 c 0,62,63
 -294 1028 -294 1028 -294 1040 c 0,64,65
 -294 1074 -294 1074 -261 1097 c 0,66,67
 -229 1120 -229 1120 -185 1120 c 0,68,69
 -132 1120 -132 1120 -81 1091.5 c 128,-1,70
 -30 1063 -30 1063 6 1013 c 1,71,-1
 9 1010 l 1,13,-1
EndSplineSet
Validated: 1
EndChar

StartChar: avagrahacombiningsigndeva
Encoding: 43249 43249 204
Width: 0
GlyphClass: 4
Flags: W
AnchorPoint: "DVAnchor3" -137 681 mark 0
LayerCount: 2
Fore
SplineSet
-125 736 m 0,0,1
 -165 736 -165 736 -200 762.5 c 128,-1,2
 -235 789 -235 789 -251 832 c 1,3,-1
 -252 835 l 1,4,-1
 -212 852 l 1,5,-1
 -211 849 l 1,6,7
 -198 816 -198 816 -174 796 c 0,8,9
 -151 776 -151 776 -125 776 c 0,10,11
 -107 776 -107 776 -94 789.5 c 128,-1,12
 -81 803 -81 803 -81 823 c 0,13,14
 -81 841 -81 841 -100 862 c 1,15,16
 -121 883 -121 883 -156 902 c 1,17,18
 -182 914 -182 914 -196 934 c 0,19,20
 -210 953 -210 953 -210 975 c 0,21,22
 -210 999 -210 999 -186 1016 c 0,23,24
 -162 1032 -162 1032 -129 1032 c 2,25,-1
 -36 1032 l 1,26,-1
 -36 995 l 1,27,-1
 -129 995 l 2,28,29
 -145 995 -145 995 -156 988 c 0,30,31
 -166 982 -166 982 -166 974 c 0,32,33
 -166 961 -166 961 -148 944 c 0,34,35
 -130 926 -130 926 -97 909 c 0,36,37
 -69 894 -69 894 -53 872 c 0,38,39
 -36 849 -36 849 -36 823 c 0,40,41
 -36 787 -36 787 -62 761.5 c 128,-1,42
 -88 736 -88 736 -125 736 c 0,0,1
EndSplineSet
Validated: 1
EndChar

StartChar: spacingcandrabindudeva
Encoding: 43250 43250 205
Width: 632
GlyphClass: 2
Flags: W
LayerCount: 2
Fore
SplineSet
267 578 m 1,0,-1
 267 665 l 1,1,-1
 353 665 l 1,2,-1
 353 578 l 1,3,-1
 267 578 l 1,0,-1
313 432 m 0,4,5
 235 432 235 432 175 484.5 c 128,-1,6
 115 537 115 537 100 618 c 1,7,-1
 173 618 l 1,8,9
 183 564 183 564 223 528 c 128,-1,10
 263 492 263 492 313 492 c 0,11,12
 364 492 364 492 404 528 c 128,-1,13
 444 564 444 564 453 618 c 1,14,-1
 526 618 l 1,15,16
 512 537 512 537 452 484.5 c 128,-1,17
 392 432 392 432 313 432 c 0,4,5
EndSplineSet
Validated: 1
EndChar

StartChar: candrabinduviramadeva
Encoding: 43251 43251 206
Width: 632
GlyphClass: 2
Flags: W
LayerCount: 2
Fore
SplineSet
266 220 m 1,0,-1
 232 267 l 1,1,-1
 312 327 l 1,2,-1
 552 140 l 1,3,-1
 512 100 l 1,4,-1
 312 260 l 1,5,-1
 266 220 l 1,0,-1
267 578 m 1,6,-1
 267 665 l 1,7,-1
 353 665 l 1,8,-1
 353 578 l 1,9,-1
 267 578 l 1,6,-1
313 432 m 0,10,11
 235 432 235 432 175 484.5 c 128,-1,12
 115 537 115 537 100 618 c 1,13,-1
 173 618 l 1,14,15
 183 564 183 564 223 528 c 128,-1,16
 263 492 263 492 313 492 c 0,17,18
 364 492 364 492 404 528 c 128,-1,19
 444 564 444 564 453 618 c 1,20,-1
 526 618 l 1,21,22
 512 537 512 537 452 484.5 c 128,-1,23
 392 432 392 432 313 432 c 0,10,11
EndSplineSet
Validated: 1
EndChar

StartChar: doublecandrabinduviramadeva
Encoding: 43252 43252 207
Width: 632
GlyphClass: 2
Flags: W
LayerCount: 2
Fore
SplineSet
267 281 m 1,0,-1
 267 368 l 1,1,-1
 353 368 l 1,2,-1
 353 281 l 1,3,-1
 267 281 l 1,0,-1
313 135 m 0,4,5
 235 135 235 135 175 187.5 c 128,-1,6
 115 240 115 240 100 321 c 1,7,-1
 173 321 l 1,8,9
 183 267 183 267 223 231 c 128,-1,10
 263 195 263 195 313 195 c 0,11,12
 364 195 364 195 404 231 c 128,-1,13
 444 267 444 267 453 321 c 1,14,-1
 526 321 l 1,15,16
 512 240 512 240 452 187.5 c 128,-1,17
 392 135 392 135 313 135 c 0,4,5
266 -60 m 1,18,-1
 232 -13 l 1,19,-1
 312 47 l 1,20,-1
 552 -140 l 1,21,-1
 512 -180 l 1,22,-1
 312 -20 l 1,23,-1
 266 -60 l 1,18,-1
267 578 m 1,24,-1
 267 665 l 1,25,-1
 353 665 l 1,26,-1
 353 578 l 1,27,-1
 267 578 l 1,24,-1
313 432 m 0,28,29
 235 432 235 432 175 484.5 c 128,-1,30
 115 537 115 537 100 618 c 1,31,-1
 173 618 l 1,32,33
 183 564 183 564 223 528 c 128,-1,34
 263 492 263 492 313 492 c 0,35,36
 364 492 364 492 404 528 c 128,-1,37
 444 564 444 564 453 618 c 1,38,-1
 526 618 l 1,39,40
 512 537 512 537 452 484.5 c 128,-1,41
 392 432 392 432 313 432 c 0,28,29
EndSplineSet
Validated: 1
EndChar

StartChar: candrabindudigittwodeva
Encoding: 43253 43253 208
Width: 654
GlyphClass: 2
Flags: W
LayerCount: 2
Fore
SplineSet
267 578 m 1,0,-1
 267 665 l 1,1,-1
 353 665 l 1,2,-1
 353 578 l 1,3,-1
 267 578 l 1,0,-1
313 432 m 0,4,5
 235 432 235 432 175 484.5 c 128,-1,6
 115 537 115 537 100 618 c 1,7,-1
 173 618 l 1,8,9
 183 564 183 564 223 528 c 128,-1,10
 263 492 263 492 313 492 c 0,11,12
 364 492 364 492 404 528 c 128,-1,13
 444 564 444 564 453 618 c 1,14,-1
 526 618 l 1,15,16
 512 537 512 537 452 484.5 c 128,-1,17
 392 432 392 432 313 432 c 0,4,5
411 -96 m 1,18,-1
 280 45 l 1,19,-1
 279 45 l 1,20,21
 275 44 275 44 270 44 c 1,22,23
 261 42 261 42 248 42 c 0,24,25
 215 42 215 42 191 57 c 0,26,27
 166 73 166 73 166 98 c 0,28,29
 166 115 166 115 183 127 c 1,30,31
 200 137 200 137 223 137 c 0,32,33
 244 137 244 137 266 128 c 0,34,35
 286 120 286 120 304 107 c 1,36,-1
 305 106 l 1,37,-1
 306 106 l 1,38,39
 352 121 352 121 381 153 c 0,40,41
 410 186 410 186 410 226 c 0,42,43
 410 264 410 264 379 290 c 1,44,45
 348 318 348 318 303 318 c 0,46,47
 270 318 270 318 237 307 c 128,-1,48
 204 296 204 296 172 275 c 1,49,-1
 167 272 l 1,50,-1
 126 315 l 1,51,-1
 134 320 l 2,52,53
 173 345 173 345 216 359 c 0,54,55
 260 373 260 373 303 373 c 0,56,57
 373 373 373 373 424 330 c 0,58,59
 476 287 476 287 476 226 c 0,60,61
 476 170 476 170 437 125 c 0,62,63
 403 86 403 86 350 67 c 1,64,-1
 346 66 l 1,65,-1
 465 -64 l 1,66,-1
 411 -96 l 1,18,-1
EndSplineSet
Validated: 1
EndChar

StartChar: candrabindudigitthreedeva
Encoding: 43254 43254 209
Width: 650
GlyphClass: 2
Flags: W
LayerCount: 2
Fore
SplineSet
267 578 m 1,0,-1
 267 665 l 1,1,-1
 353 665 l 1,2,-1
 353 578 l 1,3,-1
 267 578 l 1,0,-1
313 432 m 0,4,5
 235 432 235 432 175 484.5 c 128,-1,6
 115 537 115 537 100 618 c 1,7,-1
 173 618 l 1,8,9
 183 564 183 564 223 528 c 128,-1,10
 263 492 263 492 313 492 c 0,11,12
 364 492 364 492 404 528 c 128,-1,13
 444 564 444 564 453 618 c 1,14,-1
 526 618 l 1,15,16
 512 537 512 537 452 484.5 c 128,-1,17
 392 432 392 432 313 432 c 0,4,5
356 -145 m 2,18,19
 335 -135 335 -135 310 -108 c 0,20,21
 288 -84 288 -84 266 -47 c 1,22,-1
 266 -46 l 1,23,-1
 264 -46 l 1,24,25
 228 -45 228 -45 202 -27 c 0,26,27
 173 -7 173 -7 173 21 c 0,28,29
 173 38 173 38 188 50 c 1,30,31
 203 60 203 60 225 60 c 256,32,33
 247 60 247 60 270 46 c 0,34,35
 291 33 291 33 307 11 c 1,36,-1
 308 9 l 1,37,-1
 310 10 l 1,38,39
 350 16 350 16 376 37 c 256,40,41
 402 58 402 58 402 85 c 0,42,43
 402 114 402 114 371 135 c 0,44,45
 338 158 338 158 290 158 c 2,46,-1
 231 158 l 1,47,-1
 196 208 l 1,48,-1
 300 208 l 2,49,50
 334 208 334 208 359 226 c 0,51,52
 382 242 382 242 382 265 c 0,53,54
 382 285 382 285 358 301 c 1,55,56
 332 317 332 317 295 317 c 0,57,58
 274 317 274 317 248 310 c 256,59,60
 222 303 222 303 193 290 c 1,61,-1
 188 287 l 1,62,-1
 154 326 l 1,63,-1
 161 331 l 2,64,65
 190 351 190 351 226 361.5 c 128,-1,66
 262 372 262 372 300 372 c 0,67,68
 360 372 360 372 403 341 c 0,69,70
 447 310 447 310 447 265 c 0,71,72
 447 238 447 238 428 213 c 0,73,74
 415 196 415 196 396 184 c 1,75,-1
 392 182 l 1,76,-1
 396 180 l 2,77,78
 424 166 424 166 442 146 c 0,79,80
 467 118 467 118 467 85 c 0,81,82
 467 40 467 40 425 5 c 0,83,84
 389 -25 389 -25 337 -36 c 1,85,-1
 333 -36 l 1,86,-1
 335 -40 l 1,87,88
 354 -64 354 -64 370 -80 c 0,89,90
 389 -99 389 -99 402 -104 c 2,91,-1
 416 -109 l 1,92,-1
 360 -147 l 1,93,-1
 356 -145 l 2,18,19
EndSplineSet
Validated: 1
EndChar

StartChar: candrabinduavagrahadeva
Encoding: 43255 43255 210
Width: 626
GlyphClass: 2
Flags: W
LayerCount: 2
Fore
SplineSet
267 578 m 1,0,-1
 267 665 l 1,1,-1
 353 665 l 1,2,-1
 353 578 l 1,3,-1
 267 578 l 1,0,-1
313 432 m 0,4,5
 235 432 235 432 175 484.5 c 128,-1,6
 115 537 115 537 100 618 c 1,7,-1
 173 618 l 1,8,9
 183 564 183 564 223 528 c 128,-1,10
 263 492 263 492 313 492 c 0,11,12
 364 492 364 492 404 528 c 128,-1,13
 444 564 444 564 453 618 c 1,14,-1
 526 618 l 1,15,16
 512 537 512 537 452 484.5 c 128,-1,17
 392 432 392 432 313 432 c 0,4,5
305 -33 m 256,18,19
 252 -33 252 -33 204 3 c 256,20,21
 156 39 156 39 135 97 c 1,22,-1
 132 104 l 1,23,-1
 191 129 l 1,24,-1
 194 122 l 1,25,26
 210 78 210 78 242 51 c 0,27,28
 273 25 273 25 307 25 c 0,29,30
 330 25 330 25 347 43 c 128,-1,31
 364 61 364 61 364 87 c 0,32,33
 364 110 364 110 338 137 c 0,34,35
 311 165 311 165 263 190 c 0,36,37
 229 207 229 207 209 234 c 0,38,39
 190 261 190 261 190 291 c 0,40,41
 190 325 190 325 224 348 c 0,42,43
 256 370 256 370 301 370 c 2,44,-1
 429 370 l 1,45,-1
 429 315 l 1,46,-1
 301 315 l 2,47,48
 281 315 281 315 267 306 c 1,49,50
 254 299 254 299 254 289 c 0,51,52
 254 273 254 273 277 251 c 0,53,54
 302 228 302 228 345 205 c 0,55,56
 384 184 384 184 406 153 c 0,57,58
 429 121 429 121 429 87 c 0,59,60
 429 37 429 37 393.5 2 c 128,-1,61
 358 -33 358 -33 305 -33 c 256,18,19
EndSplineSet
Validated: 1
EndChar

StartChar: pushpikadeva
Encoding: 43256 43256 211
Width: 709
GlyphClass: 2
Flags: W
AnchorPoint: "DVAnchor3" 529 668 basechar 0
AnchorPoint: "DVAnchor0" 324 56 basechar 0
LayerCount: 2
Fore
SplineSet
523 220 m 1,0,1
 561 246 561 246 582 285 c 128,-1,2
 603 324 603 324 603 366 c 0,3,4
 603 397 603 397 580 418 c 128,-1,5
 557 439 557 439 523 439 c 0,6,7
 493 439 493 439 471.5 416 c 128,-1,8
 450 393 450 393 450 360 c 0,9,10
 450 318 450 318 469.5 281 c 128,-1,11
 489 244 489 244 523 220 c 1,0,1
414 454 m 1,12,13
 454 506 454 506 528 506 c 1,14,15
 590 508 590 508 624 468 c 0,16,17
 670 414 670 414 670 366 c 0,18,19
 670 249 670 249 553.5 141 c 128,-1,20
 437 33 437 33 310 33 c 0,21,22
 217 33 217 33 150.5 87.5 c 128,-1,23
 84 142 84 142 84 220 c 0,24,25
 84 268 84 268 103.5 308.5 c 128,-1,26
 123 349 123 349 157 373 c 1,27,28
 108 395 108 395 79.5 431 c 128,-1,29
 51 467 51 467 51 506 c 0,30,31
 51 543 51 543 62 566 c 0,32,33
 89 627 89 627 199 666 c 1,34,-1
 247 606 l 1,35,36
 170 606 170 606 131 559 c 0,37,38
 117 542 117 542 117 506 c 0,39,40
 117 467 117 467 152.5 440 c 128,-1,41
 188 413 188 413 237 413 c 2,42,-1
 310 413 l 1,43,-1
 310 346 l 1,44,-1
 257 346 l 2,45,46
 213 346 213 346 181.5 309 c 128,-1,47
 150 272 150 272 150 220 c 0,48,49
 150 170 150 170 197 135 c 128,-1,50
 244 100 244 100 310 100 c 0,51,52
 353 100 353 100 395.5 117 c 128,-1,53
 438 134 438 134 477 166 c 1,54,55
 431 212 431 212 407.5 262 c 128,-1,56
 384 312 384 312 383.5 362 c 128,-1,57
 383 412 383 412 414 454 c 1,12,13
247 606 m 0,58,-1
EndSplineSet
Validated: 33
EndChar

StartChar: gapfillerdeva
Encoding: 43257 43257 212
Width: 709
GlyphClass: 2
Flags: W
AnchorPoint: "DVAnchor3" 529 668 basechar 0
AnchorPoint: "DVAnchor0" 324 56 basechar 0
LayerCount: 2
Fore
SplineSet
409 257 m 1,0,1
 408 258 408 258 404 270 c 0,2,3
 382 329 382 329 384 362 c 0,4,5
 386 419 386 419 414 454 c 0,6,7
 455 506 455 506 528 506 c 1,8,9
 590 502 590 502 626 470 c 1,10,11
 670 428 670 428 670 366 c 0,12,13
 670 249 670 249 553.5 141 c 128,-1,14
 437 33 437 33 310 33 c 0,15,16
 217 33 217 33 150.5 87.5 c 128,-1,17
 84 142 84 142 84 220 c 0,18,19
 84 275 84 275 102 308 c 0,20,21
 154 407 154 407 258 413 c 1,22,-1
 300 413 l 1,23,-1
 300 346 l 1,24,-1
 262 346 l 2,25,26
 213 346 213 346 182 309 c 0,27,28
 152 272 152 272 152 222 c 128,-1,29
 152 172 152 172 198 136 c 128,-1,30
 244 100 244 100 310 100 c 0,31,32
 353 100 353 100 396 117 c 0,33,34
 518 166 518 166 582 285 c 0,35,36
 603 324 603 324 603 366 c 0,37,38
 603 397 603 397 580 418 c 128,-1,39
 557 439 557 439 523 439 c 0,40,41
 493 439 493 439 471.5 416 c 128,-1,42
 450 393 450 393 450 360 c 0,43,44
 450 318 450 318 470 281 c 1,45,-1
 409 257 l 1,0,1
EndSplineSet
Validated: 33
EndChar

StartChar: caretdeva
Encoding: 43258 43258 213
Width: 615
GlyphClass: 2
Flags: W
LayerCount: 2
Fore
SplineSet
308 715 m 1,0,-1
 484 945 l 1,1,-1
 544 892 l 1,2,-1
 345 666 l 1,3,-1
 272 666 l 1,4,5
 267 672 267 672 72 892 c 1,6,-1
 132 945 l 1,7,-1
 308 715 l 1,0,-1
EndSplineSet
Validated: 1
EndChar

StartChar: headstrokedeva
Encoding: 43259 43259 214
Width: 621
GlyphClass: 2
Flags: W
LayerCount: 2
Fore
SplineSet
47 818 m 1,0,-1
 47 878 l 1,1,-1
 573 878 l 1,2,-1
 573 818 l 1,3,-1
 47 818 l 1,0,-1
EndSplineSet
Validated: 1
EndChar

StartChar: isigndeva.alt1
Encoding: 65538 -1 215
Width: 266
GlyphClass: 4
Flags: W
LayerCount: 2
Fore
SplineSet
-13 606 m 1,0,-1
 -13 666 l 1,1,-1
 100 666 l 1,2,3
 91 678 91 678 85.5 693 c 128,-1,4
 80 708 80 708 80 726 c 0,5,6
 80 816 80 816 155 880.5 c 128,-1,7
 230 945 230 945 393 945 c 0,8,9
 538 945 538 945 660.5 885 c 128,-1,10
 783 825 783 825 947 664 c 5,11,-1
 867 664 l 5,12,13
 711.842 812.853 711.842 812.853 602 852 c 0,14,15
 508 886 508 886 403 886 c 0,16,17
 268 886 268 886 207 839 c 128,-1,18
 146 792 146 792 146 726 c 0,19,20
 146 708 146 708 151.5 693 c 128,-1,21
 157 678 157 678 166 666 c 1,22,-1
 280 666 l 1,23,-1
 280 606 l 1,24,-1
 166 606 l 1,25,-1
 166 0 l 1,26,-1
 100 0 l 1,27,-1
 100 606 l 1,28,-1
 -13 606 l 1,0,-1
EndSplineSet
Validated: 1
EndChar

StartChar: esigndeva_anusvaradeva
Encoding: 65539 -1 216
Width: 0
GlyphClass: 4
Flags: W
AnchorPoint: "DVAnchor3" -125 665 mark 0
LayerCount: 2
Fore
SplineSet
-136 866 m 1,0,-1
 -136 959 l 1,1,-1
 -36 959 l 1,2,-1
 -36 866 l 1,3,-1
 -136 866 l 1,0,-1
-169 666 m 1,4,-1
 -415 952 l 1,5,-1
 -369 999 l 1,6,-1
 -103 666 l 1,7,-1
 -169 666 l 1,4,-1
EndSplineSet
Validated: 1
Ligature2: "AboveBaseSubstitutionslookup subtable" esigndeva anusvaradeva
EndChar

StartChar: esign_ra_virama.alt1
Encoding: 65540 -1 217
Width: 0
GlyphClass: 4
Flags: W
AnchorPoint: "DVAnchor3" -115 664 mark 0
LayerCount: 2
Fore
SplineSet
-156 666 m 1,0,-1
 -415 952 l 1,1,-1
 -369 999 l 1,2,-1
 -222 826 l 1,3,4
 -214 878 -214 878 -171 911.5 c 128,-1,5
 -128 945 -128 945 -69 945 c 0,6,7
 -47 945 -47 945 -23 938.5 c 128,-1,8
 1 932 1 932 24 919 c 1,9,-1
 4 872 l 1,10,11
 -13 882 -13 882 -32 887 c 128,-1,12
 -51 892 -51 892 -69 892 c 0,13,14
 -108 892 -108 892 -135 865 c 128,-1,15
 -162 838 -162 838 -162 799 c 0,16,17
 -162 775 -162 775 -159 757.5 c 128,-1,18
 -156 740 -156 740 -149 732 c 2,19,-1
 -89 666 l 1,20,-1
 -156 666 l 1,0,-1
EndSplineSet
Validated: 1
Ligature2: "AboveBaseSubstitutionslookup subtable" esigndeva radeva_viramadeva
EndChar

StartChar: esign_ra_virama_anusvara
Encoding: 65541 -1 218
Width: 0
GlyphClass: 4
Flags: W
AnchorPoint: "DVAnchor3" -117 673 mark 0
LayerCount: 2
Fore
SplineSet
-156 666 m 1,0,-1
 -402 959 l 1,1,-1
 -356 999 l 1,2,-1
 -222 819 l 1,3,4
 -214 874 -214 874 -170.5 909.5 c 128,-1,5
 -127 945 -127 945 -69 945 c 0,6,7
 -44 945 -44 945 -20.5 940 c 128,-1,8
 3 935 3 935 24 925 c 1,9,-1
 4 872 l 1,10,11
 -13 882 -13 882 -32 887 c 128,-1,12
 -51 892 -51 892 -69 892 c 0,13,14
 -108 892 -108 892 -135 865 c 128,-1,15
 -162 838 -162 838 -162 799 c 0,16,17
 -162 775 -162 775 -159 757.5 c 128,-1,18
 -156 740 -156 740 -149 732 c 2,19,-1
 -96 666 l 1,20,-1
 -156 666 l 1,0,-1
-96 746 m 1,21,-1
 -96 819 l 1,22,-1
 -29 819 l 1,23,-1
 -29 746 l 1,24,-1
 -96 746 l 1,21,-1
EndSplineSet
Validated: 1
Ligature2: "AboveBaseSubstitutionslookup subtable" esigndeva radeva_viramadeva anusvaradeva
EndChar

StartChar: aisigndeva_anusvaradeva
Encoding: 65542 -1 219
Width: 0
GlyphClass: 4
Flags: W
AnchorPoint: "DVAnchor3" -131 665 mark 0
LayerCount: 2
Fore
SplineSet
-112 832 m 1,0,-1
 -112 925 l 1,1,-1
 -12 925 l 1,2,-1
 -12 832 l 1,3,-1
 -112 832 l 1,0,-1
-192 666 m 1,4,-1
 -478 806 l 1,5,-1
 -445 866 l 1,6,-1
 -145 672 l 1,7,-1
 -292 959 l 1,8,-1
 -225 999 l 1,9,-1
 -105 666 l 1,10,-1
 -192 666 l 1,4,-1
EndSplineSet
Validated: 1
Ligature2: "AboveBaseSubstitutionslookup subtable" aisigndeva anusvaradeva
EndChar

StartChar: aisign_ra_virama.alt1
Encoding: 65543 -1 220
Width: 0
GlyphClass: 4
Flags: W
AnchorPoint: "DVAnchor3" -111 671 mark 0
LayerCount: 2
Fore
SplineSet
-172 666 m 1,0,-1
 -465 799 l 1,1,-1
 -431 866 l 1,2,-1
 -125 672 l 1,3,-1
 -292 959 l 1,4,-1
 -225 999 l 1,5,-1
 -165 859 l 1,6,7
 -145 899 -145 899 -106 922 c 128,-1,8
 -67 945 -67 945 -19 945 c 0,9,10
 0 945 0 945 18 942 c 128,-1,11
 36 939 36 939 55 932 c 1,12,-1
 55 872 l 1,13,14
 27 883 27 883 9 887.5 c 128,-1,15
 -9 892 -9 892 -19 892 c 0,16,17
 -65 892 -65 892 -98.5 863 c 128,-1,18
 -132 834 -132 834 -132 792 c 0,19,20
 -132 784 -132 784 -127.5 769.5 c 128,-1,21
 -123 755 -123 755 -112 732 c 1,22,-1
 -85 666 l 1,23,-1
 -172 666 l 1,0,-1
EndSplineSet
Validated: 1
Ligature2: "AboveBaseSubstitutionslookup subtable" aisigndeva radeva_viramadeva
EndChar

StartChar: aisign_ra_virama_anusvara
Encoding: 65544 -1 221
Width: 0
GlyphClass: 4
AnchorPoint: "DVAnchor3" -113 666 mark 0
LayerCount: 2
Fore
SplineSet
-172 666 m 1,0,-1
 -458 806 l 1,1,-1
 -431 866 l 1,2,-1
 -125 672 l 1,3,-1
 -292 959 l 1,4,-1
 -225 999 l 1,5,-1
 -165 859 l 1,6,7
 -145 899 -145 899 -106 922 c 128,-1,8
 -67 945 -67 945 -19 945 c 0,9,10
 0 945 0 945 18 942 c 128,-1,11
 36 939 36 939 55 932 c 1,12,-1
 55 872 l 1,13,14
 27 883 27 883 9 887.5 c 128,-1,15
 -9 892 -9 892 -19 892 c 0,16,17
 -65 892 -65 892 -98.5 863 c 128,-1,18
 -132 834 -132 834 -132 792 c 0,19,20
 -132 784 -132 784 -127.5 769.5 c 128,-1,21
 -123 755 -123 755 -112 732 c 1,22,-1
 -85 666 l 1,23,-1
 -172 666 l 1,0,-1
-52 739 m 1,24,-1
 -52 812 l 1,25,-1
 21 812 l 1,26,-1
 21 739 l 1,27,-1
 -52 739 l 1,24,-1
EndSplineSet
Validated: 1
Ligature2: "AboveBaseSubstitutionslookup subtable" aisigndeva radeva_viramadeva anusvaradeva
EndChar

StartChar: radeva_viramadeva
Encoding: 65545 -1 222
Width: 0
GlyphClass: 4
Flags: W
AnchorPoint: "DVAnchor3" -71 664 mark 0
LayerCount: 2
Fore
SplineSet
-128 666 m 5,0,1
 -162 695 -162 695 -181.5 729.5 c 132,-1,2
 -201 764 -201 764 -201 799 c 4,3,4
 -201 860 -201 860 -154.5 902.5 c 132,-1,5
 -108 945 -108 945 -41 945 c 4,6,7
 -23 945 -23 945 -5 942 c 132,-1,8
 13 939 13 939 32 932 c 5,9,-1
 32 872 l 5,10,11
 4 883 4 883 -14 887.5 c 132,-1,12
 -32 892 -32 892 -41 892 c 4,13,14
 -80 892 -80 892 -107 865 c 132,-1,15
 -134 838 -134 838 -134 799 c 4,16,17
 -134 762 -134 762 -109 726.5 c 132,-1,18
 -84 691 -84 691 -41 666 c 5,19,-1
 -128 666 l 5,0,1
EndSplineSet
Validated: 1
Ligature2: "RephFormlookup7 subtable" radeva viramadeva
EndChar

StartChar: radeva_viramadeva_anusvaradeva
Encoding: 65546 -1 223
Width: 0
GlyphClass: 4
Flags: W
AnchorPoint: "DVAnchor3" -112 665 mark 0
LayerCount: 2
Fore
SplineSet
-75 759 m 1,0,-1
 -75 832 l 1,1,-1
 -1 832 l 1,2,-1
 -1 759 l 1,3,-1
 -75 759 l 1,0,-1
-168 666 m 1,4,5
 -197 695 -197 695 -212.5 729.5 c 128,-1,6
 -228 764 -228 764 -228 799 c 0,7,8
 -228 860 -228 860 -186.5 902.5 c 128,-1,9
 -145 945 -145 945 -88 945 c 0,10,11
 -57 945 -57 945 -35 942 c 128,-1,12
 -13 939 -13 939 -1 932 c 1,13,-1
 -1 879 l 1,14,15
 -16 886 -16 886 -37.5 889 c 128,-1,16
 -59 892 -59 892 -88 892 c 0,17,18
 -119 892 -119 892 -140 865 c 128,-1,19
 -161 838 -161 838 -161 799 c 0,20,21
 -161 767 -161 767 -144 732.5 c 128,-1,22
 -127 698 -127 698 -95 666 c 1,23,-1
 -168 666 l 1,4,5
EndSplineSet
Validated: 1
Ligature2: "AboveBaseSubstitutionslookup subtable" radeva_viramadeva anusvaradeva
EndChar

StartChar: viramadeva_radeva_alt
Encoding: 65547 -1 224
Width: 0
GlyphClass: 2
Flags: W
LayerCount: 2
Fore
SplineSet
-453 -33 m 1,0,-1
 -479 20 l 1,1,-1
 -127 200 l 1,2,-1
 -127 140 l 1,3,-1
 -453 -33 l 1,0,-1
EndSplineSet
Validated: 1
EndChar

StartChar: viramadeva_radeva
Encoding: 65548 -1 225
Width: 0
GlyphClass: 4
Flags: W
AnchorPoint: "DVAnchor0" -135 128 mark 0
LayerCount: 2
Fore
SplineSet
-360 -220 m 1,0,-1
 -180 47 l 1,1,-1
 -93 47 l 1,2,-1
 73 -220 l 1,3,-1
 7 -220 l 1,4,-1
 -133 0 l 1,5,-1
 -280 -220 l 1,6,-1
 -360 -220 l 1,0,-1
EndSplineSet
Validated: 1
Ligature2: "BelowBaseFormslookup9 subtable" radeva viramadeva
Ligature2: "BelowBaseFormslookup9 subtable" viramadeva radeva
EndChar

